{
.formatVersion = 3;
axes = (
{
name = Weight;
tag = wght;
}
);
classes = (
{
code = "S Sacute Scaron";
name = _S_Both;
},
{
code = "T Tcedilla Tcaron Tcommaaccent";
name = _T_Both;
},
{
code = "U Uogonek Umacron Uring Uhungarumlaut Ugrave Uacute Ucircumflex Udieresis";
name = _U_Both;
},
{
code = W;
name = _W_Both;
},
{
code = "Y Yacute Ydieresis";
name = _Y_Both;
},
{
code = "Z Zacute Zdotaccent Zcaron";
name = _Z_Both;
},
{
code = "i iogonek igrave iacute icircumflex idieresis imacron";
name = _i_Both;
},
{
code = "s scaron sacute";
name = _s_both;
},
{
code = "t tcedilla tcaron tcommaaccent";
name = _t_Both;
},
{
code = "u uogonek ugrave uacute ucircumflex udieresis umacron uring uhungarumlaut";
name = _u_Both;
},
{
code = "v w y ydieresis yacute";
name = _v_Both;
},
{
code = "z zacute zdotaccent zcaron";
name = _z_Both;
},
{
code = "quoteleft quotedblleft";
name = _quoteleft_Both;
},
{
code = "quoteright quotedblright";
name = _quoteright_Both;
},
{
code = "quotesingle quotedbl";
name = _quotesingl_Both;
},
{
code = "guilsinglleft guillemetleft";
name = _guilsinglleft_Both;
},
{
code = "guilsinglright guillemetright";
name = _guilsinglright_Both;
},
{
code = hyphen;
name = _hyphen_Both;
},
{
code = "period comma";
name = _period_Both;
},
{
code = B;
name = _B_Both;
},
{
code = F;
name = _F_Both;
},
{
code = "H I";
name = _H_Both;
},
{
code = J;
name = _J_Both;
},
{
code = M;
name = _M_Both;
},
{
code = P;
name = _P_Both;
},
{
code = V;
name = _V_Both;
},
{
code = X;
name = _X_Both;
},
{
code = j;
name = _j_Both;
},
{
code = x;
name = _x_Both;
},
{
code = exclam;
name = _exclam_Both;
},
{
code = question;
name = _question_Both;
},
{
code = ampersand;
name = _ampersand_Both;
},
{
code = asterisk;
name = _asterisk_Both;
},
{
code = questiondown;
name = _questiondown_Both;
},
{
code = exclamdown;
name = _exclamdown_Both;
},
{
code = "g gbreve gcommaaccent gcircumflex gdotaccent f fi fl f_f f_f_i f_f_l longs p thorn j jacute.loclNLD jdotless";
name = calt;
}
);

glyphs = (
{
glyphname = A;
layers = (
{
layerId = "853DA88A-72D0-442C-B77F-5E2897338EA9";
shapes = (
{
closed = 1;
nodes = (
(884,0,l),
(1369,0,l),
(1123,1465,l),
(550,1465,l),
(-33,0,l),
(337,0,l),
(436,298,l),
(850,298,l)
);
},
{
closed = 1;
nodes = (
(520,536,l),
(661,956,l),
(736,1195,l),
(756,1195,l),
(776,956,l),
(821,536,l)
);
}
);
width = 1456;
},
{
layerId = "E1DC4E80-D015-47E5-8658-7F3F0651B68D";
shapes = (
{
closed = 1;
nodes = (
(959,0,l),
(1345,0,l),
(1059,1465,l),
(615,1465,l),
(-8,0,l),
(296,0,l),
(427,338,l),
(903,338,l)
);
},
{
closed = 1;
nodes = (
(503,542,l),
(689,1020,l),
(757,1228,l),
(777,1228,l),
(797,1020,l),
(874,542,l)
);
}
);
width = 1458;
},
{
layerId = "5190A6EC-00FF-4542-AE94-5CA8DCFF9011";
shapes = (
{
closed = 1;
nodes = (
(1071,0,l),
(1308,0,l),
(964,1465,l),
(712,1465,l),
(30,0,l),
(234,0,l),
(413,398,l),
(983,398,l)
);
},
{
closed = 1;
nodes = (
(477,550,l),
(731,1115,l),
(788,1278,l),
(808,1278,l),
(828,1115,l),
(954,550,l)
);
}
);
width = 1460;
},
{
layerId = "1CEA669B-A0BD-449D-9ADA-118AD20DED36";
shapes = (
{
closed = 1;
nodes = (
(1146,0,l),
(1284,0,l),
(900,1465,l),
(776,1465,l),
(56,0,l),
(192,0,l),
(403,438,l),
(1037,438,l)
);
},
{
closed = 1;
nodes = (
(460,556,l),
(759,1179,l),
(808,1311,l),
(828,1311,l),
(849,1179,l),
(1007,556,l)
);
}
);
width = 1462;
}
);
leftKerningGroup = _A_Right;
rightKerningGroup = _A_Left;
unicode = 65;
},
{
glyphname = AE;
layers = (
{
layerId = "853DA88A-72D0-442C-B77F-5E2897338EA9";
shapes = (
{
closed = 1;
nodes = (
(905,0,l),
(1792,0,l),
(1867,262,l),
(1376,262,l),
(1380,634,l),
(1781,634,l),
(1847,870,l),
(1385,870,l),
(1389,1203,l),
(1884,1203,l),
(1959,1465,l),
(764,1465,l),
(-34,0,l),
(343,0,l),
(486,299,l),
(908,299,l)
);
},
{
closed = 1;
nodes = (
(603,536,l),
(821,981,l),
(816,972,o),
(811,964,o),
(805,955,c),
(911,1187,l),
(931,1187,l),
(918,955,l),
(912,536,l)
);
}
);
width = 2015;
},
{
layerId = "E1DC4E80-D015-47E5-8658-7F3F0651B68D";
shapes = (
{
closed = 1;
nodes = (
(921,0,l),
(1755,0,l),
(1820,221,l),
(1282,221,l),
(1287,654,l),
(1734,654,l),
(1793,859,l),
(1291,859,l),
(1296,1244,l),
(1843,1244,l),
(1908,1465,l),
(814,1465,l),
(-47,0,l),
(261,0,l),
(447,337,l),
(924,337,l)
);
},
{
closed = 1;
nodes = (
(556,542,l),
(806,999,ls),
(810,1006,o),
(815,1014,o),
(819,1020,c),
(929,1241,l),
(949,1241,l),
(935,1020,l),
(927,542,l)
);
}
);
width = 1976;
},
{
layerId = "5190A6EC-00FF-4542-AE94-5CA8DCFF9011";
shapes = (
{
closed = 1;
nodes = (
(945,0,l),
(1699,0,l),
(1749,159,l),
(1140,159,l),
(1148,685,l),
(1663,685,l),
(1713,842,l),
(1150,842,l),
(1157,1306,l),
(1782,1306,l),
(1832,1465,l),
(888,1465,l),
(-66,0,l),
(138,0,l),
(388,395,l),
(949,395,l)
);
},
{
closed = 1;
nodes = (
(485,550,l),
(783,1026,l),
(801,1057,o),
(820,1088,o),
(841,1118,c),
(956,1322,l),
(976,1322,l),
(960,1118,l),
(949,550,l)
);
}
);
width = 1918;
},
{
layerId = "1CEA669B-A0BD-449D-9ADA-118AD20DED36";
shapes = (
{
closed = 1;
nodes = (
(961,0,l),
(1662,0,l),
(1701,117,l),
(1046,117,l),
(1055,705,l),
(1616,705,l),
(1659,831,l),
(1056,831,l),
(1064,1348,l),
(1742,1348,l),
(1781,1465,l),
(938,1465,l),
(-78,0,l),
(56,0,l),
(348,433,l),
(965,433,l)
);
},
{
closed = 1;
nodes = (
(437,556,l),
(767,1044,l),
(795,1091,o),
(824,1138,o),
(855,1183,c),
(974,1376,l),
(994,1376,l),
(976,1183,l),
(963,556,l)
);
}
);
width = 1880;
}
);
leftKerningGroup = _A_Right;
rightKerningGroup = _E_Left;
unicode = 198;
},
{
color = 9;
glyphname = Abrevehookabove;
layers = (
{
anchors = (
{
name = bottom;
position = "{678, 0}";
},
{
name = ogonek;
position = "{1450, 0}";
},
{
name = top;
position = "{927, 2355}";
}
);
layerId = "853DA88A-72D0-442C-B77F-5E2897338EA9";
shapes = (
{
closed = 1;
nodes = (
(1023,1918,l),
(1058,2069,l),
(950,1994,l),
(1092,1994,o),
(1186,2068,o),
(1195,2166,cs),
(1206,2269,o),
(1124,2361,o),
(982,2361,cs),
(912,2361,o),
(823,2337,o),
(726,2266,c),
(775,2148,l),
(804,2165,o),
(847,2181,o),
(880,2181,cs),
(907,2181,o),
(937,2167,o),
(931,2137,c),
(931,2097,o),
(872,2076,o),
(822,2071,c),
(819,1918,l)
);
},
{
alignment = -1;
ref = Abreve;
}
);
width = 1571;
},
{
anchors = (
{
name = bottom;
position = "{660, 0}";
},
{
name = ogonek;
position = "{1382, 0}";
},
{
name = top;
position = "{910, 2343}";
}
);
layerId = "E1DC4E80-D015-47E5-8658-7F3F0651B68D";
shapes = (
{
closed = 1;
nodes = (
(977,1915,l),
(1005,2060,l),
(919,1993,l),
(1056,1993,o),
(1153,2061,o),
(1163,2160,c),
(1174,2257,o),
(1095,2347,o),
(953,2347,cs),
(888,2347,o),
(802,2327,o),
(715,2255,c),
(759,2159,l),
(791,2182,o),
(837,2200,o),
(877,2200,cs),
(926,2200,o),
(958,2172,o),
(951,2138,c),
(948,2091,o),
(878,2066,o),
(815,2062,c),
(811,1915,l)
);
},
{
alignment = -1;
ref = Abreve;
}
);
width = 1523;
},
{
anchors = (
{
name = bottom;
position = "{632, 0}";
},
{
name = ogonek;
position = "{1279, 0}";
},
{
name = top;
position = "{885, 2325}";
}
);
layerId = "5190A6EC-00FF-4542-AE94-5CA8DCFF9011";
shapes = (
{
closed = 1;
nodes = (
(907,1910,l),
(925,2047,l),
(872,1992,l),
(1003,1992,o),
(1103,2051,o),
(1114,2151,c),
(1127,2240,o),
(1052,2327,o),
(909,2327,cs),
(852,2327,o),
(770,2312,o),
(699,2239,c),
(735,2176,l),
(771,2208,o),
(821,2228,o),
(872,2228,cs),
(955,2228,o),
(989,2179,o),
(980,2139,c),
(973,2083,o),
(887,2051,o),
(805,2049,c),
(798,1910,l)
);
},
{
alignment = -1;
ref = Abreve;
}
);
width = 1450;
},
{
anchors = (
{
name = bottom;
position = "{614, 0}";
},
{
name = ogonek;
position = "{1211, 0}";
},
{
name = top;
position = "{868, 2313}";
}
);
layerId = "1CEA669B-A0BD-449D-9ADA-118AD20DED36";
shapes = (
{
closed = 1;
nodes = (
(861,1907,l),
(872,2039,l),
(840,1992,l),
(967,1992,o),
(1069,2045,o),
(1082,2145,c),
(1095,2228,o),
(1024,2313,o),
(879,2313,cs),
(828,2313,o),
(748,2302,o),
(688,2228,c),
(719,2188,l),
(757,2226,o),
(811,2246,o),
(868,2246,cs),
(974,2246,o),
(1009,2183,o),
(1000,2139,cs),
(989,2077,o),
(893,2041,o),
(798,2041,c),
(790,1907,l)
);
},
{
alignment = -1;
ref = Abreve;
}
);
width = 1402;
}
);
unicode = 7858;
},
{
color = 9;
glyphname = Acircumflexhookabove;
layers = (
{
anchors = (
{
name = bottom;
position = "{678, 0}";
},
{
name = ogonek;
position = "{1450, 0}";
},
{
name = top;
position = "{896, 1993}";
}
);
layerId = "853DA88A-72D0-442C-B77F-5E2897338EA9";
shapes = (
{
closed = 1;
nodes = (
(1384,1810,l),
(1419,1962,l),
(1310,1888,l),
(1452,1888,o),
(1548,1961,o),
(1557,2059,cs),
(1566,2161,o),
(1485,2253,o),
(1343,2253,cs),
(1273,2253,o),
(1183,2231,o),
(1087,2159,c),
(1137,2041,l),
(1164,2058,o),
(1209,2073,o),
(1242,2073,cs),
(1269,2073,o),
(1297,2060,o),
(1293,2029,c),
(1291,1991,o),
(1233,1970,o),
(1184,1964,c),
(1181,1810,l)
);
},
{
alignment = -1;
ref = Acircumflex;
}
);
width = 1571;
},
{
anchors = (
{
name = bottom;
position = "{660, 0}";
},
{
name = ogonek;
position = "{1382, 0}";
},
{
name = top;
position = "{877, 1983}";
}
);
layerId = "E1DC4E80-D015-47E5-8658-7F3F0651B68D";
shapes = (
{
closed = 1;
nodes = (
(1302,1804,l),
(1330,1950,l),
(1243,1884,l),
(1381,1884,o),
(1479,1951,o),
(1489,2050,cs),
(1499,2146,o),
(1421,2236,o),
(1278,2236,cs),
(1214,2236,o),
(1126,2217,o),
(1041,2145,c),
(1085,2049,l),
(1115,2072,o),
(1163,2089,o),
(1203,2089,cs),
(1252,2089,o),
(1282,2061,o),
(1277,2026,c),
(1272,1982,o),
(1204,1957,o),
(1141,1952,c),
(1137,1804,l)
);
},
{
alignment = -1;
ref = Acircumflex;
}
);
width = 1523;
},
{
anchors = (
{
name = bottom;
position = "{632, 0}";
},
{
name = ogonek;
position = "{1279, 0}";
},
{
name = top;
position = "{848, 1968}";
}
);
layerId = "5190A6EC-00FF-4542-AE94-5CA8DCFF9011";
shapes = (
{
closed = 1;
nodes = (
(1180,1795,l),
(1197,1932,l),
(1143,1878,l),
(1275,1878,o),
(1375,1937,o),
(1387,2036,c),
(1399,2124,o),
(1325,2211,o),
(1181,2211,cs),
(1125,2211,o),
(1041,2197,o),
(971,2123,c),
(1008,2061,l),
(1042,2093,o),
(1094,2112,o),
(1144,2112,cs),
(1227,2112,o),
(1260,2063,o),
(1253,2022,cs),
(1244,1968,o),
(1160,1937,o),
(1077,1935,c),
(1071,1795,l)
);
},
{
alignment = -1;
ref = Acircumflex;
}
);
width = 1450;
},
{
anchors = (
{
name = bottom;
position = "{614, 0}";
},
{
name = ogonek;
position = "{1211, 0}";
},
{
name = top;
position = "{828, 1958}";
}
);
layerId = "1CEA669B-A0BD-449D-9ADA-118AD20DED36";
shapes = (
{
closed = 1;
nodes = (
(1098,1789,l),
(1109,1920,l),
(1077,1874,l),
(1204,1874,o),
(1306,1927,o),
(1319,2027,c),
(1332,2109,o),
(1261,2194,o),
(1116,2194,cs),
(1065,2194,o),
(985,2183,o),
(925,2109,c),
(956,2069,l),
(994,2107,o),
(1048,2128,o),
(1105,2128,cs),
(1211,2128,o),
(1245,2065,o),
(1237,2020,cs),
(1226,1958,o),
(1130,1923,o),
(1035,1923,c),
(1027,1789,l)
);
},
{
alignment = -1;
ref = Acircumflex;
}
);
width = 1402;
}
);
unicode = 7848;
},
{
color = 9;
glyphname = Ahookabove;
layers = (
{
anchors = (
{
name = bottom;
position = "{678, 0}";
},
{
name = ogonek;
position = "{1450, 0}";
},
{
name = top;
position = "{935, 2132}";
}
);
layerId = "853DA88A-72D0-442C-B77F-5E2897338EA9";
shapes = (
{
closed = 1;
nodes = (
(991,1559,l),
(1029,1780,l),
(862,1647,l),
(1090,1662,o),
(1212,1775,o),
(1224,1893,c),
(1238,2013,o),
(1131,2132,o),
(902,2132,cs),
(799,2132,o),
(678,2107,o),
(573,2047,c),
(645,1882,l),
(698,1906,o),
(755,1917,o),
(801,1917,cs),
(862,1917,o),
(893,1900,o),
(885,1857,cs),
(875,1808,o),
(806,1788,o),
(717,1783,c),
(709,1559,l)
);
},
{
alignment = -1;
ref = A;
}
);
width = 1571;
},
{
anchors = (
{
name = bottom;
position = "{660, 0}";
},
{
name = ogonek;
position = "{1382, 0}";
},
{
name = top;
position = "{914, 2098}";
}
);
layerId = "E1DC4E80-D015-47E5-8658-7F3F0651B68D";
shapes = (
{
closed = 1;
nodes = (
(946,1557,l),
(979,1762,l),
(844,1654,l),
(1054,1665,o),
(1171,1762,o),
(1183,1873,c),
(1197,1989,o),
(1094,2098,o),
(884,2098,cs),
(784,2098,o),
(672,2072,o),
(577,2009,c),
(640,1877,l),
(690,1908,o),
(750,1924,o),
(807,1924,cs),
(879,1924,o),
(920,1898,o),
(911,1847,c),
(900,1795,o),
(828,1768,o),
(726,1764,c),
(717,1557,l)
);
},
{
alignment = -1;
ref = A;
}
);
width = 1523;
},
{
anchors = (
{
name = bottom;
position = "{632, 0}";
},
{
name = ogonek;
position = "{1279, 0}";
},
{
name = top;
position = "{882, 2048}";
}
);
layerId = "5190A6EC-00FF-4542-AE94-5CA8DCFF9011";
shapes = (
{
closed = 1;
nodes = (
(879,1553,l),
(903,1734,l),
(816,1664,l),
(1000,1669,o),
(1110,1743,o),
(1122,1843,cs),
(1136,1952,o),
(1039,2048,o),
(857,2048,cs),
(762,2048,o),
(664,2020,o),
(583,1952,c),
(633,1869,l),
(677,1912,o),
(743,1934,o),
(817,1934,cs),
(905,1934,o),
(960,1894,o),
(949,1833,c),
(938,1775,o),
(862,1738,o),
(740,1736,c),
(729,1553,l)
);
},
{
alignment = -1;
ref = A;
}
);
width = 1450;
},
{
anchors = (
{
name = bottom;
position = "{614, 0}";
},
{
name = ogonek;
position = "{1211, 0}";
},
{
name = top;
position = "{860, 2014}";
}
);
layerId = "1CEA669B-A0BD-449D-9ADA-118AD20DED36";
shapes = (
{
closed = 1;
nodes = (
(835,1551,l),
(853,1716,l),
(798,1671,l),
(964,1671,o),
(1069,1731,o),
(1081,1823,cs),
(1095,1928,o),
(1002,2014,o),
(839,2014,cs),
(748,2014,o),
(658,1986,o),
(587,1914,c),
(628,1863,l),
(669,1914,o),
(738,1941,o),
(823,1941,cs),
(923,1941,o),
(986,1892,o),
(975,1823,cs),
(964,1761,o),
(884,1718,o),
(750,1718,c),
(737,1551,l)
);
},
{
alignment = -1;
ref = A;
}
);
width = 1402;
}
);
unicode = 7842;
},
{
glyphname = Alphatonos;
rightMetricsKey = Alpha;
layers = (
{
layerId = "853DA88A-72D0-442C-B77F-5E2897338EA9";
shapes = (
{
closed = 1;
nodes = (
(1709,0,l),
(1345,1464,l),
(861,1464,l),
(178,0,l),
(611,0,l),
(1084,1211,l),
(1001,1211,l),
(1192,0,l)
);
},
{
closed = 1;
nodes = (
(1418,259,l),
(1295,585,l),
(615,585,l),
(460,259,l)
);
},
{
closed = 1;
nodes = (
(553,1464,l),
(107,1464,l),
(-20,873,l),
(319,873,l)
);
}
);
width = 1796;
},
{
layerId = "E1DC4E80-D015-47E5-8658-7F3F0651B68D";
shapes = (
{
closed = 1;
nodes = (
(1574,0,l),
(1206,1464,l),
(829,1464,l),
(138,0,l),
(482,0,l),
(1007,1263,l),
(933,1263,l),
(1169,0,l)
);
},
{
closed = 1;
nodes = (
(1310,338,l),
(1211,599,l),
(550,599,l),
(427,338,l)
);
},
{
closed = 1;
nodes = (
(488,1464,l),
(136,1464,l),
(7,880,l),
(273,880,l)
);
}
);
width = 1687;
},
{
layerId = "5190A6EC-00FF-4542-AE94-5CA8DCFF9011";
shapes = (
{
closed = 1;
nodes = (
(1372,0,l),
(997,1464,l),
(782,1464,l),
(78,0,l),
(289,0,l),
(891,1341,l),
(832,1341,l),
(1134,0,l)
);
},
{
closed = 1;
nodes = (
(1149,456,l),
(1086,620,l),
(453,620,l),
(377,456,l)
);
},
{
closed = 1;
nodes = (
(391,1464,l),
(180,1464,l),
(47,891,l),
(204,891,l)
);
}
);
width = 1524;
},
{
layerId = "1CEA669B-A0BD-449D-9ADA-118AD20DED36";
shapes = (
{
closed = 1;
nodes = (
(1238,0,l),
(857,1464,l),
(750,1464,l),
(38,0,l),
(161,0,l),
(813,1393,l),
(764,1393,l),
(1111,0,l)
);
},
{
closed = 1;
nodes = (
(1041,534,l),
(1002,634,l),
(388,634,l),
(343,534,l)
);
},
{
closed = 1;
nodes = (
(327,1464,l),
(209,1464,l),
(74,899,l),
(158,899,l)
);
}
);
width = 1416;
}
);
unicode = 902;
},
{
glyphname = Aogonek;
layers = (
{
layerId = "853DA88A-72D0-442C-B77F-5E2897338EA9";
shapes = (
{
closed = 1;
nodes = (
(706,-352,o),
(784,-434,o),
(919,-434,cs),
(1029,-434,o),
(1149,-381,o),
(1196,-343,c),
(1212,-206,l),
(1184,-220,o),
(1140,-225,o),
(1111,-223,c),
(1032,-222,o),
(1002,-169,o),
(1002,-126,cs),
(1002,-70,o),
(1054,-32,o),
(1104,0,c),
(1369,0,l),
(1123,1465,l),
(550,1465,l),
(-33,0,l),
(337,0,l),
(436,298,l),
(850,298,l),
(882,10,l),
(761,-67,o),
(706,-158,o),
(706,-246,cs)
);
},
{
closed = 1;
nodes = (
(520,536,l),
(661,956,l),
(736,1195,l),
(756,1195,l),
(776,956,l),
(821,536,l)
);
}
);
width = 1456;
},
{
layerId = "E1DC4E80-D015-47E5-8658-7F3F0651B68D";
shapes = (
{
closed = 1;
nodes = (
(771,-357,o),
(845,-439,o),
(971,-439,cs),
(1067,-439,o),
(1173,-394,o),
(1224,-351,c),
(1237,-231,l),
(1204,-248,o),
(1156,-258,o),
(1123,-259,c),
(1044,-261,o),
(1009,-212,o),
(1009,-164,cs),
(1009,-101,o),
(1071,-45,o),
(1145,0,c),
(1345,0,l),
(1059,1465,l),
(615,1465,l),
(-8,0,l),
(296,0,l),
(427,338,l),
(903,338,l),
(957,8,l),
(828,-74,o),
(771,-158,o),
(771,-253,cs)
);
},
{
closed = 1;
nodes = (
(503,542,l),
(689,1020,l),
(757,1228,l),
(777,1228,l),
(797,1020,l),
(874,542,l)
);
}
);
width = 1458;
},
{
layerId = "5190A6EC-00FF-4542-AE94-5CA8DCFF9011";
shapes = (
{
closed = 1;
nodes = (
(869,-365,o),
(937,-447,o),
(1049,-447,cs),
(1123,-447,o),
(1209,-414,o),
(1265,-364,c),
(1274,-269,l),
(1235,-290,o),
(1181,-307,o),
(1140,-314,c),
(1062,-320,o),
(1020,-276,o),
(1020,-220,cs),
(1020,-147,o),
(1096,-65,o),
(1206,0,c),
(1308,0,l),
(964,1465,l),
(712,1465,l),
(30,0,l),
(234,0,l),
(413,398,l),
(983,398,l),
(1069,6,l),
(929,-84,o),
(869,-159,o),
(869,-264,cs)
);
},
{
closed = 1;
nodes = (
(477,550,l),
(731,1115,l),
(788,1278,l),
(808,1278,l),
(828,1115,l),
(954,550,l)
);
}
);
width = 1460;
},
{
layerId = "1CEA669B-A0BD-449D-9ADA-118AD20DED36";
shapes = (
{
closed = 1;
nodes = (
(935,-370,o),
(998,-452,o),
(1101,-452,cs),
(1161,-452,o),
(1233,-427,o),
(1293,-372,c),
(1299,-295,l),
(1255,-318,o),
(1197,-339,o),
(1152,-350,c),
(1074,-359,o),
(1028,-318,o),
(1028,-258,cs),
(1028,-177,o),
(1112,-78,o),
(1246,0,c),
(1284,0,l),
(900,1465,l),
(776,1465,l),
(56,0,l),
(192,0,l),
(403,438,l),
(1037,438,l),
(1144,4,l),
(997,-91,o),
(935,-159,o),
(935,-271,cs)
);
},
{
closed = 1;
nodes = (
(460,556,l),
(759,1179,l),
(808,1311,l),
(828,1311,l),
(849,1179,l),
(1007,556,l)
);
}
);
width = 1462;
}
);
leftKerningGroup = _A_Right;
rightKerningGroup = _A_Left;
unicode = 260;
},
{
glyphname = B;
layers = (
{
layerId = "853DA88A-72D0-442C-B77F-5E2897338EA9";
shapes = (
{
closed = 1;
nodes = (
(1333,925,o),
(1466,995,o),
(1466,1161,cs),
(1466,1341,o),
(1273,1465,o),
(908,1465,cs),
(264,1465,l),
(97,0,l),
(673,0,ls),
(1148,0,o),
(1450,214,o),
(1450,483,cs),
(1450,675,o),
(1293,788,o),
(1160,821,c)
);
},
{
closed = 1;
nodes = (
(632,634,l),
(755,634,ls),
(881,634,o),
(973,590,o),
(973,477,cs),
(973,356,o),
(866,262,o),
(737,262,cs),
(590,262,l)
);
},
{
closed = 1;
nodes = (
(659,871,l),
(698,1203,l),
(845,1203,ls),
(934,1203,o),
(1002,1145,o),
(1002,1056,cs),
(1002,971,o),
(953,897,o),
(911,871,c)
);
}
);
width = 1550;
},
{
layerId = "E1DC4E80-D015-47E5-8658-7F3F0651B68D";
shapes = (
{
closed = 1;
nodes = (
(1219,903,o),
(1355,992,o),
(1355,1156,cs),
(1355,1325,o),
(1182,1465,o),
(841,1465,cs),
(287,1465,l),
(120,0,l),
(624,0,ls),
(1072,0,o),
(1342,234,o),
(1342,481,cs),
(1342,659,o),
(1200,773,o),
(1062,810,c)
);
},
{
closed = 1;
nodes = (
(554,654,l),
(722,654,ls),
(855,654,o),
(969,601,o),
(969,470,cs),
(969,343,o),
(859,221,o),
(673,221,cs),
(505,221,l)
);
},
{
closed = 1;
nodes = (
(577,857,l),
(622,1244,l),
(783,1244,ls),
(912,1244,o),
(992,1179,o),
(992,1077,cs),
(992,985,o),
(934,901,o),
(865,857,c)
);
}
);
width = 1452;
},
{
layerId = "5190A6EC-00FF-4542-AE94-5CA8DCFF9011";
shapes = (
{
closed = 1;
nodes = (
(1047,870,o),
(1189,988,o),
(1189,1148,cs),
(1189,1300,o),
(1046,1465,o),
(741,1465,cs),
(322,1465,l),
(155,0,l),
(550,0,ls),
(959,0,o),
(1179,265,o),
(1179,479,cs),
(1179,634,o),
(1060,751,o),
(915,794,c)
);
},
{
closed = 1;
nodes = (
(436,685,l),
(672,685,ls),
(816,685,o),
(962,618,o),
(962,459,cs),
(962,324,o),
(849,159,o),
(577,159,cs),
(377,159,l)
);
},
{
closed = 1;
nodes = (
(455,836,l),
(509,1306,l),
(690,1306,ls),
(879,1306,o),
(976,1231,o),
(976,1109,cs),
(976,1005,o),
(906,908,o),
(796,836,c)
);
}
);
width = 1304;
},
{
layerId = "1CEA669B-A0BD-449D-9ADA-118AD20DED36";
shapes = (
{
closed = 1;
nodes = (
(933,848,o),
(1079,986,o),
(1079,1142,cs),
(1079,1284,o),
(955,1465,o),
(674,1465,cs),
(346,1465,l),
(179,0,l),
(500,0,ls),
(883,0,o),
(1071,285,o),
(1071,477,cs),
(1071,618,o),
(967,736,o),
(817,783,c)
);
},
{
closed = 1;
nodes = (
(358,705,l),
(638,705,ls),
(790,705,o),
(958,629,o),
(958,452,cs),
(958,312,o),
(843,117,o),
(513,117,cs),
(291,117,l)
);
},
{
closed = 1;
nodes = (
(373,822,l),
(433,1348,l),
(628,1348,ls),
(857,1348,o),
(966,1265,o),
(966,1130,cs),
(966,1019,o),
(887,912,o),
(750,822,c)
);
}
);
width = 1206;
}
);
unicode = 66;
},
{
color = 10;
glyphname = "Be-cy";
layers = (
{
layerId = "853DA88A-72D0-442C-B77F-5E2897338EA9";
shapes = (
{
closed = 1;
nodes = (
(678,0,ls),
(996,0,o),
(1278,138,o),
(1315,461,c),
(1349,736,o),
(1160,887,o),
(832,887,cs),
(527,887,l),
(492,587,l),
(710,587,ls),
(832,587,o),
(886,517,o),
(880,456,c),
(871,385,o),
(805,334,o),
(711,334,cs),
(514,334,l),
(598,1115,l),
(1234,1115,l),
(1271,1465,l),
(227,1465,l),
(69,0,l)
);
}
);
width = 1436;
},
{
layerId = "E1DC4E80-D015-47E5-8658-7F3F0651B68D";
shapes = (
{
closed = 1;
nodes = (
(643,0,ls),
(958,0,o),
(1228,134,o),
(1264,443,c),
(1297,716,o),
(1110,870,o),
(783,870,cs),
(466,870,l),
(438,628,l),
(691,628,ls),
(855,628,o),
(929,538,o),
(919,437,c),
(905,326,o),
(806,266,o),
(672,266,cs),
(447,266,l),
(546,1188,l),
(1204,1188,l),
(1234,1465,l),
(249,1465,l),
(91,0,l)
);
}
);
width = 1390;
},
{
layerId = "5190A6EC-00FF-4542-AE94-5CA8DCFF9011";
shapes = (
{
closed = 1;
nodes = (
(591,0,ls),
(902,0,o),
(1154,129,o),
(1187,415,cs),
(1218,685,o),
(1036,845,o),
(709,845,cs),
(375,845,l),
(357,689,l),
(663,689,ls),
(889,689,o),
(994,569,o),
(977,408,c),
(956,238,o),
(807,164,o),
(614,164,cs),
(346,164,l),
(468,1297,l),
(1160,1297,l),
(1179,1465,l),
(283,1465,l),
(125,0,l)
);
}
);
width = 1322;
},
{
layerId = "1CEA669B-A0BD-449D-9ADA-118AD20DED36";
shapes = (
{
closed = 1;
nodes = (
(556,0,ls),
(864,0,o),
(1104,125,o),
(1135,397,cs),
(1166,665,o),
(986,828,o),
(659,828,cs),
(314,828,l),
(303,730,l),
(645,730,ls),
(911,730,o),
(1037,590,o),
(1015,389,cs),
(990,180,o),
(807,96,o),
(576,96,cs),
(278,96,l),
(416,1369,l),
(1130,1369,l),
(1142,1465,l),
(305,1465,l),
(147,0,l)
);
}
);
width = 1276;
}
);
leftKerningGroup = "Be-cy";
unicode = 1041;
},
{
glyphname = C;
layers = (
{
layerId = "853DA88A-72D0-442C-B77F-5E2897338EA9";
shapes = (
{
closed = 1;
nodes = (
(1287,320,l),
(1221,298,o),
(1151,265,o),
(1020,265,cs),
(744,265,o),
(584,408,o),
(584,699,cs),
(584,1017,o),
(770,1223,o),
(1044,1223,cs),
(1125,1223,o),
(1225,1204,o),
(1329,1150,c),
(1350,1158,l),
(1447,1442,l),
(1322,1474,o),
(1155,1485,o),
(1061,1485,cs),
(602,1485,o),
(100,1181,o),
(100,626,cs),
(100,224,o),
(361,-20,o),
(749,-20,cs),
(958,-20,o),
(1166,50,o),
(1287,140,c)
);
}
);
width = 1435;
},
{
layerId = "E1DC4E80-D015-47E5-8658-7F3F0651B68D";
shapes = (
{
closed = 1;
nodes = (
(1279,286,l),
(1180,242,o),
(1083,216,o),
(969,216,cs),
(662,216,o),
(502,402,o),
(502,686,cs),
(502,1023,o),
(725,1264,o),
(1027,1264,cs),
(1110,1264,o),
(1228,1247,o),
(1336,1191,c),
(1357,1200,l),
(1435,1429,l),
(1308,1470,o),
(1147,1485,o),
(1053,1485,cs),
(599,1485,o),
(124,1164,o),
(124,635,cs),
(124,225,o),
(380,-20,o),
(763,-20,cs),
(933,-20,o),
(1143,34,o),
(1280,135,c)
);
}
);
width = 1438;
},
{
layerId = "5190A6EC-00FF-4542-AE94-5CA8DCFF9011";
shapes = (
{
closed = 1;
nodes = (
(1268,234,l),
(1119,158,o),
(980,143,o),
(892,143,cs),
(538,143,o),
(380,392,o),
(380,667,cs),
(380,1033,o),
(658,1326,o),
(1002,1326,cs),
(1088,1326,o),
(1232,1311,o),
(1347,1253,c),
(1368,1262,l),
(1417,1409,l),
(1288,1464,o),
(1136,1485,o),
(1041,1485,cs),
(594,1485,o),
(161,1139,o),
(161,648,cs),
(161,226,o),
(408,-20,o),
(783,-20,cs),
(896,-20,o),
(1109,10,o),
(1269,128,c)
);
}
);
width = 1442;
},
{
layerId = "1CEA669B-A0BD-449D-9ADA-118AD20DED36";
shapes = (
{
closed = 1;
nodes = (
(1260,200,l),
(1078,102,o),
(912,95,o),
(840,95,cs),
(456,95,o),
(298,386,o),
(298,655,cs),
(298,1039,o),
(613,1368,o),
(986,1368,cs),
(1074,1368,o),
(1234,1354,o),
(1354,1294,c),
(1375,1304,l),
(1405,1396,l),
(1274,1460,o),
(1128,1485,o),
(1033,1485,cs),
(591,1485,o),
(185,1123,o),
(185,657,cs),
(185,226,o),
(427,-20,o),
(797,-20,cs),
(872,-20,o),
(1087,-6,o),
(1262,123,c)
);
}
);
width = 1445;
}
);
leftKerningGroup = _C_Right;
rightKerningGroup = _C_Left;
unicode = 67;
},
{
glyphname = Ccedilla;
layers = (
{
layerId = "853DA88A-72D0-442C-B77F-5E2897338EA9";
shapes = (
{
closed = 1;
nodes = (
(1287,320,l),
(1222,298,o),
(1149,265,o),
(1018,265,cs),
(746,265,o),
(584,406,o),
(584,699,cs),
(584,1017,o),
(769,1223,o),
(1042,1223,cs),
(1125,1223,o),
(1225,1204,o),
(1329,1150,c),
(1349,1158,l),
(1447,1442,l),
(1322,1474,o),
(1155,1485,o),
(1062,1485,cs),
(603,1485,o),
(100,1181,o),
(100,626,cs),
(100,224,o),
(363,-22,o),
(748,-20,c),
(760,-46,o),
(764,-71,o),
(764,-99,cs),
(764,-170,o),
(740,-257,o),
(519,-257,c),
(495,-469,l),
(912,-469,o),
(1004,-287,o),
(1004,-149,cs),
(1004,-84,o),
(985,-37,o),
(962,2,c),
(1088,30,o),
(1211,82,o),
(1287,140,c)
);
}
);
width = 1435;
},
{
layerId = "E1DC4E80-D015-47E5-8658-7F3F0651B68D";
shapes = (
{
closed = 1;
nodes = (
(1279,286,l),
(1181,242,o),
(1081,216,o),
(967,216,cs),
(663,216,o),
(502,400,o),
(502,686,cs),
(502,1023,o),
(724,1264,o),
(1026,1264,cs),
(1110,1264,o),
(1228,1247,o),
(1336,1191,c),
(1356,1200,l),
(1435,1429,l),
(1308,1470,o),
(1147,1485,o),
(1054,1485,cs),
(600,1485,o),
(124,1164,o),
(124,635,cs),
(124,236,o),
(386,-18,o),
(755,-20,c),
(766,-44,o),
(771,-68,o),
(771,-97,cs),
(771,-193,o),
(714,-267,o),
(526,-267,c),
(506,-447,l),
(848,-447,o),
(977,-287,o),
(977,-128,cs),
(977,-74,o),
(962,-34,o),
(943,-2,c),
(1062,21,o),
(1190,68,o),
(1280,135,c)
);
}
);
width = 1438;
},
{
layerId = "5190A6EC-00FF-4542-AE94-5CA8DCFF9011";
shapes = (
{
closed = 1;
nodes = (
(1268,234,l),
(1120,158,o),
(980,143,o),
(891,143,cs),
(539,143,o),
(380,392,o),
(380,667,cs),
(380,1033,o),
(657,1326,o),
(1002,1326,cs),
(1088,1326,o),
(1232,1311,o),
(1347,1253,c),
(1367,1262,l),
(1417,1409,l),
(1288,1464,o),
(1136,1485,o),
(1041,1485,cs),
(595,1485,o),
(161,1139,o),
(161,648,cs),
(161,254,o),
(421,-12,o),
(765,-20,c),
(775,-40,o),
(781,-64,o),
(781,-93,cs),
(781,-228,o),
(676,-283,o),
(536,-283,c),
(522,-414,l),
(753,-414,o),
(936,-288,o),
(936,-96,cs),
(936,-59,o),
(927,-30,o),
(915,-9,c),
(1023,7,o),
(1159,47,o),
(1269,128,c)
);
}
);
width = 1442;
},
{
layerId = "1CEA669B-A0BD-449D-9ADA-118AD20DED36";
shapes = (
{
closed = 1;
nodes = (
(1260,200,l),
(1079,102,o),
(912,95,o),
(840,95,cs),
(456,95,o),
(298,386,o),
(298,655,cs),
(298,1039,o),
(613,1368,o),
(986,1368,cs),
(1074,1368,o),
(1234,1354,o),
(1354,1294,c),
(1375,1304,l),
(1405,1396,l),
(1274,1460,o),
(1128,1485,o),
(1033,1485,cs),
(591,1485,o),
(185,1123,o),
(185,657,cs),
(185,266,o),
(445,-8,o),
(772,-20,c),
(781,-38,o),
(787,-61,o),
(787,-91,cs),
(787,-251,o),
(650,-293,o),
(543,-293,c),
(532,-392,l),
(689,-392,o),
(909,-288,o),
(909,-75,cs),
(909,-49,o),
(904,-28,o),
(897,-13,c),
(997,-2,o),
(1139,33,o),
(1262,123,c)
);
}
);
width = 1445;
}
);
leftKerningGroup = _C_Right;
rightKerningGroup = _C_Left;
unicode = 199;
},
{
color = 10;
glyphname = "Che-cy";
rightMetricsKey = H;
layers = (
{
anchors = (
{
name = bottomright;
position = "{1289, 0}";
},
{
name = top;
position = "{804, 1465}";
}
);
layerId = "853DA88A-72D0-442C-B77F-5E2897338EA9";
shapes = (
{
closed = 1;
nodes = (
(1289,0,l),
(1447,1465,l),
(984,1465,l),
(825,0,l)
);
},
{
closed = 1;
nodes = (
(720,476,o),
(948,527,o),
(1099,679,c),
(950,873,l),
(910,848,o),
(833,830,o),
(765,830,cs),
(618,830,o),
(563,910,o),
(579,1071,c),
(623,1465,l),
(158,1465,l),
(98,895,l),
(67,611,o),
(282,476,o),
(553,476,cs)
);
}
);
width = 1497;
},
{
anchors = (
{
name = bottomright;
position = "{1230, 0}";
},
{
name = top;
position = "{784, 1465}";
}
);
layerId = "E1DC4E80-D015-47E5-8658-7F3F0651B68D";
shapes = (
{
closed = 1;
nodes = (
(1230,0,l),
(1388,1465,l),
(1023,1465,l),
(864,0,l)
);
},
{
closed = 1;
nodes = (
(738,503,o),
(961,559,o),
(1103,697,c),
(982,850,l),
(929,812,o),
(822,784,o),
(734,784,cs),
(555,784,o),
(478,878,o),
(499,1074,c),
(542,1465,l),
(175,1465,l),
(119,938,ls),
(88,649,o),
(288,503,o),
(570,503,cs)
);
}
);
width = 1462;
},
{
anchors = (
{
name = bottomright;
position = "{1141, 0}";
},
{
name = top;
position = "{755, 1465}";
}
);
layerId = "5190A6EC-00FF-4542-AE94-5CA8DCFF9011";
shapes = (
{
closed = 1;
nodes = (
(1141,0,l),
(1299,1465,l),
(1081,1465,l),
(923,0,l)
);
},
{
closed = 1;
nodes = (
(766,544,o),
(981,607,o),
(1109,725,c),
(1031,816,l),
(958,758,o),
(806,715,o),
(688,715,cs),
(461,715,o),
(351,831,o),
(378,1079,cs),
(420,1465,l),
(200,1465,l),
(151,1003,ls),
(120,705,o),
(297,544,o),
(595,544,cs)
);
}
);
width = 1409;
},
{
anchors = (
{
name = bottomright;
position = "{1081, 0}";
},
{
name = top;
position = "{735, 1465}";
}
);
layerId = "1CEA669B-A0BD-449D-9ADA-118AD20DED36";
shapes = (
{
closed = 1;
nodes = (
(1081,0,l),
(1239,1465,l),
(1119,1465,l),
(962,0,l)
);
},
{
closed = 1;
nodes = (
(784,572,o),
(994,639,o),
(1113,743,c),
(1063,794,l),
(977,722,o),
(795,669,o),
(657,669,cs),
(399,669,o),
(267,799,o),
(298,1083,cs),
(338,1465,l),
(217,1465,l),
(173,1046,ls),
(142,743,o),
(303,572,o),
(612,572,cs)
);
}
);
width = 1373;
}
);
leftKerningGroup = "Che-cy";
rightKerningGroup = "Che-cy1";
unicode = 1063;
},
{
glyphname = "Cheabkhasian-cy";
layers = (
{
anchors = (
{
name = bottom;
position = "{1091, 0}";
}
);
layerId = "853DA88A-72D0-442C-B77F-5E2897338EA9";
shapes = (
{
closed = 1;
nodes = (
(1288,-41,o),
(1552,30,o),
(1752,235,c),
(1600,449,l),
(1491,384,o),
(1402,331,o),
(1235,331,cs),
(936,331,o),
(825,534,o),
(873,849,c),
(909,1094,o),
(1016,1176,o),
(1171,1176,cs),
(1354,1176,o),
(1429,1026,o),
(1401,802,c),
(1394,757,o),
(1382,707,o),
(1370,685,c),
(1780,603,l),
(1788,633,o),
(1805,715,o),
(1813,802,cs),
(1850,1231,o),
(1628,1505,o),
(1230,1505,cs),
(823,1505,o),
(478,1195,o),
(434,749,c),
(390,333,o),
(615,-41,o),
(1083,-41,cs)
);
},
{
closed = 1;
nodes = (
(580,925,ls),
(440,925,o),
(395,1005,o),
(410,1149,c),
(418,1247,o),
(460,1356,o),
(518,1465,c),
(179,1464,l),
(85,1330,o),
(31,1189,o),
(17,1061,cs),
(-13,790,o),
(118,603,o),
(461,603,cs),
(1780,603,l),
(1548,925,l)
);
}
);
width = 1924;
},
{
anchors = (
{
name = bottom;
position = "{1070, 0}";
}
);
layerId = "E1DC4E80-D015-47E5-8658-7F3F0651B68D";
shapes = (
{
closed = 1;
nodes = (
(1273,-34,o),
(1517,42,o),
(1701,233,c),
(1573,405,l),
(1459,321,o),
(1354,262,o),
(1182,262,cs),
(859,262,o),
(713,489,o),
(761,833,c),
(797,1107,o),
(938,1236,o),
(1139,1236,cs),
(1356,1236,o),
(1464,1067,o),
(1436,832,c),
(1430,793,o),
(1421,749,o),
(1410,728,c),
(1736,661,l),
(1743,692,o),
(1756,759,o),
(1763,832,cs),
(1800,1225,o),
(1575,1498,o),
(1187,1498,cs),
(788,1498,o),
(457,1190,o),
(413,756,c),
(368,329,o),
(608,-34,o),
(1067,-34,cs)
);
},
{
closed = 1;
nodes = (
(553,919,ls),
(386,919,o),
(326,1000,o),
(344,1165,c),
(352,1260,o),
(391,1362,o),
(446,1464,c),
(177,1465,l),
(93,1343,o),
(45,1214,o),
(32,1097,c),
(3,831,o),
(132,661,o),
(458,661,cs),
(1736,661,l),
(1556,919,l)
);
}
);
width = 1886;
},
{
anchors = (
{
name = bottom;
position = "{1039, 0}";
}
);
layerId = "5190A6EC-00FF-4542-AE94-5CA8DCFF9011";
shapes = (
{
closed = 1;
nodes = (
(1251,-24,o),
(1464,60,o),
(1625,231,c),
(1533,340,l),
(1412,226,o),
(1282,158,o),
(1102,158,cs),
(743,158,o),
(545,422,o),
(592,808,c),
(629,1126,o),
(822,1327,o),
(1090,1327,cs),
(1359,1327,o),
(1517,1128,o),
(1488,876,cs),
(1484,847,o),
(1479,812,o),
(1471,793,c),
(1669,749,l),
(1676,781,o),
(1683,826,o),
(1689,876,cs),
(1724,1217,o),
(1495,1488,o),
(1122,1488,cs),
(735,1488,o),
(426,1183,o),
(382,766,cs),
(336,322,o),
(598,-24,o),
(1042,-24,cs)
);
},
{
closed = 1;
nodes = (
(512,909,ls),
(306,909,o),
(222,992,o),
(244,1190,c),
(253,1279,o),
(287,1370,o),
(339,1463,c),
(173,1467,l),
(106,1362,o),
(65,1252,o),
(55,1151,c),
(26,892,o),
(152,749,o),
(453,749,cs),
(1669,749,l),
(1567,909,l)
);
}
);
width = 1830;
},
{
anchors = (
{
name = bottom;
position = "{1019, 0}";
}
);
layerId = "1CEA669B-A0BD-449D-9ADA-118AD20DED36";
shapes = (
{
closed = 1;
nodes = (
(1237,-17,o),
(1428,72,o),
(1574,229,c),
(1507,296,l),
(1380,163,o),
(1234,89,o),
(1048,89,cs),
(665,89,o),
(433,378,o),
(480,792,cs),
(517,1138,o),
(744,1387,o),
(1058,1387,cs),
(1361,1387,o),
(1553,1168,o),
(1522,906,cs),
(1520,883,o),
(1517,854,o),
(1511,837,c),
(1625,807,l),
(1632,841,o),
(1635,870,o),
(1639,906,cs),
(1674,1211,o),
(1442,1482,o),
(1079,1482,cs),
(699,1482,o),
(405,1179,o),
(362,773,cs),
(314,318,o),
(591,-17,o),
(1026,-17,cs)
);
},
{
closed = 1;
nodes = (
(484,903,ls),
(252,903,o),
(152,986,o),
(178,1206,cs),
(187,1291,o),
(218,1376,o),
(267,1463,c),
(171,1469,l),
(114,1374,o),
(79,1278,o),
(71,1187,cs),
(42,932,o),
(166,807,o),
(449,807,cs),
(1625,807,l),
(1575,903,l)
);
}
);
width = 1792;
}
);
leftKerningGroup = "Cheabkhasian-cy";
unicode = 1212;
},
{
glyphname = "Chedescender-cy";
layers = (
{
anchors = (
{
name = top;
position = "{804, 1465}";
}
);
layerId = "853DA88A-72D0-442C-B77F-5E2897338EA9";
shapes = (
{
closed = 1;
nodes = (
(1289,0,l),
(1447,1465,l),
(984,1465,l),
(825,0,l)
);
},
{
closed = 1;
nodes = (
(720,476,o),
(948,527,o),
(1099,679,c),
(950,873,l),
(910,848,o),
(833,830,o),
(765,830,cs),
(618,830,o),
(563,910,o),
(579,1071,c),
(623,1465,l),
(158,1465,l),
(98,895,l),
(67,611,o),
(282,476,o),
(553,476,cs)
);
},
{
closed = 1;
nodes = (
(1347,0,l),
(1578,388,l),
(1259,388,l),
(1222,0,l)
);
},
{
closed = 1;
nodes = (
(1450,-434,l),
(1579,388,l),
(1152,388,l),
(1112,-434,l)
);
}
);
width = 1679;
},
{
anchors = (
{
name = top;
position = "{784, 1465}";
}
);
layerId = "E1DC4E80-D015-47E5-8658-7F3F0651B68D";
shapes = (
{
closed = 1;
nodes = (
(1230,0,l),
(1388,1465,l),
(1023,1465,l),
(864,0,l)
);
},
{
closed = 1;
nodes = (
(738,503,o),
(961,559,o),
(1103,697,c),
(982,850,l),
(929,812,o),
(822,784,o),
(734,784,cs),
(555,784,o),
(478,878,o),
(499,1074,c),
(542,1465,l),
(175,1465,l),
(119,938,ls),
(88,649,o),
(288,503,o),
(570,503,cs)
);
},
{
closed = 1;
nodes = (
(1334,0,l),
(1516,306,l),
(1206,306,l),
(1177,0,l)
);
},
{
closed = 1;
nodes = (
(1403,-434,l),
(1516,306,l),
(1178,306,l),
(1137,-434,l)
);
}
);
width = 1632;
},
{
anchors = (
{
name = top;
position = "{755, 1465}";
}
);
layerId = "5190A6EC-00FF-4542-AE94-5CA8DCFF9011";
shapes = (
{
closed = 1;
nodes = (
(1141,0,l),
(1299,1465,l),
(1081,1465,l),
(923,0,l)
);
},
{
closed = 1;
nodes = (
(766,544,o),
(981,607,o),
(1109,725,c),
(1031,816,l),
(958,758,o),
(806,715,o),
(688,715,cs),
(461,715,o),
(351,831,o),
(378,1079,cs),
(420,1465,l),
(200,1465,l),
(151,1003,ls),
(120,705,o),
(297,544,o),
(595,544,cs)
);
},
{
closed = 1;
nodes = (
(1314,0,l),
(1423,182,l),
(1127,182,l),
(1110,0,l)
);
},
{
closed = 1;
nodes = (
(1333,-434,l),
(1421,182,l),
(1216,182,l),
(1175,-434,l)
);
}
);
width = 1562;
},
{
anchors = (
{
name = top;
position = "{735, 1465}";
}
);
layerId = "1CEA669B-A0BD-449D-9ADA-118AD20DED36";
shapes = (
{
closed = 1;
nodes = (
(1081,0,l),
(1239,1465,l),
(1119,1465,l),
(962,0,l)
);
},
{
closed = 1;
nodes = (
(784,572,o),
(994,639,o),
(1113,743,c),
(1063,794,l),
(977,722,o),
(795,669,o),
(657,669,cs),
(399,669,o),
(267,799,o),
(298,1083,cs),
(338,1465,l),
(217,1465,l),
(173,1046,ls),
(142,743,o),
(303,572,o),
(612,572,cs)
);
},
{
closed = 1;
nodes = (
(1300,0,l),
(1361,100,l),
(1075,100,l),
(1066,0,l)
);
},
{
closed = 1;
nodes = (
(1287,-434,l),
(1358,100,l),
(1242,100,l),
(1201,-434,l)
);
}
);
width = 1516;
}
);
rightKerningGroup = "Shcha-cy";
unicode = 1206;
},
{
glyphname = "Chedescenderabkhasian-cy";
layers = (
{
layerId = "853DA88A-72D0-442C-B77F-5E2897338EA9";
shapes = (
{
closed = 1;
nodes = (
(1288,-41,o),
(1552,30,o),
(1752,235,c),
(1600,449,l),
(1491,384,o),
(1402,331,o),
(1235,331,cs),
(936,331,o),
(825,534,o),
(873,849,c),
(909,1094,o),
(1016,1176,o),
(1171,1176,cs),
(1354,1176,o),
(1429,1026,o),
(1401,802,c),
(1394,757,o),
(1382,707,o),
(1370,685,c),
(1780,603,l),
(1788,633,o),
(1805,715,o),
(1813,802,cs),
(1850,1231,o),
(1628,1505,o),
(1230,1505,cs),
(823,1505,o),
(478,1195,o),
(434,749,c),
(390,333,o),
(615,-41,o),
(1083,-41,cs)
);
},
{
closed = 1;
nodes = (
(580,925,ls),
(440,925,o),
(395,1005,o),
(410,1149,c),
(418,1247,o),
(460,1356,o),
(518,1465,c),
(179,1464,l),
(85,1330,o),
(31,1189,o),
(17,1061,cs),
(-13,790,o),
(118,603,o),
(461,603,cs),
(1780,603,l),
(1548,925,l)
);
},
{
closed = 1;
nodes = (
(1215,-434,l),
(1310,86,l),
(890,86,l),
(876,-434,l)
);
}
);
width = 1924;
},
{
layerId = "E1DC4E80-D015-47E5-8658-7F3F0651B68D";
shapes = (
{
closed = 1;
nodes = (
(1273,-34,o),
(1517,42,o),
(1701,233,c),
(1573,405,l),
(1459,321,o),
(1354,262,o),
(1182,262,cs),
(859,262,o),
(713,489,o),
(761,833,c),
(797,1107,o),
(938,1236,o),
(1139,1236,cs),
(1356,1236,o),
(1464,1067,o),
(1436,832,c),
(1430,793,o),
(1421,749,o),
(1410,728,c),
(1736,661,l),
(1743,692,o),
(1756,759,o),
(1763,832,cs),
(1800,1225,o),
(1575,1498,o),
(1187,1498,cs),
(788,1498,o),
(457,1190,o),
(413,756,c),
(368,329,o),
(608,-34,o),
(1067,-34,cs)
);
},
{
closed = 1;
nodes = (
(553,919,ls),
(386,919,o),
(326,1000,o),
(344,1165,c),
(352,1260,o),
(391,1362,o),
(446,1464,c),
(177,1465,l),
(93,1343,o),
(45,1214,o),
(32,1097,c),
(3,831,o),
(132,661,o),
(458,661,cs),
(1736,661,l),
(1556,919,l)
);
},
{
closed = 1;
nodes = (
(1159,-434,l),
(1245,69,l),
(911,69,l),
(891,-434,l)
);
}
);
width = 1886;
},
{
layerId = "5190A6EC-00FF-4542-AE94-5CA8DCFF9011";
shapes = (
{
closed = 1;
nodes = (
(1251,-24,o),
(1464,60,o),
(1625,231,c),
(1533,340,l),
(1412,226,o),
(1282,158,o),
(1102,158,cs),
(743,158,o),
(545,422,o),
(592,808,c),
(629,1126,o),
(822,1327,o),
(1090,1327,cs),
(1359,1327,o),
(1517,1128,o),
(1488,876,cs),
(1484,847,o),
(1479,812,o),
(1471,793,c),
(1669,749,l),
(1676,781,o),
(1683,826,o),
(1689,876,cs),
(1724,1217,o),
(1495,1488,o),
(1122,1488,cs),
(735,1488,o),
(426,1183,o),
(382,766,cs),
(336,322,o),
(598,-24,o),
(1042,-24,cs)
);
},
{
closed = 1;
nodes = (
(512,909,ls),
(306,909,o),
(222,992,o),
(244,1190,c),
(253,1279,o),
(287,1370,o),
(339,1463,c),
(173,1467,l),
(106,1362,o),
(65,1252,o),
(55,1151,c),
(26,892,o),
(152,749,o),
(453,749,cs),
(1669,749,l),
(1567,909,l)
);
},
{
closed = 1;
nodes = (
(1074,-434,l),
(1147,44,l),
(943,44,l),
(913,-434,l)
);
}
);
width = 1830;
},
{
layerId = "1CEA669B-A0BD-449D-9ADA-118AD20DED36";
shapes = (
{
closed = 1;
nodes = (
(1237,-17,o),
(1428,72,o),
(1574,229,c),
(1507,296,l),
(1380,163,o),
(1234,89,o),
(1048,89,cs),
(665,89,o),
(433,378,o),
(480,792,cs),
(517,1138,o),
(744,1387,o),
(1058,1387,cs),
(1361,1387,o),
(1553,1168,o),
(1522,906,cs),
(1520,883,o),
(1517,854,o),
(1511,837,c),
(1625,807,l),
(1632,841,o),
(1635,870,o),
(1639,906,cs),
(1674,1211,o),
(1442,1482,o),
(1079,1482,cs),
(699,1482,o),
(405,1179,o),
(362,773,cs),
(314,318,o),
(591,-17,o),
(1026,-17,cs)
);
},
{
closed = 1;
nodes = (
(484,903,ls),
(252,903,o),
(152,986,o),
(178,1206,cs),
(187,1291,o),
(218,1376,o),
(267,1463,c),
(171,1469,l),
(114,1374,o),
(79,1278,o),
(71,1187,cs),
(42,932,o),
(166,807,o),
(449,807,cs),
(1625,807,l),
(1575,903,l)
);
},
{
closed = 1;
nodes = (
(1018,-434,l),
(1081,27,l),
(965,27,l),
(927,-434,l)
);
}
);
width = 1792;
}
);
leftKerningGroup = "Cheabkhasian-cy";
unicode = 1214;
},
{
glyphname = "Chekhakassian-cy";
layers = (
{
anchors = (
{
name = top;
position = "{804, 1465}";
}
);
layerId = "853DA88A-72D0-442C-B77F-5E2897338EA9";
shapes = (
{
closed = 1;
nodes = (
(1289,0,l),
(1447,1465,l),
(984,1465,l),
(825,0,l)
);
},
{
closed = 1;
nodes = (
(720,476,o),
(948,527,o),
(1099,679,c),
(950,873,l),
(910,848,o),
(833,830,o),
(765,830,cs),
(618,830,o),
(563,910,o),
(579,1071,c),
(623,1465,l),
(158,1465,l),
(98,895,l),
(67,611,o),
(282,476,o),
(553,476,cs)
);
},
{
closed = 1;
nodes = (
(957,-433,l),
(1124,272,l),
(668,272,l),
(623,-433,l)
);
},
{
closed = 1;
nodes = (
(930,-64,l),
(985,272,l),
(668,272,l),
(811,-64,l)
);
}
);
width = 1562;
},
{
anchors = (
{
name = top;
position = "{784, 1465}";
}
);
layerId = "E1DC4E80-D015-47E5-8658-7F3F0651B68D";
shapes = (
{
closed = 1;
nodes = (
(1230,0,l),
(1388,1465,l),
(1023,1465,l),
(864,0,l)
);
},
{
closed = 1;
nodes = (
(738,503,o),
(961,559,o),
(1103,697,c),
(982,850,l),
(929,812,o),
(822,784,o),
(734,784,cs),
(555,784,o),
(478,878,o),
(499,1074,c),
(542,1465,l),
(175,1465,l),
(119,938,ls),
(88,649,o),
(288,503,o),
(570,503,cs)
);
},
{
closed = 1;
nodes = (
(903,-433,l),
(1042,223,l),
(684,223,l),
(639,-433,l)
);
},
{
closed = 1;
nodes = (
(946,-46,l),
(988,223,l),
(684,223,l),
(797,-46,l)
);
}
);
width = 1525;
},
{
anchors = (
{
name = top;
position = "{755, 1465}";
}
);
layerId = "5190A6EC-00FF-4542-AE94-5CA8DCFF9011";
shapes = (
{
closed = 1;
nodes = (
(1141,0,l),
(1299,1465,l),
(1081,1465,l),
(923,0,l)
);
},
{
closed = 1;
nodes = (
(766,544,o),
(981,607,o),
(1109,725,c),
(1031,816,l),
(958,758,o),
(806,715,o),
(688,715,cs),
(461,715,o),
(351,831,o),
(378,1079,cs),
(420,1465,l),
(200,1465,l),
(151,1003,ls),
(120,705,o),
(297,544,o),
(595,544,cs)
);
},
{
closed = 1;
nodes = (
(821,-434,l),
(919,149,l),
(709,149,l),
(664,-434,l)
);
},
{
closed = 1;
nodes = (
(970,-18,l),
(992,149,l),
(709,149,l),
(777,-18,l)
);
}
);
width = 1470;
},
{
anchors = (
{
name = top;
position = "{735, 1465}";
}
);
layerId = "1CEA669B-A0BD-449D-9ADA-118AD20DED36";
shapes = (
{
closed = 1;
nodes = (
(1081,0,l),
(1239,1465,l),
(1119,1465,l),
(962,0,l)
);
},
{
closed = 1;
nodes = (
(784,572,o),
(994,639,o),
(1113,743,c),
(1063,794,l),
(977,722,o),
(795,669,o),
(657,669,cs),
(399,669,o),
(267,799,o),
(298,1083,cs),
(338,1465,l),
(217,1465,l),
(173,1046,ls),
(142,743,o),
(303,572,o),
(612,572,cs)
);
},
{
closed = 1;
nodes = (
(767,-434,l),
(837,100,l),
(725,100,l),
(680,-434,l)
);
},
{
closed = 1;
nodes = (
(986,0,l),
(994,100,l),
(725,100,l),
(763,0,l)
);
}
);
width = 1433;
}
);
unicode = 1227;
},
{
glyphname = "Cheverticalstroke-cy";
layers = (
{
layerId = "853DA88A-72D0-442C-B77F-5E2897338EA9";
shapes = (
{
closed = 1;
nodes = (
(718,476,o),
(948,527,o),
(1100,679,c),
(1017,873,l),
(964,828,o),
(841,797,o),
(742,797,cs),
(582,797,o),
(525,866,o),
(540,1004,cs),
(590,1465,l),
(159,1465,l),
(98,895,ls),
(67,611,o),
(282,476,o),
(553,476,cs)
);
},
{
closed = 1;
nodes = (
(788,161,l),
(898,1198,l),
(669,1198,l),
(561,161,l)
);
},
{
closed = 1;
nodes = (
(1289,0,l),
(1448,1465,l),
(1017,1465,l),
(860,0,l)
);
}
);
width = 1562;
},
{
layerId = "E1DC4E80-D015-47E5-8658-7F3F0651B68D";
shapes = (
{
closed = 1;
nodes = (
(737,503,o),
(961,559,o),
(1104,697,c),
(1030,850,l),
(968,798,o),
(828,760,o),
(718,760,cs),
(530,760,o),
(451,847,o),
(471,1027,cs),
(518,1465,l),
(176,1465,l),
(120,938,ls),
(88,649,o),
(288,503,o),
(570,503,cs)
);
},
{
closed = 1;
nodes = (
(748,182,l),
(852,1157,l),
(664,1157,l),
(562,182,l)
);
},
{
closed = 1;
nodes = (
(1230,0,l),
(1389,1465,l),
(1046,1465,l),
(889,0,l)
);
}
);
width = 1525;
},
{
layerId = "5190A6EC-00FF-4542-AE94-5CA8DCFF9011";
shapes = (
{
closed = 1;
nodes = (
(766,544,o),
(981,607,o),
(1109,725,c),
(1050,816,l),
(973,752,o),
(809,705,o),
(683,705,cs),
(453,705,o),
(341,818,o),
(367,1061,c),
(410,1465,l),
(201,1465,l),
(152,1003,ls),
(120,705,o),
(297,544,o),
(595,544,cs)
);
},
{
closed = 1;
nodes = (
(688,214,l),
(783,1095,l),
(657,1095,l),
(563,214,l)
);
},
{
closed = 1;
nodes = (
(1141,0,l),
(1300,1465,l),
(1090,1465,l),
(933,0,l)
);
}
);
width = 1470;
},
{
layerId = "1CEA669B-A0BD-449D-9ADA-118AD20DED36";
shapes = (
{
closed = 1;
nodes = (
(786,572,o),
(994,639,o),
(1113,743,c),
(1064,794,l),
(977,722,o),
(797,669,o),
(659,669,cs),
(401,669,o),
(267,799,o),
(298,1083,cs),
(338,1465,l),
(218,1465,l),
(174,1046,l),
(142,743,o),
(303,572,o),
(612,572,cs)
);
},
{
closed = 1;
nodes = (
(648,236,l),
(737,1053,l),
(652,1053,l),
(563,236,l)
);
},
{
closed = 1;
nodes = (
(1081,0,l),
(1240,1465,l),
(1119,1465,l),
(962,0,l)
);
}
);
width = 1433;
}
);
rightKerningGroup = "Ia-cy";
unicode = 1208;
},
{
glyphname = D;
layers = (
{
layerId = "853DA88A-72D0-442C-B77F-5E2897338EA9";
shapes = (
{
closed = 1;
nodes = (
(97,0,l),
(289,0,o),
(482,-1,o),
(674,-1,c),
(1379,-2,o),
(1621,476,o),
(1621,852,cs),
(1621,1236,o),
(1365,1465,o),
(892,1465,cs),
(264,1465,l)
);
},
{
closed = 1;
nodes = (
(697,1203,l),
(836,1203,ls),
(1040,1203,o),
(1142,1096,o),
(1142,827,cs),
(1142,529,o),
(1017,262,o),
(745,262,cs),
(589,262,l)
);
}
);
width = 1672;
},
{
layerId = "E1DC4E80-D015-47E5-8658-7F3F0651B68D";
shapes = (
{
closed = 1;
nodes = (
(120,0,l),
(297,0,o),
(474,-1,o),
(650,-1,c),
(1319,-1,o),
(1585,466,o),
(1585,847,cs),
(1585,1225,o),
(1346,1465,o),
(864,1465,cs),
(287,1465,l)
);
},
{
closed = 1;
nodes = (
(623,1244,l),
(811,1244,ls),
(1075,1244,o),
(1211,1109,o),
(1211,820,cs),
(1211,509,o),
(1047,221,o),
(712,221,cs),
(506,221,l)
);
}
);
width = 1661;
},
{
layerId = "5190A6EC-00FF-4542-AE94-5CA8DCFF9011";
shapes = (
{
closed = 1;
nodes = (
(155,0,l),
(309,0,o),
(461,0,o),
(615,0,cs),
(1230,0,o),
(1531,452,o),
(1531,839,cs),
(1531,1208,o),
(1317,1465,o),
(822,1465,cs),
(322,1465,l)
);
},
{
closed = 1;
nodes = (
(513,1306,l),
(773,1306,ls),
(1127,1306,o),
(1314,1129,o),
(1314,810,cs),
(1314,478,o),
(1092,159,o),
(663,159,cs),
(381,159,l)
);
}
);
width = 1644;
},
{
layerId = "1CEA669B-A0BD-449D-9ADA-118AD20DED36";
shapes = (
{
closed = 1;
nodes = (
(179,0,l),
(317,0,o),
(453,0,o),
(591,0,cs),
(1170,0,o),
(1495,442,o),
(1495,834,cs),
(1495,1197,o),
(1298,1465,o),
(794,1465,cs),
(346,1465,l)
);
},
{
closed = 1;
nodes = (
(439,1348,l),
(747,1348,ls),
(1161,1348,o),
(1382,1143,o),
(1382,804,cs),
(1382,458,o),
(1122,117,o),
(631,117,cs),
(297,117,l)
);
}
);
width = 1632;
}
);
rightKerningGroup = _D_Left;
unicode = 68;
},
{
glyphname = Dcroat;
layers = (
{
layerId = "853DA88A-72D0-442C-B77F-5E2897338EA9";
shapes = (
{
closed = 1;
nodes = (
(98,878,l),
(66,590,l),
(204,590,l),
(137,0,l),
(329,0,o),
(521,-1,o),
(713,-1,cs),
(1417,-1,o),
(1660,474,o),
(1660,852,cs),
(1660,1235,o),
(1404,1465,o),
(932,1465,cs),
(304,1465,l),
(236,878,l)
);
},
{
closed = 1;
nodes = (
(737,1203,l),
(876,1203,ls),
(1081,1203,o),
(1182,1097,o),
(1182,829,cs),
(1182,531,o),
(1055,262,o),
(782,262,cs),
(629,262,l),
(667,590,l),
(924,590,l),
(957,878,l),
(699,878,l)
);
}
);
width = 1712;
},
{
layerId = "E1DC4E80-D015-47E5-8658-7F3F0651B68D";
shapes = (
{
closed = 1;
nodes = (
(61,848,l),
(36,619,l),
(196,619,l),
(125,0,l),
(302,0,o),
(480,-1,o),
(657,-1,cs),
(1326,-1,o),
(1589,468,o),
(1589,849,cs),
(1589,1216,o),
(1342,1465,o),
(869,1465,cs),
(292,1465,l),
(221,848,l)
);
},
{
closed = 1;
nodes = (
(626,1244,l),
(815,1244,ls),
(1078,1244,o),
(1215,1108,o),
(1215,820,cs),
(1215,506,o),
(1053,221,o),
(721,221,cs),
(509,221,l),
(555,619,l),
(861,619,l),
(887,848,l),
(580,848,l)
);
}
);
width = 1651;
},
{
layerId = "5190A6EC-00FF-4542-AE94-5CA8DCFF9011";
shapes = (
{
closed = 1;
nodes = (
(5,803,l),
(-9,663,l),
(183,663,l),
(107,0,l),
(262,0,o),
(418,0,o),
(574,0,cs),
(1189,0,o),
(1483,459,o),
(1483,844,cs),
(1483,1188,o),
(1248,1465,o),
(774,1465,cs),
(274,1465,l),
(198,803,l)
);
},
{
closed = 1;
nodes = (
(460,1306,l),
(723,1306,ls),
(1073,1306,o),
(1265,1124,o),
(1265,806,cs),
(1265,468,o),
(1051,159,o),
(629,159,cs),
(329,159,l),
(386,663,l),
(766,663,l),
(781,803,l),
(402,803,l)
);
}
);
width = 1560;
},
{
layerId = "1CEA669B-A0BD-449D-9ADA-118AD20DED36";
shapes = (
{
closed = 1;
nodes = (
(-32,773,l),
(-39,692,l),
(175,692,l),
(95,0,l),
(236,0,o),
(377,0,o),
(518,0,cs),
(1098,0,o),
(1412,453,o),
(1412,840,cs),
(1412,1169,o),
(1186,1465,o),
(710,1465,cs),
(262,1465,l),
(182,773,l)
);
},
{
closed = 1;
nodes = (
(349,1348,l),
(662,1348,ls),
(1069,1348,o),
(1298,1134,o),
(1298,796,cs),
(1298,443,o),
(1049,117,o),
(567,117,cs),
(209,117,l),
(274,692,l),
(703,692,l),
(711,773,l),
(284,773,l)
);
}
);
width = 1500;
}
);
rightKerningGroup = _D_Left;
unicode = 272;
},
{
color = 10;
glyphname = "De-cy";
layers = (
{
layerId = "853DA88A-72D0-442C-B77F-5E2897338EA9";
shapes = (
{
closed = 1;
nodes = (
(455,19,l),
(755,625,o),
(817,1111,o),
(872,1465,c),
(505,1465,l),
(450,1101,o),
(387,636,o),
(65,27,c)
);
},
{
closed = 1;
nodes = (
(299,-369,l),
(443,362,l),
(12,362,l),
(-11,-369,l)
);
},
{
closed = 1;
nodes = (
(1413,0,l),
(1630,362,l),
(156,362,l),
(108,0,l)
);
},
{
closed = 1;
nodes = (
(1530,-369,l),
(1671,362,l),
(1248,362,l),
(1228,-369,l)
);
},
{
closed = 1;
nodes = (
(1408,0,l),
(1567,1465,l),
(1120,1465,l),
(960,0,l)
);
},
{
closed = 1;
nodes = (
(1296,1122,l),
(1332,1465,l),
(737,1465,l),
(699,1122,l)
);
}
);
width = 1788;
},
{
layerId = "E1DC4E80-D015-47E5-8658-7F3F0651B68D";
shapes = (
{
closed = 1;
nodes = (
(403,21,l),
(676,547,o),
(750,1035,o),
(819,1465,c),
(527,1465,l),
(458,1030,o),
(383,557,o),
(91,31,c)
);
},
{
closed = 1;
nodes = (
(235,-382,l),
(358,287,l),
(18,287,l),
(-12,-382,l)
);
},
{
closed = 1;
nodes = (
(1398,0,l),
(1563,287,l),
(124,287,l),
(89,0,l)
);
},
{
closed = 1;
nodes = (
(1474,-382,l),
(1595,287,l),
(1261,287,l),
(1233,-382,l)
);
},
{
closed = 1;
nodes = (
(1352,0,l),
(1513,1465,l),
(1160,1465,l),
(999,0,l)
);
},
{
closed = 1;
nodes = (
(1300,1191,l),
(1329,1465,l),
(708,1465,l),
(677,1191,l)
);
}
);
width = 1743;
},
{
layerId = "5190A6EC-00FF-4542-AE94-5CA8DCFF9011";
shapes = (
{
closed = 1;
nodes = (
(324,25,l),
(558,430,o),
(650,921,o),
(739,1465,c),
(559,1465,l),
(470,924,o),
(378,439,o),
(129,36,c)
);
},
{
closed = 1;
nodes = (
(140,-402,l),
(231,175,l),
(26,175,l),
(-13,-402,l)
);
},
{
closed = 1;
nodes = (
(1376,0,l),
(1463,175,l),
(77,175,l),
(60,0,l)
);
},
{
closed = 1;
nodes = (
(1389,-402,l),
(1482,175,l),
(1281,175,l),
(1241,-402,l)
);
},
{
closed = 1;
nodes = (
(1269,0,l),
(1432,1465,l),
(1219,1465,l),
(1057,0,l)
);
},
{
closed = 1;
nodes = (
(1307,1295,l),
(1325,1465,l),
(664,1465,l),
(645,1295,l)
);
}
);
width = 1675;
},
{
layerId = "1CEA669B-A0BD-449D-9ADA-118AD20DED36";
shapes = (
{
closed = 1;
nodes = (
(272,27,l),
(480,352,o),
(584,845,o),
(686,1465,c),
(581,1465,l),
(478,854,o),
(374,361,o),
(155,40,c)
);
},
{
closed = 1;
nodes = (
(76,-416,l),
(147,100,l),
(32,100,l),
(-13,-416,l)
);
},
{
closed = 1;
nodes = (
(1362,0,l),
(1397,100,l),
(45,100,l),
(40,0,l)
);
},
{
closed = 1;
nodes = (
(1333,-416,l),
(1406,100,l),
(1295,100,l),
(1246,-416,l)
);
},
{
closed = 1;
nodes = (
(1213,0,l),
(1378,1465,l),
(1259,1465,l),
(1095,0,l)
);
},
{
closed = 1;
nodes = (
(1311,1364,l),
(1323,1465,l),
(635,1465,l),
(623,1364,l)
);
}
);
width = 1629;
}
);
unicode = 1044;
},
{
color = 10;
glyphname = "De-cy.loclBGR";
layers = (
{
layerId = "853DA88A-72D0-442C-B77F-5E2897338EA9";
shapes = (
{
closed = 1;
nodes = (
(372,0,l),
(930,1314,l),
(778,1314,l),
(1082,0,l),
(1545,0,l),
(1184,1465,l),
(642,1465,l),
(-6,0,l)
);
},
{
closed = 1;
nodes = (
(251,-434,l),
(405,363,l),
(-27,363,l),
(-60,-434,l)
);
},
{
closed = 1;
nodes = (
(1399,0,l),
(1635,363,l),
(-27,363,l),
(46,0,l)
);
},
{
closed = 1;
nodes = (
(1495,-434,l),
(1635,363,l),
(1208,363,l),
(1190,-434,l)
);
}
);
width = 1733;
},
{
layerId = "E1DC4E80-D015-47E5-8658-7F3F0651B68D";
shapes = (
{
closed = 1;
nodes = (
(336,0,l),
(921,1337,l),
(799,1337,l),
(1118,0,l),
(1483,0,l),
(1117,1465,l),
(696,1465,l),
(33,0,l)
);
},
{
closed = 1;
nodes = (
(194,-434,l),
(327,287,l),
(-15,287,l),
(-53,-434,l)
);
},
{
closed = 1;
nodes = (
(1400,0,l),
(1585,287,l),
(-15,287,l),
(44,0,l)
);
},
{
closed = 1;
nodes = (
(1468,-434,l),
(1585,287,l),
(1247,287,l),
(1224,-434,l)
);
}
);
width = 1710;
},
{
layerId = "5190A6EC-00FF-4542-AE94-5CA8DCFF9011";
shapes = (
{
closed = 1;
nodes = (
(281,0,l),
(907,1371,l),
(831,1371,l),
(1172,0,l),
(1391,0,l),
(1016,1465,l),
(778,1465,l),
(91,0,l)
);
},
{
closed = 1;
nodes = (
(108,-434,l),
(211,174,l),
(4,174,l),
(-43,-434,l)
);
},
{
closed = 1;
nodes = (
(1402,0,l),
(1511,174,l),
(4,174,l),
(40,0,l)
);
},
{
closed = 1;
nodes = (
(1427,-434,l),
(1511,174,l),
(1306,174,l),
(1275,-434,l)
);
}
);
width = 1676;
},
{
layerId = "1CEA669B-A0BD-449D-9ADA-118AD20DED36";
shapes = (
{
closed = 1;
nodes = (
(245,0,l),
(898,1393,l),
(853,1393,l),
(1208,0,l),
(1329,0,l),
(948,1465,l),
(832,1465,l),
(129,0,l)
);
},
{
closed = 1;
nodes = (
(50,-434,l),
(133,98,l),
(16,98,l),
(-37,-434,l)
);
},
{
closed = 1;
nodes = (
(1404,0,l),
(1461,98,l),
(16,98,l),
(38,0,l)
);
},
{
closed = 1;
nodes = (
(1399,-434,l),
(1461,98,l),
(1345,98,l),
(1309,-434,l)
);
}
);
width = 1654;
}
);
},
{
color = 10;
glyphname = Delta;
layers = (
{
layerId = "853DA88A-72D0-442C-B77F-5E2897338EA9";
shapes = (
{
closed = 1;
nodes = (
(1141,0,l),
(1055,326,l),
(274,326,l),
(138,0,l)
);
},
{
closed = 1;
nodes = (
(1402,134,l),
(1088,1464,l),
(600,1464,l),
(-15,177,l),
(51,0,l),
(314,0,l),
(814,1211,l),
(739,1211,l),
(921,0,l),
(1382,0,l)
);
}
);
width = 1535;
},
{
layerId = "E1DC4E80-D015-47E5-8658-7F3F0651B68D";
shapes = (
{
closed = 1;
nodes = (
(1142,0,l),
(1084,261,l),
(220,261,l),
(120,0,l)
);
},
{
closed = 1;
nodes = (
(1344,109,l),
(1018,1464,l),
(638,1464,l),
(0,143,l),
(52,0,l),
(264,0,l),
(809,1263,l),
(743,1263,l),
(967,0,l),
(1328,0,l)
);
}
);
width = 1497;
},
{
layerId = "5190A6EC-00FF-4542-AE94-5CA8DCFF9011";
shapes = (
{
closed = 1;
nodes = (
(1144,0,l),
(1128,164,l),
(139,164,l),
(94,0,l)
);
},
{
closed = 1;
nodes = (
(1258,72,l),
(913,1464,l),
(694,1464,l),
(23,92,l),
(53,0,l),
(190,0,l),
(802,1341,l),
(750,1341,l),
(1036,0,l),
(1247,0,l)
);
}
);
width = 1440;
},
{
layerId = "1CEA669B-A0BD-449D-9ADA-118AD20DED36";
shapes = (
{
closed = 1;
nodes = (
(1146,0,l),
(1157,100,l),
(85,100,l),
(76,0,l)
);
},
{
closed = 1;
nodes = (
(1200,47,l),
(843,1464,l),
(732,1464,l),
(38,58,l),
(53,0,l),
(140,0,l),
(797,1393,l),
(754,1393,l),
(1082,0,l),
(1193,0,l)
);
}
);
width = 1402;
}
);
unicode = 916;
},
{
color = 10;
glyphname = "Dje-cy";
leftMetricsKey = T;
layers = (
{
layerId = "853DA88A-72D0-442C-B77F-5E2897338EA9";
shapes = (
{
closed = 1;
nodes = (
(1234,-438,l),
(1577,-160,o),
(1690,123,o),
(1718,383,cs),
(1760,766,o),
(1564,941,o),
(1282,941,cs),
(1083,941,o),
(849,839,o),
(682,622,c),
(818,486,l),
(869,553,o),
(959,603,o),
(1051,603,cs),
(1199,603,o),
(1245,510,o),
(1226,309,c),
(1202,110,o),
(1142,-105,o),
(993,-286,c)
);
},
{
closed = 1;
nodes = (
(811,0,l),
(971,1465,l),
(502,1465,l),
(344,0,l)
);
},
{
closed = 1;
nodes = (
(1440,1126,l),
(1478,1465,l),
(169,1465,l),
(132,1126,l)
);
}
);
width = 1841;
},
{
layerId = "E1DC4E80-D015-47E5-8658-7F3F0651B68D";
shapes = (
{
closed = 1;
nodes = (
(1158,-434,l),
(1476,-170,o),
(1595,126,o),
(1623,384,c),
(1667,766,o),
(1485,937,o),
(1202,937,cs),
(1000,937,o),
(769,839,o),
(610,624,c),
(724,509,l),
(790,609,o),
(919,667,o),
(1029,667,cs),
(1197,667,o),
(1260,560,o),
(1236,328,c),
(1210,117,o),
(1134,-120,o),
(969,-311,c)
);
},
{
closed = 1;
nodes = (
(712,0,l),
(873,1465,l),
(503,1465,l),
(344,0,l)
);
},
{
closed = 1;
nodes = (
(1400,1195,l),
(1430,1465,l),
(165,1465,l),
(135,1195,l)
);
}
);
width = 1765;
},
{
layerId = "5190A6EC-00FF-4542-AE94-5CA8DCFF9011";
shapes = (
{
closed = 1;
nodes = (
(1044,-427,l),
(1325,-186,o),
(1453,131,o),
(1481,385,c),
(1528,766,o),
(1367,932,o),
(1081,932,cs),
(876,932,o),
(650,839,o),
(502,628,c),
(584,543,l),
(672,694,o),
(859,764,o),
(997,764,cs),
(1195,764,o),
(1283,634,o),
(1250,356,c),
(1223,127,o),
(1121,-143,o),
(934,-348,c)
);
},
{
closed = 1;
nodes = (
(564,0,l),
(726,1465,l),
(505,1465,l),
(343,0,l)
);
},
{
closed = 1;
nodes = (
(1340,1298,l),
(1359,1465,l),
(158,1465,l),
(140,1298,l)
);
}
);
width = 1650;
},
{
layerId = "1CEA669B-A0BD-449D-9ADA-118AD20DED36";
shapes = (
{
closed = 1;
nodes = (
(968,-423,l),
(1224,-196,o),
(1358,134,o),
(1387,385,c),
(1436,766,o),
(1288,928,o),
(1001,928,cs),
(793,928,o),
(570,839,o),
(430,630,c),
(490,565,l),
(594,750,o),
(819,828,o),
(975,828,cs),
(1193,828,o),
(1298,684,o),
(1260,374,cs),
(1231,134,o),
(1113,-158,o),
(910,-372,c)
);
},
{
closed = 1;
nodes = (
(466,0,l),
(628,1465,l),
(506,1465,l),
(343,0,l)
);
},
{
closed = 1;
nodes = (
(1300,1366,l),
(1311,1465,l),
(154,1465,l),
(143,1366,l)
);
}
);
width = 1574;
}
);
unicode = 1026;
},
{
glyphname = "Dzeabkhasian-cy";
layers = (
{
anchors = (
{
name = bottom;
position = "{528, 0}";
},
{
name = top;
position = "{649, 1465}";
}
);
layerId = "853DA88A-72D0-442C-B77F-5E2897338EA9";
shapes = (
{
closed = 1;
nodes = (
(857.406,-41.295,o),
(1107.347,177.132,o),
(1134.515,424.9,cs),
(1166.029,710.702,o),
(964.99,865.013,o),
(691.141,894.354,c),
(607.465,712.875,l),
(1154.075,1154.075,l),
(1192.11,1464.872,l),
(142.358,1464.872,l),
(102.15,1114.954,l),
(1036.712,1132.341,l),
(969.336,1327.947,l),
(265.155,817.198,l),
(341.224,597.685,l),
(627.026,644.413,o),
(730.262,519.443,o),
(718.309,393.385,c),
(712.875,327.097,o),
(679.187,280.369,o),
(579.211,280.369,cs),
(458.587,280.369,o),
(381.432,351.004,o),
(308.623,446.634,c),
(-44.555,284.715,l),
(28.254,101.063,o),
(222.773,-41.295,o),
(506.402,-41.295,cs)
);
}
);
width = 1264;
},
{
anchors = (
{
name = bottom;
position = "{530, 0}";
},
{
name = top;
position = "{655, 1465}";
}
);
layerId = "E1DC4E80-D015-47E5-8658-7F3F0651B68D";
shapes = (
{
closed = 1;
nodes = (
(841.106,-34.774,o),
(1086.7,157.571,o),
(1116.041,417.293,cs),
(1148.642,698.748,o),
(954.123,870.447,o),
(625.939,885.66,c),
(572.691,735.696,l),
(1152.989,1220.364,l),
(1181.243,1464.872,l),
(155.398,1464.872,l),
(122.797,1185.59,l),
(1056.272,1199.717,l),
(996.504,1355.115,l),
(299.929,822.632,l),
(358.611,646.586,l),
(690.054,685.708,o),
(803.071,544.437,o),
(785.684,387.952,cs),
(772.644,278.195,o),
(702.008,222.773,o),
(575.951,222.773,cs),
(432.507,222.773,o),
(328.183,298.842,o),
(260.808,420.553,c),
(-23.907,293.409,l),
(39.121,102.15,o),
(239.074,-34.774,o),
(516.182,-34.774,cs)
);
}
);
width = 1264;
},
{
anchors = (
{
name = bottom;
position = "{533, 0}";
},
{
name = top;
position = "{663, 1465}";
}
);
layerId = "5190A6EC-00FF-4542-AE94-5CA8DCFF9011";
shapes = (
{
closed = 1;
nodes = (
(817.198,-23.907,o),
(1056.272,128.231,o),
(1088.873,405.339,c),
(1123.648,681.361,o),
(936.735,879.14,o),
(528.136,872.62,c),
(519.443,769.384,l),
(1150.815,1319.254,l),
(1163.856,1464.872,l),
(176.045,1464.872,l),
(154.311,1292.086,l),
(1084.527,1301.867,l),
(1037.798,1396.409,l),
(352.091,830.239,l),
(385.778,720.482,l),
(784.597,748.736,o),
(911.741,581.384,o),
(885.66,380.345,cs),
(862.84,205.386,o),
(735.696,135.837,o),
(571.604,135.837,cs),
(393.385,135.837,o),
(247.768,221.687,o),
(190.172,380.345,c),
(7.607,305.363,l),
(55.422,104.323,o),
(264.068,-23.907,o),
(531.396,-23.907,cs)
);
}
);
width = 1264;
},
{
anchors = (
{
name = bottom;
position = "{535, 0}";
},
{
name = top;
position = "{669, 1465}";
}
);
layerId = "1CEA669B-A0BD-449D-9ADA-118AD20DED36";
shapes = (
{
closed = 1;
nodes = (
(800.898,-17.387,o),
(1036.712,108.67,o),
(1070.399,396.645,cs),
(1106.261,669.407,o),
(925.868,885.66,o),
(462.934,863.926,c),
(484.668,792.204,l),
(1148.642,1384.456,l),
(1152.989,1464.872,l),
(189.086,1464.872,l),
(176.045,1363.808,l),
(1104.087,1369.242,l),
(1066.053,1424.664,l),
(386.865,834.586,l),
(403.166,770.47,l),
(847.626,790.031,o),
(983.463,605.292,o),
(953.036,375.998,cs),
(923.695,157.571,o),
(758.517,78.242,o),
(569.431,78.242,cs),
(367.305,78.242,o),
(193.433,169.525,o),
(142.358,354.264,c),
(29.341,314.056,l),
(66.289,106.497,o),
(280.369,-17.387,o),
(541.177,-17.387,cs)
);
}
);
width = 1264;
}
);
unicode = 1248;
},
{
glyphname = "Dzhe-cy";
leftMetricsKey = "=En-cy";
rightMetricsKey = "=En-cy";
layers = (
{
anchors = (
{
name = bottomright;
position = "{1446, 0}";
},
{
name = bottom;
position = "{772, 0}";
}
);
layerId = "853DA88A-72D0-442C-B77F-5E2897338EA9";
shapes = (
{
closed = 1;
nodes = (
(895,-434,l),
(990,86,l),
(570,86,l),
(557,-434,l)
);
},
{
closed = 1;
nodes = (
(1448,0,l),
(1604,1465,l),
(1141,1465,l),
(983,0,l)
);
},
{
closed = 1;
nodes = (
(1299,0,l),
(1339,360,l),
(286,360,l),
(249,0,l)
);
},
{
closed = 1;
nodes = (
(564,0,l),
(719,1465,l),
(256,1465,l),
(97,0,l)
);
}
);
width = 1654;
},
{
anchors = (
{
name = bottomright;
position = "{1385, 0}";
},
{
name = bottom;
position = "{755, 0}";
}
);
layerId = "E1DC4E80-D015-47E5-8658-7F3F0651B68D";
shapes = (
{
closed = 1;
nodes = (
(842,-434,l),
(928,69,l),
(595,69,l),
(575,-434,l)
);
},
{
closed = 1;
nodes = (
(1387,0,l),
(1545,1465,l),
(1180,1465,l),
(1021,0,l)
);
},
{
closed = 1;
nodes = (
(1269,0,l),
(1301,286,l),
(269,286,l),
(240,0,l)
);
},
{
closed = 1;
nodes = (
(488,0,l),
(646,1465,l),
(281,1465,l),
(120,0,l)
);
}
);
width = 1619;
},
{
anchors = (
{
name = bottomright;
position = "{1294, 0}";
},
{
name = bottom;
position = "{729, 0}";
}
);
layerId = "5190A6EC-00FF-4542-AE94-5CA8DCFF9011";
shapes = (
{
closed = 1;
nodes = (
(763,-434,l),
(835,44,l),
(632,44,l),
(601,-434,l)
);
},
{
closed = 1;
nodes = (
(1296,0,l),
(1457,1465,l),
(1239,1465,l),
(1078,0,l)
);
},
{
closed = 1;
nodes = (
(1224,0,l),
(1244,174,l),
(244,174,l),
(226,0,l)
);
},
{
closed = 1;
nodes = (
(375,0,l),
(536,1465,l),
(319,1465,l),
(155,0,l)
);
}
);
width = 1567;
},
{
anchors = (
{
name = bottomright;
position = "{1234, 0}";
},
{
name = bottom;
position = "{711, 0}";
}
);
layerId = "1CEA669B-A0BD-449D-9ADA-118AD20DED36";
shapes = (
{
closed = 1;
nodes = (
(710,-434,l),
(773,27,l),
(657,27,l),
(619,-434,l)
);
},
{
closed = 1;
nodes = (
(1236,0,l),
(1399,1465,l),
(1278,1465,l),
(1116,0,l)
);
},
{
closed = 1;
nodes = (
(1194,0,l),
(1206,100,l),
(227,100,l),
(217,0,l)
);
},
{
closed = 1;
nodes = (
(299,0,l),
(462,1465,l),
(344,1465,l),
(179,0,l)
);
}
);
width = 1533;
}
);
unicode = 1039;
},
{
glyphname = E;
layers = (
{
layerId = "853DA88A-72D0-442C-B77F-5E2897338EA9";
shapes = (
{
closed = 1;
nodes = (
(1080,0,l),
(1155,262,l),
(589,262,l),
(631,634,l),
(1033,634,l),
(1099,871,l),
(658,871,l),
(697,1203,l),
(1213,1203,l),
(1288,1465,l),
(264,1465,l),
(97,0,l)
);
}
);
width = 1302;
},
{
layerId = "E1DC4E80-D015-47E5-8658-7F3F0651B68D";
shapes = (
{
closed = 1;
nodes = (
(1051,0,l),
(1116,221,l),
(506,221,l),
(555,654,l),
(1008,654,l),
(1067,857,l),
(578,857,l),
(623,1244,l),
(1184,1244,l),
(1249,1465,l),
(287,1465,l),
(120,0,l)
);
}
);
width = 1273;
},
{
layerId = "5190A6EC-00FF-4542-AE94-5CA8DCFF9011";
shapes = (
{
closed = 1;
nodes = (
(1008,0,l),
(1057,159,l),
(381,159,l),
(440,685,l),
(970,685,l),
(1020,836,l),
(458,836,l),
(513,1306,l),
(1141,1306,l),
(1190,1465,l),
(322,1465,l),
(155,0,l)
);
}
);
width = 1229;
},
{
layerId = "1CEA669B-A0BD-449D-9ADA-118AD20DED36";
shapes = (
{
closed = 1;
nodes = (
(980,0,l),
(1017,117,l),
(297,117,l),
(364,705,l),
(945,705,l),
(988,822,l),
(378,822,l),
(439,1348,l),
(1113,1348,l),
(1150,1465,l),
(346,1465,l),
(179,0,l)
);
}
);
width = 1200;
}
);
rightKerningGroup = _E_Left;
unicode = 69;
},
{
color = 10;
glyphname = "E-cy";
leftMetricsKey = C;
layers = (
{
anchors = (
{
name = bottom;
position = "{794, 0}";
},
{
name = top;
position = "{985, 1465}";
}
);
layerId = "853DA88A-72D0-442C-B77F-5E2897338EA9";
shapes = (
{
closed = 1;
nodes = (
(1006,-41,o),
(1221,-1,o),
(1401,108,c),
(1276,411,l),
(1211,348,o),
(1093,292,o),
(958,292,cs),
(670,292,o),
(575,554,o),
(604,820,c),
(635,1062,o),
(760,1191,o),
(927,1191,cs),
(1049,1191,o),
(1182,1122,o),
(1293,992,c),
(1460,1382,l),
(1315,1471,o),
(1113,1505,o),
(950,1505,cs),
(502,1505,o),
(173,1250,o),
(114,803,c),
(55,338,o),
(321,-41,o),
(837,-41,cs)
);
},
{
closed = 1;
nodes = (
(1148,916,l),
(489,872,l),
(432,602,l),
(1076,573,l)
);
}
);
width = 1502;
},
{
anchors = (
{
name = bottom;
position = "{798, 0}";
},
{
name = top;
position = "{976, 1465}";
}
);
layerId = "E1DC4E80-D015-47E5-8658-7F3F0651B68D";
shapes = (
{
closed = 1;
nodes = (
(1008,-34,o),
(1205,10,o),
(1382,122,c),
(1272,363,l),
(1189,287,o),
(1070,230,o),
(928,230,cs),
(618,230,o),
(489,504,o),
(523,807,c),
(556,1084,o),
(710,1248,o),
(922,1248,cs),
(1050,1248,o),
(1185,1184,o),
(1299,1063,c),
(1437,1369,l),
(1296,1460,o),
(1109,1498,o),
(945,1498,cs),
(514,1498,o),
(194,1237,o),
(137,795,c),
(78,334,o),
(343,-34,o),
(838,-34,cs)
);
},
{
closed = 1;
nodes = (
(1116,882,l),
(430,848,l),
(385,630,l),
(1059,607,l)
);
}
);
width = 1489;
},
{
anchors = (
{
name = bottom;
position = "{803, 0}";
},
{
name = top;
position = "{963, 1465}";
}
);
layerId = "5190A6EC-00FF-4542-AE94-5CA8DCFF9011";
shapes = (
{
closed = 1;
nodes = (
(1012,-24,o),
(1182,26,o),
(1353,144,c),
(1266,290,l),
(1156,196,o),
(1035,136,o),
(884,136,cs),
(541,136,o),
(359,428,o),
(401,787,cs),
(438,1116,o),
(635,1333,o),
(914,1333,cs),
(1052,1333,o),
(1190,1276,o),
(1309,1170,c),
(1402,1350,l),
(1268,1443,o),
(1103,1488,o),
(937,1488,cs),
(532,1488,o),
(226,1218,o),
(171,783,cs),
(112,327,o),
(376,-24,o),
(840,-24,cs)
);
},
{
closed = 1;
nodes = (
(1069,831,l),
(341,812,l),
(314,671,l),
(1033,658,l)
);
}
);
width = 1470;
},
{
anchors = (
{
name = bottom;
position = "{807, 0}";
},
{
name = top;
position = "{954, 1465}";
}
);
layerId = "1CEA669B-A0BD-449D-9ADA-118AD20DED36";
shapes = (
{
closed = 1;
nodes = (
(1014,-17,o),
(1166,36,o),
(1334,158,c),
(1262,242,l),
(1134,136,o),
(1012,74,o),
(854,74,cs),
(489,74,o),
(273,378,o),
(319,773,c),
(360,1138,o),
(585,1389,o),
(909,1389,cs),
(1054,1389,o),
(1194,1338,o),
(1315,1242,c),
(1379,1338,l),
(1250,1431,o),
(1099,1482,o),
(931,1482,cs),
(544,1482,o),
(247,1206,o),
(193,775,cs),
(135,323,o),
(398,-17,o),
(841,-17,cs)
);
},
{
closed = 1;
nodes = (
(1037,797,l),
(281,788,l),
(266,699,l),
(1016,692,l)
);
}
);
width = 1457;
}
);
leftKerningGroup = "E-cy";
unicode = 1028;
},
{
color = 9;
glyphname = Ecircumflexhookabove;
layers = (
{
anchors = (
{
name = bottom;
position = "{625, 0}";
},
{
name = ogonek;
position = "{1176, 0}";
},
{
name = top;
position = "{822, 1993}";
},
{
name = topleft;
position = "{210, 1465}";
}
);
layerId = "853DA88A-72D0-442C-B77F-5E2897338EA9";
shapes = (
{
closed = 1;
nodes = (
(1361,1810,l),
(1395,1962,l),
(1286,1888,l),
(1430,1888,o),
(1523,1961,o),
(1533,2059,cs),
(1544,2161,o),
(1461,2253,o),
(1319,2253,cs),
(1250,2253,o),
(1161,2231,o),
(1063,2159,c),
(1113,2041,l),
(1140,2058,o),
(1185,2073,o),
(1217,2073,cs),
(1245,2073,o),
(1273,2060,o),
(1269,2029,c),
(1268,1991,o),
(1210,1970,o),
(1160,1964,c),
(1157,1810,l)
);
},
{
alignment = -1;
ref = Ecircumflex;
}
);
width = 1328;
},
{
anchors = (
{
name = bottom;
position = "{624, 0}";
},
{
name = ogonek;
position = "{1143, 0}";
},
{
name = top;
position = "{815, 1983}";
},
{
name = topleft;
position = "{211, 1465}";
}
);
layerId = "E1DC4E80-D015-47E5-8658-7F3F0651B68D";
shapes = (
{
closed = 1;
nodes = (
(1274,1804,l),
(1302,1950,l),
(1215,1884,l),
(1354,1884,o),
(1449,1951,o),
(1460,2050,cs),
(1472,2146,o),
(1392,2236,o),
(1249,2236,cs),
(1185,2236,o),
(1099,2217,o),
(1012,2145,c),
(1057,2049,l),
(1087,2072,o),
(1134,2089,o),
(1173,2089,cs),
(1224,2089,o),
(1253,2061,o),
(1248,2026,c),
(1244,1982,o),
(1175,1957,o),
(1113,1952,c),
(1108,1804,l)
);
},
{
alignment = -1;
ref = Ecircumflex;
}
);
width = 1302;
},
{
anchors = (
{
name = bottom;
position = "{623, 0}";
},
{
name = ogonek;
position = "{1094, 0}";
},
{
name = top;
position = "{805, 1968}";
},
{
name = topleft;
position = "{212, 1465}";
}
);
layerId = "5190A6EC-00FF-4542-AE94-5CA8DCFF9011";
shapes = (
{
closed = 1;
nodes = (
(1144,1795,l),
(1162,1932,l),
(1108,1878,l),
(1239,1878,o),
(1339,1937,o),
(1351,2036,c),
(1364,2124,o),
(1289,2211,o),
(1145,2211,cs),
(1088,2211,o),
(1006,2197,o),
(935,2123,c),
(972,2061,l),
(1007,2093,o),
(1058,2112,o),
(1108,2112,cs),
(1192,2112,o),
(1224,2063,o),
(1217,2022,cs),
(1208,1968,o),
(1123,1937,o),
(1042,1935,c),
(1035,1795,l)
);
},
{
alignment = -1;
ref = Ecircumflex;
}
);
width = 1262;
},
{
anchors = (
{
name = bottom;
position = "{623, 0}";
},
{
name = ogonek;
position = "{1062, 0}";
},
{
name = top;
position = "{799, 1958}";
},
{
name = topleft;
position = "{212, 1465}";
}
);
layerId = "1CEA669B-A0BD-449D-9ADA-118AD20DED36";
shapes = (
{
closed = 1;
nodes = (
(1057,1789,l),
(1068,1920,l),
(1036,1874,l),
(1163,1874,o),
(1265,1927,o),
(1279,2027,c),
(1292,2109,o),
(1220,2194,o),
(1075,2194,cs),
(1024,2194,o),
(944,2183,o),
(884,2109,c),
(916,2069,l),
(954,2107,o),
(1007,2128,o),
(1064,2128,cs),
(1170,2128,o),
(1204,2065,o),
(1196,2020,cs),
(1184,1958,o),
(1089,1923,o),
(994,1923,c),
(986,1789,l)
);
},
{
alignment = -1;
ref = Ecircumflex;
}
);
width = 1236;
}
);
unicode = 7874;
},
{
color = 10;
glyphname = "Ef-cy";
leftMetricsKey = O;
rightMetricsKey = O;
layers = (
{
layerId = "853DA88A-72D0-442C-B77F-5E2897338EA9";
shapes = (
{
closed = 1;
nodes = (
(1444.23,119.537,o),
(1862.61,306.449,o),
(1915.858,702.008,c),
(1966.933,1073.66,o),
(1699.605,1345.335,o),
(1108.44,1345.335,cs),
(575.957,1345.335,o),
(163.011,1160.596,o),
(109.763,762.863,cs),
(59.774,385.778,o),
(329.276,119.537,o),
(912.834,119.537,cs)
);
},
{
closed = 1;
nodes = (
(663.98,403.166,o),
(537.922,529.223,o),
(577.044,804.158,c),
(610.731,1006.284,o),
(721.575,1060.619,o),
(1008.463,1060.619,cs),
(1373.595,1060.619,o),
(1489.872,926.955,o),
(1448.577,661.8,c),
(1414.889,462.934,o),
(1304.046,403.166,o),
(1011.724,403.166,cs)
);
},
{
closed = 1;
nodes = (
(1150.821,-40.208,l),
(1317.086,1503.993,l),
(878.059,1503.993,l),
(711.794,-40.208,l)
);
}
);
width = 1978;
},
{
layerId = "E1DC4E80-D015-47E5-8658-7F3F0651B68D";
shapes = (
{
closed = 1;
nodes = (
(1400.635,126.057,o),
(1785.327,316.23,o),
(1835.315,691.141,cs),
(1883.13,1058.446,o),
(1620.148,1338.814,o),
(1059.411,1338.814,cs),
(563.876,1338.814,o),
(182.444,1149.729,o),
(133.543,773.73,c),
(86.815,402.079,o),
(349.796,126.057,o),
(906.187,126.057,cs)
);
},
{
closed = 1;
nodes = (
(623.645,353.177,o),
(462.813,507.489,o),
(501.934,800.898,c),
(534.535,1023.671,o),
(684.5,1110.607,o),
(988.776,1110.607,cs),
(1353.907,1110.607,o),
(1506.045,949.776,o),
(1466.924,662.887,c),
(1432.149,444.46,o),
(1283.271,353.177,o),
(974.649,353.177,cs)
);
},
{
closed = 1;
nodes = (
(1075.712,-34.774,l),
(1243.064,1498.559,l),
(896.406,1498.559,l),
(729.054,-34.774,l)
);
}
);
width = 1924;
},
{
layerId = "5190A6EC-00FF-4542-AE94-5CA8DCFF9011";
shapes = (
{
closed = 1;
nodes = (
(1335.786,135.837,o),
(1669.403,331.443,o),
(1713.957,673.754,c),
(1758.512,1036.712,o),
(1502.051,1329.034,o),
(986.955,1329.034,cs),
(546.842,1329.034,o),
(212.138,1134.515,o),
(169.757,790.031,c),
(126.289,425.986,o),
(379.49,135.837,o),
(895.672,135.837,cs)
);
},
{
closed = 1;
nodes = (
(563.142,277.108,o),
(351.236,473.801,o),
(389.27,796.551,c),
(420.784,1048.665,o),
(629.431,1185.59,o),
(959.788,1185.59,cs),
(1324.919,1185.59,o),
(1530.305,984.55,o),
(1493.357,665.06,c),
(1458.583,417.293,o),
(1253.197,277.108,o),
(919.58,277.108,cs)
);
},
{
closed = 1;
nodes = (
(964.134,-27.167,l),
(1132.573,1490.952,l),
(923.926,1490.952,l),
(755.488,-27.167,l)
);
}
);
width = 1840;
},
{
layerId = "1CEA669B-A0BD-449D-9ADA-118AD20DED36";
shapes = (
{
closed = 1;
nodes = (
(1295.277,142.358,o),
(1594.12,342.31,o),
(1634.328,662.887,cs),
(1676.709,1021.498,o),
(1424.595,1322.514,o),
(939.926,1322.514,cs),
(536.761,1322.514,o),
(234.658,1123.648,o),
(195.537,800.898,cs),
(155.329,441.2,o),
(402.01,142.358,o),
(889.938,142.358,cs)
);
},
{
closed = 1;
nodes = (
(524.807,227.12,o),
(278.126,452.067,o),
(316.161,794.378,c),
(347.675,1066.053,o),
(594.356,1235.578,o),
(942.1,1235.578,cs),
(1307.231,1235.578,o),
(1548.478,1008.458,o),
(1513.704,667.234,c),
(1478.93,398.819,o),
(1234.422,227.12,o),
(885.591,227.12,cs)
);
},
{
closed = 1;
nodes = (
(891.025,-21.734,l),
(1060.55,1486.606,l),
(944.273,1486.606,l),
(775.835,-21.734,l)
);
}
);
width = 1786;
}
);
unicode = 1060;
},
{
color = 10;
glyphname = "Ef-cy.loclBGR";
leftMetricsKey = O;
rightMetricsKey = O;
layers = (
{
layerId = "853DA88A-72D0-442C-B77F-5E2897338EA9";
shapes = (
{
closed = 1;
nodes = (
(1455,-18,o),
(1860,229,o),
(1917,724,c),
(1979,1210,o),
(1664,1483,o),
(1103,1483,cs),
(562,1483,o),
(163,1236,o),
(107,740,c),
(49,263,o),
(346,-18,o),
(920,-18,cs)
);
},
{
closed = 1;
nodes = (
(681,263,o),
(519,420,o),
(570,801,c),
(611,1081,o),
(727,1198,o),
(1015,1198,cs),
(1359,1198,o),
(1502,1038,o),
(1452,666,c),
(1413,384,o),
(1296,263,o),
(1009,263,cs)
);
},
{
closed = 1;
nodes = (
(1109,-241,l),
(1321,1701,l),
(918,1701,l),
(706,-241,l)
);
}
);
width = 1977;
},
{
layerId = "E1DC4E80-D015-47E5-8658-7F3F0651B68D";
shapes = (
{
closed = 1;
nodes = (
(1426,-17,o),
(1805,239,o),
(1861,714,c),
(1922,1194,o),
(1614,1482,o),
(1075,1482,cs),
(560,1482,o),
(186,1227,o),
(131,751,c),
(73,277,o),
(367,-17,o),
(916,-17,cs)
);
},
{
closed = 1;
nodes = (
(633,208,o),
(446,400,o),
(496,794,c),
(537,1102,o),
(691,1253,o),
(1005,1253,cs),
(1367,1253,o),
(1543,1061,o),
(1494,672,cs),
(1453,363,o),
(1298,208,o),
(985,208,cs)
);
},
{
closed = 1;
nodes = (
(1051,-243,l),
(1265,1705,l),
(945,1705,l),
(732,-243,l)
);
}
);
width = 1947;
},
{
layerId = "5190A6EC-00FF-4542-AE94-5CA8DCFF9011";
shapes = (
{
closed = 1;
nodes = (
(1384,-15,o),
(1724,253,o),
(1778,698,c),
(1838,1171,o),
(1541,1480,o),
(1034,1480,cs),
(560,1480,o),
(223,1213,o),
(168,767,cs),
(111,298,o),
(401,-15,o),
(911,-15,cs)
);
},
{
closed = 1;
nodes = (
(564,126,o),
(339,370,o),
(387,783,cs),
(428,1133,o),
(640,1336,o),
(992,1336,cs),
(1382,1336,o),
(1607,1095,o),
(1558,682,cs),
(1516,332,o),
(1304,126,o),
(951,126,cs)
);
},
{
closed = 1;
nodes = (
(966,-245,l),
(1183,1712,l),
(988,1712,l),
(772,-245,l)
);
}
);
width = 1902;
},
{
layerId = "1CEA669B-A0BD-449D-9ADA-118AD20DED36";
shapes = (
{
closed = 1;
nodes = (
(1356,-13,o),
(1670,263,o),
(1723,688,cs),
(1782,1155,o),
(1493,1478,o),
(1007,1478,cs),
(560,1478,o),
(247,1204,o),
(193,777,cs),
(137,312,o),
(424,-13,o),
(908,-13,cs)
);
},
{
closed = 1;
nodes = (
(518,72,o),
(268,350,o),
(315,775,cs),
(355,1153,o),
(606,1391,o),
(984,1391,cs),
(1392,1391,o),
(1650,1117,o),
(1601,688,cs),
(1558,312,o),
(1308,72,o),
(928,72,cs)
);
},
{
closed = 1;
nodes = (
(909,-247,l),
(1129,1716,l),
(1017,1716,l),
(799,-247,l)
);
}
);
width = 1872;
}
);
},
{
color = 9;
glyphname = Ehookabove;
layers = (
{
anchors = (
{
name = bottom;
position = "{625, 0}";
},
{
name = ogonek;
position = "{1176, 0}";
},
{
name = top;
position = "{858, 2132}";
},
{
name = topleft;
position = "{210, 1465}";
}
);
layerId = "853DA88A-72D0-442C-B77F-5E2897338EA9";
shapes = (
{
closed = 1;
nodes = (
(880,1530,l),
(923,1780,l),
(756,1647,l),
(982,1662,o),
(1106,1775,o),
(1118,1893,c),
(1132,2013,o),
(1024,2132,o),
(796,2132,cs),
(693,2132,o),
(570,2107,o),
(465,2047,c),
(539,1882,l),
(592,1906,o),
(649,1917,o),
(694,1917,cs),
(755,1917,o),
(786,1900,o),
(777,1857,cs),
(768,1808,o),
(699,1788,o),
(610,1783,c),
(601,1530,l)
);
},
{
alignment = -1;
ref = E;
}
);
width = 1328;
},
{
anchors = (
{
name = bottom;
position = "{624, 0}";
},
{
name = ogonek;
position = "{1143, 0}";
},
{
name = top;
position = "{850, 2098}";
},
{
name = topleft;
position = "{211, 1465}";
}
);
layerId = "E1DC4E80-D015-47E5-8658-7F3F0651B68D";
shapes = (
{
closed = 1;
nodes = (
(836,1536,l),
(872,1762,l),
(737,1654,l),
(945,1665,o),
(1064,1762,o),
(1076,1873,c),
(1090,1989,o),
(986,2098,o),
(777,2098,cs),
(677,2098,o),
(564,2072,o),
(468,2009,c),
(533,1877,l),
(583,1908,o),
(643,1924,o),
(699,1924,cs),
(772,1924,o),
(812,1898,o),
(802,1847,cs),
(793,1795,o),
(720,1768,o),
(619,1764,c),
(608,1536,l)
);
},
{
alignment = -1;
ref = E;
}
);
width = 1302;
},
{
anchors = (
{
name = bottom;
position = "{623, 0}";
},
{
name = ogonek;
position = "{1094, 0}";
},
{
name = top;
position = "{838, 2048}";
},
{
name = topleft;
position = "{212, 1465}";
}
);
layerId = "5190A6EC-00FF-4542-AE94-5CA8DCFF9011";
shapes = (
{
closed = 1;
nodes = (
(769,1545,l),
(795,1734,l),
(708,1664,l),
(890,1669,o),
(1002,1743,o),
(1014,1843,cs),
(1028,1952,o),
(930,2048,o),
(748,2048,cs),
(654,2048,o),
(554,2020,o),
(473,1952,c),
(524,1869,l),
(569,1912,o),
(634,1934,o),
(707,1934,cs),
(797,1934,o),
(850,1894,o),
(840,1833,cs),
(830,1775,o),
(752,1738,o),
(632,1736,c),
(619,1545,l)
);
},
{
alignment = -1;
ref = E;
}
);
width = 1262;
},
{
anchors = (
{
name = bottom;
position = "{623, 0}";
},
{
name = ogonek;
position = "{1062, 0}";
},
{
name = top;
position = "{830, 2014}";
},
{
name = topleft;
position = "{212, 1465}";
}
);
layerId = "1CEA669B-A0BD-449D-9ADA-118AD20DED36";
shapes = (
{
closed = 1;
nodes = (
(725,1551,l),
(743,1716,l),
(688,1671,l),
(854,1671,o),
(960,1731,o),
(972,1823,cs),
(986,1928,o),
(892,2014,o),
(729,2014,cs),
(638,2014,o),
(548,1986,o),
(477,1914,c),
(518,1863,l),
(560,1914,o),
(628,1941,o),
(713,1941,cs),
(813,1941,o),
(876,1892,o),
(865,1823,cs),
(854,1761,o),
(774,1718,o),
(640,1718,c),
(627,1551,l)
);
},
{
alignment = -1;
ref = E;
}
);
width = 1236;
}
);
unicode = 7866;
},
{
color = 10;
glyphname = "El-cy";
rightMetricsKey = H;
layers = (
{
anchors = (
{
name = bottomright;
position = "{1345, 0}";
}
);
layerId = "853DA88A-72D0-442C-B77F-5E2897338EA9";
shapes = (
{
closed = 1;
nodes = (
(-8,-28,l),
(517,-49,o),
(558,99,o),
(765,1465,c),
(396,1465,l),
(284,565,o),
(208,252,o),
(-53,254,c)
);
},
{
closed = 1;
nodes = (
(1345,0,l),
(1502,1465,l),
(1035,1465,l),
(877,0,l)
);
},
{
closed = 1;
nodes = (
(1229,1122,l),
(1266,1465,l),
(574,1465,l),
(568,1122,l)
);
}
);
width = 1552;
},
{
anchors = (
{
name = bottomright;
position = "{1309, 0}";
}
);
layerId = "E1DC4E80-D015-47E5-8658-7F3F0651B68D";
shapes = (
{
closed = 1;
nodes = (
(0,-26,l),
(470,-6,o),
(540,218,o),
(726,1465,c),
(432,1465,l),
(316,591,o),
(227,238,o),
(-40,200,c)
);
},
{
closed = 1;
nodes = (
(1309,0,l),
(1466,1465,l),
(1097,1465,l),
(939,0,l)
);
},
{
closed = 1;
nodes = (
(1251,1191,l),
(1280,1465,l),
(575,1465,l),
(567,1191,l)
);
}
);
width = 1540;
},
{
anchors = (
{
name = bottomright;
position = "{1255, 0}";
}
);
layerId = "5190A6EC-00FF-4542-AE94-5CA8DCFF9011";
shapes = (
{
closed = 1;
nodes = (
(12,-22,l),
(400,59,o),
(514,396,o),
(667,1465,c),
(487,1465,l),
(365,630,o),
(255,218,o),
(-20,118,c)
);
},
{
closed = 1;
nodes = (
(1255,0,l),
(1413,1465,l),
(1189,1465,l),
(1031,0,l)
);
},
{
closed = 1;
nodes = (
(1283,1295,l),
(1301,1465,l),
(576,1465,l),
(566,1295,l)
);
}
);
width = 1523;
},
{
anchors = (
{
name = bottomright;
position = "{1219, 0}";
}
);
layerId = "1CEA669B-A0BD-449D-9ADA-118AD20DED36";
shapes = (
{
closed = 1;
nodes = (
(20,-20,l),
(354,102,o),
(496,514,o),
(627,1465,c),
(523,1465,l),
(397,656,o),
(273,204,o),
(-7,64,c)
);
},
{
closed = 1;
nodes = (
(1219,0,l),
(1377,1465,l),
(1251,1465,l),
(1093,0,l)
);
},
{
closed = 1;
nodes = (
(1305,1364,l),
(1315,1465,l),
(576,1465,l),
(566,1364,l)
);
}
);
width = 1511;
}
);
unicode = 1051;
},
{
color = 10;
glyphname = "El-cy.loclBGR";
leftMetricsKey = A;
rightMetricsKey = A;
layers = (
{
layerId = "853DA88A-72D0-442C-B77F-5E2897338EA9";
shapes = (
{
closed = 1;
nodes = (
(432.518,0,l),
(907.406,1296.433,l),
(754.182,1296.433,l),
(996.516,0,l),
(1514.872,0,l),
(1143.22,1464.872,l),
(646.598,1464.872,l),
(-32.589,0,l)
);
}
);
width = 1602;
},
{
layerId = "E1DC4E80-D015-47E5-8658-7F3F0651B68D";
shapes = (
{
closed = 1;
nodes = (
(361.056,0,l),
(884.846,1323.601,l),
(762.049,1323.601,l),
(1031.55,0,l),
(1439.063,0,l),
(1065.238,1464.872,l),
(679.459,1464.872,l),
(-8.422,0,l)
);
}
);
width = 1552;
},
{
layerId = "5190A6EC-00FF-4542-AE94-5CA8DCFF9011";
shapes = (
{
closed = 1;
nodes = (
(256.906,0,l),
(854.591,1364.895,l),
(777.436,1364.895,l),
(1087.145,0,l),
(1328.393,0,l),
(951.308,1464.872,l),
(730.708,1464.872,l),
(29.786,0,l)
);
}
);
width = 1480;
},
{
layerId = "1CEA669B-A0BD-449D-9ADA-118AD20DED36";
shapes = (
{
closed = 1;
nodes = (
(190.531,0,l),
(836.031,1393.149,l),
(789.303,1393.149,l),
(1127.266,0,l),
(1256.584,0,l),
(878.412,1464.872,l),
(766.482,1464.872,l),
(56.867,0,l)
);
}
);
width = 1435;
}
);
},
{
color = 8;
glyphname = "Eldescender-cy";
leftMetricsKey = "=El-cy";
layers = (
{
layerId = "853DA88A-72D0-442C-B77F-5E2897338EA9";
shapes = (
{
closed = 1;
nodes = (
(-8,-28,l),
(517,-49,o),
(558,99,o),
(765,1465,c),
(396,1465,l),
(284,565,o),
(208,252,o),
(-53,254,c)
);
},
{
closed = 1;
nodes = (
(1345,0,l),
(1502,1465,l),
(1035,1465,l),
(877,0,l)
);
},
{
closed = 1;
nodes = (
(1229,1122,l),
(1266,1465,l),
(574,1465,l),
(568,1122,l)
);
},
{
closed = 1;
nodes = (
(1400,0,l),
(1632,388,l),
(1313,388,l),
(1275,0,l)
);
},
{
closed = 1;
nodes = (
(1503,-434,l),
(1633,388,l),
(1205,388,l),
(1165,-434,l)
);
}
);
width = 1676;
},
{
layerId = "E1DC4E80-D015-47E5-8658-7F3F0651B68D";
shapes = (
{
closed = 1;
nodes = (
(0,-26,l),
(470,-6,o),
(540,218,o),
(726,1465,c),
(432,1465,l),
(316,591,o),
(227,238,o),
(-40,200,c)
);
},
{
closed = 1;
nodes = (
(1309,0,l),
(1466,1465,l),
(1097,1465,l),
(939,0,l)
);
},
{
closed = 1;
nodes = (
(1251,1191,l),
(1280,1465,l),
(575,1465,l),
(567,1191,l)
);
},
{
closed = 1;
nodes = (
(1411,0,l),
(1594,306,l),
(1284,306,l),
(1255,0,l)
);
},
{
closed = 1;
nodes = (
(1481,-434,l),
(1594,306,l),
(1255,306,l),
(1215,-434,l)
);
}
);
width = 1666;
},
{
layerId = "5190A6EC-00FF-4542-AE94-5CA8DCFF9011";
shapes = (
{
closed = 1;
nodes = (
(12,-22,l),
(400,59,o),
(514,396,o),
(667,1465,c),
(487,1465,l),
(365,630,o),
(255,218,o),
(-20,118,c)
);
},
{
closed = 1;
nodes = (
(1255,0,l),
(1413,1465,l),
(1189,1465,l),
(1031,0,l)
);
},
{
closed = 1;
nodes = (
(1283,1295,l),
(1301,1465,l),
(576,1465,l),
(566,1295,l)
);
},
{
closed = 1;
nodes = (
(1427,0,l),
(1537,182,l),
(1241,182,l),
(1224,0,l)
);
},
{
closed = 1;
nodes = (
(1447,-434,l),
(1535,182,l),
(1330,182,l),
(1289,-434,l)
);
}
);
width = 1650;
},
{
layerId = "1CEA669B-A0BD-449D-9ADA-118AD20DED36";
shapes = (
{
closed = 1;
nodes = (
(20,-20,l),
(354,102,o),
(496,514,o),
(627,1465,c),
(523,1465,l),
(397,656,o),
(273,204,o),
(-7,64,c)
);
},
{
closed = 1;
nodes = (
(1219,0,l),
(1377,1465,l),
(1251,1465,l),
(1093,0,l)
);
},
{
closed = 1;
nodes = (
(1305,1364,l),
(1315,1465,l),
(576,1465,l),
(566,1364,l)
);
},
{
closed = 1;
nodes = (
(1438,0,l),
(1499,100,l),
(1213,100,l),
(1204,0,l)
);
},
{
closed = 1;
nodes = (
(1425,-434,l),
(1496,100,l),
(1380,100,l),
(1339,-434,l)
);
}
);
width = 1640;
}
);
leftKerningGroup = "Lje-cy";
unicode = 1326;
},
{
glyphname = "Elhook-cy";
leftMetricsKey = "=El-cy";
rightMetricsKey = H;
layers = (
{
layerId = "853DA88A-72D0-442C-B77F-5E2897338EA9";
shapes = (
{
closed = 1;
nodes = (
(710,-497,l),
(1083,-414,o),
(1310,-287,o),
(1366,214,c),
(1502,1465,l),
(1036,1465,l),
(903,219,l),
(865,-115,o),
(793,-184,o),
(638,-268,c)
);
},
{
closed = 1;
nodes = (
(-7,-28,l),
(521,-49,o),
(558,99,o),
(763,1465,c),
(395,1465,l),
(283,565,o),
(199,257,o),
(-53,254,c)
);
},
{
closed = 1;
nodes = (
(1228,1122,l),
(1264,1465,l),
(573,1465,l),
(568,1122,l)
);
}
);
width = 1552;
},
{
layerId = "E1DC4E80-D015-47E5-8658-7F3F0651B68D";
shapes = (
{
closed = 1;
nodes = (
(737,-484,l),
(1070,-403,o),
(1274,-272,o),
(1324,182,cs),
(1465,1465,l),
(1098,1465,l),
(960,188,l),
(924,-132,o),
(842,-217,o),
(676,-298,c)
);
},
{
closed = 1;
nodes = (
(1,-26,l),
(475,-6,o),
(541,218,o),
(724,1465,c),
(432,1465,l),
(316,591,o),
(217,245,o),
(-40,200,c)
);
},
{
closed = 1;
nodes = (
(1250,1191,l),
(1279,1465,l),
(574,1465,l),
(567,1191,l)
);
}
);
width = 1539;
},
{
layerId = "5190A6EC-00FF-4542-AE94-5CA8DCFF9011";
shapes = (
{
closed = 1;
nodes = (
(777,-464,l),
(1050,-386,o),
(1221,-250,o),
(1261,134,c),
(1409,1465,l),
(1191,1465,l),
(1045,142,l),
(1013,-157,o),
(916,-266,o),
(732,-344,c)
);
},
{
closed = 1;
nodes = (
(12,-22,l),
(405,59,o),
(515,396,o),
(666,1465,c),
(487,1465,l),
(365,630,o),
(245,226,o),
(-20,118,c)
);
},
{
closed = 1;
nodes = (
(1282,1295,l),
(1301,1465,l),
(575,1465,l),
(566,1295,l)
);
}
);
width = 1519;
},
{
layerId = "1CEA669B-A0BD-449D-9ADA-118AD20DED36";
shapes = (
{
closed = 1;
nodes = (
(803,-450,l),
(1037,-374,o),
(1185,-236,o),
(1219,102,cs),
(1371,1465,l),
(1253,1465,l),
(1102,111,ls),
(1073,-174,o),
(966,-298,o),
(770,-374,c)
);
},
{
closed = 1;
nodes = (
(20,-20,l),
(359,102,o),
(497,514,o),
(628,1465,c),
(523,1465,l),
(397,656,o),
(263,214,o),
(-7,64,c)
);
},
{
closed = 1;
nodes = (
(1304,1364,l),
(1315,1465,l),
(576,1465,l),
(565,1364,l)
);
}
);
width = 1505;
}
);
rightKerningGroup = "Elhook-cy";
unicode = 1298;
},
{
glyphname = "Eltail-cy";
layers = (
{
layerId = "853DA88A-72D0-442C-B77F-5E2897338EA9";
shapes = (
{
closed = 1;
nodes = (
(-8,-28,l),
(517,-49,o),
(558,99,o),
(765,1465,c),
(396,1465,l),
(284,565,o),
(208,252,o),
(-53,254,c)
);
},
{
closed = 1;
nodes = (
(1345,0,l),
(1502,1465,l),
(1035,1465,l),
(877,0,l)
);
},
{
closed = 1;
nodes = (
(1229,1122,l),
(1266,1465,l),
(574,1465,l),
(568,1122,l)
);
},
{
closed = 1;
nodes = (
(1449,0,l),
(1616,303,l),
(1238,303,l),
(1270,0,l)
);
},
{
closed = 1;
nodes = (
(1403,-434,l),
(1616,303,l),
(1114,303,l),
(1052,-434,l)
);
}
);
width = 1695;
},
{
layerId = "E1DC4E80-D015-47E5-8658-7F3F0651B68D";
shapes = (
{
closed = 1;
nodes = (
(0,-26,l),
(470,-6,o),
(540,218,o),
(726,1465,c),
(432,1465,l),
(316,591,o),
(227,238,o),
(-40,200,c)
);
},
{
closed = 1;
nodes = (
(1309,0,l),
(1466,1465,l),
(1097,1465,l),
(939,0,l)
);
},
{
closed = 1;
nodes = (
(1251,1191,l),
(1280,1465,l),
(575,1465,l),
(567,1191,l)
);
},
{
closed = 1;
nodes = (
(1431,0,l),
(1562,245,l),
(1222,245,l),
(1249,0,l)
);
},
{
closed = 1;
nodes = (
(1358,-434,l),
(1562,245,l),
(1167,245,l),
(1080,-434,l)
);
}
);
width = 1673;
},
{
layerId = "5190A6EC-00FF-4542-AE94-5CA8DCFF9011";
shapes = (
{
closed = 1;
nodes = (
(12,-22,l),
(400,59,o),
(514,396,o),
(667,1465,c),
(487,1465,l),
(365,630,o),
(255,218,o),
(-20,118,c)
);
},
{
closed = 1;
nodes = (
(1255,0,l),
(1413,1465,l),
(1189,1465,l),
(1031,0,l)
);
},
{
closed = 1;
nodes = (
(1283,1295,l),
(1301,1465,l),
(576,1465,l),
(566,1295,l)
);
},
{
closed = 1;
nodes = (
(1405,0,l),
(1481,158,l),
(1199,158,l),
(1217,0,l)
);
},
{
closed = 1;
nodes = (
(1291,-434,l),
(1481,158,l),
(1247,158,l),
(1123,-434,l)
);
}
);
width = 1640;
},
{
layerId = "1CEA669B-A0BD-449D-9ADA-118AD20DED36";
shapes = (
{
closed = 1;
nodes = (
(20,-20,l),
(354,102,o),
(496,514,o),
(627,1465,c),
(523,1465,l),
(397,656,o),
(273,204,o),
(-7,64,c)
);
},
{
closed = 1;
nodes = (
(1219,0,l),
(1377,1465,l),
(1251,1465,l),
(1093,0,l)
);
},
{
closed = 1;
nodes = (
(1305,1364,l),
(1315,1465,l),
(576,1465,l),
(566,1364,l)
);
},
{
closed = 1;
nodes = (
(1387,0,l),
(1427,100,l),
(1183,100,l),
(1195,0,l)
);
},
{
closed = 1;
nodes = (
(1246,-434,l),
(1427,100,l),
(1300,100,l),
(1151,-434,l)
);
}
);
width = 1618;
}
);
leftKerningGroup = "Lje-cy";
unicode = 1221;
},
{
glyphname = "Emtail-cy";
layers = (
{
layerId = "853DA88A-72D0-442C-B77F-5E2897338EA9";
shapes = (
{
closed = 1;
nodes = (
(1899,0,l),
(1965,1465,l),
(1441,1465,l),
(973,481,l),
(1114,481,l),
(846,1465,l),
(545,1465,l),
(490,1224,l),
(795,83,l),
(1094,83,l),
(1691,1341,l),
(1541,1228,l),
(1437,0,l)
);
},
{
closed = 1;
nodes = (
(428,0,l),
(615,1465,l),
(294,1465,l),
(48,0,l)
);
},
{
closed = 1;
nodes = (
(1999,0,l),
(2167,303,l),
(1788,303,l),
(1820,0,l)
);
},
{
closed = 1;
nodes = (
(1954,-434,l),
(2167,303,l),
(1665,303,l),
(1602,-434,l)
);
}
);
width = 2226;
},
{
layerId = "E1DC4E80-D015-47E5-8658-7F3F0651B68D";
shapes = (
{
closed = 1;
nodes = (
(1839,0,l),
(1904,1465,l),
(1492,1465,l),
(958,415,l),
(1071,415,l),
(748,1465,l),
(510,1465,l),
(468,1268,l),
(820,96,l),
(1056,96,l),
(1693,1364,l),
(1569,1279,l),
(1473,0,l)
);
},
{
closed = 1;
nodes = (
(374,0,l),
(570,1465,l),
(313,1465,l),
(69,0,l)
);
},
{
closed = 1;
nodes = (
(1958,0,l),
(2090,245,l),
(1749,245,l),
(1776,0,l)
);
},
{
closed = 1;
nodes = (
(1886,-434,l),
(2090,245,l),
(1695,245,l),
(1607,-434,l)
);
}
);
width = 2171;
},
{
layerId = "5190A6EC-00FF-4542-AE94-5CA8DCFF9011";
shapes = (
{
closed = 1;
nodes = (
(1749,0,l),
(1813,1465,l),
(1568,1465,l),
(936,317,l),
(1006,317,l),
(601,1465,l),
(457,1465,l),
(434,1334,l),
(857,115,l),
(998,115,l),
(1695,1399,l),
(1612,1355,l),
(1527,0,l)
);
},
{
closed = 1;
nodes = (
(292,0,l),
(503,1465,l),
(342,1465,l),
(100,0,l)
);
},
{
closed = 1;
nodes = (
(1897,0,l),
(1974,158,l),
(1691,158,l),
(1709,0,l)
);
},
{
closed = 1;
nodes = (
(1784,-434,l),
(1974,158,l),
(1739,158,l),
(1615,-434,l)
);
}
);
width = 2088;
},
{
layerId = "1CEA669B-A0BD-449D-9ADA-118AD20DED36";
shapes = (
{
closed = 1;
nodes = (
(1689,0,l),
(1753,1465,l),
(1618,1465,l),
(922,251,l),
(962,251,l),
(503,1465,l),
(421,1465,l),
(412,1378,l),
(881,127,l),
(960,127,l),
(1697,1422,l),
(1640,1406,l),
(1563,0,l)
);
},
{
closed = 1;
nodes = (
(238,0,l),
(459,1465,l),
(362,1465,l),
(121,0,l)
);
},
{
closed = 1;
nodes = (
(1856,0,l),
(1896,100,l),
(1653,100,l),
(1665,0,l)
);
},
{
closed = 1;
nodes = (
(1716,-434,l),
(1896,100,l),
(1769,100,l),
(1620,-434,l)
);
}
);
width = 2032;
}
);
unicode = 1229;
},
{
color = 8;
glyphname = "EnLeftHook-cy";
leftMetricsKey = J;
layers = (
{
layerId = "853DA88A-72D0-442C-B77F-5E2897338EA9";
shapes = (
{
closed = 1;
nodes = (
(18,219,l),
(-21,-115,o),
(-91,-184,o),
(-246,-268,c),
(-176,-497,l),
(198,-414,o),
(426,-287,o),
(482,214,c),
(617,1465,l),
(152,1465,l)
);
},
{
closed = 1;
nodes = (
(1394,0,l),
(1553,1465,l),
(1087,1465,l),
(928,0,l)
);
},
{
closed = 1;
nodes = (
(1237,563,l),
(1276,919,l),
(222,919,l),
(182,563,l)
);
}
);
width = 1667;
},
{
layerId = "E1DC4E80-D015-47E5-8658-7F3F0651B68D";
shapes = (
{
closed = 1;
nodes = (
(73,188,l),
(36,-132,o),
(-44,-217,o),
(-211,-298,c),
(-151,-484,l),
(183,-403,o),
(387,-272,o),
(438,182,c),
(577,1465,l),
(211,1465,l)
);
},
{
closed = 1;
nodes = (
(1373,0,l),
(1533,1465,l),
(1166,1465,l),
(1006,0,l)
);
},
{
closed = 1;
nodes = (
(1272,600,l),
(1302,883,l),
(251,883,l),
(219,600,l)
);
}
);
width = 1670;
},
{
layerId = "5190A6EC-00FF-4542-AE94-5CA8DCFF9011";
shapes = (
{
closed = 1;
nodes = (
(153,142,l),
(119,-157,o),
(24,-266,o),
(-160,-344,c),
(-116,-464,l),
(158,-386,o),
(326,-250,o),
(369,134,cs),
(516,1465,l),
(297,1465,l)
);
},
{
closed = 1;
nodes = (
(1339,0,l),
(1502,1465,l),
(1283,1465,l),
(1121,0,l)
);
},
{
closed = 1;
nodes = (
(1323,655,l),
(1340,828,l),
(292,828,l),
(272,655,l)
);
}
);
width = 1672;
},
{
layerId = "1CEA669B-A0BD-449D-9ADA-118AD20DED36";
shapes = (
{
closed = 1;
nodes = (
(206,111,ls),
(174,-174,o),
(70,-298,o),
(-126,-374,c),
(-93,-450,l),
(141,-374,o),
(286,-236,o),
(323,102,cs),
(475,1465,l),
(355,1465,l)
);
},
{
closed = 1;
nodes = (
(1316,0,l),
(1481,1465,l),
(1361,1465,l),
(1198,0,l)
);
},
{
closed = 1;
nodes = (
(1357,692,l),
(1365,792,l),
(319,792,l),
(308,692,l)
);
}
);
width = 1674;
}
);
unicode = 1320;
},
{
glyphname = "Endescender-cy";
layers = (
{
layerId = "853DA88A-72D0-442C-B77F-5E2897338EA9";
shapes = (
{
closed = 1;
nodes = (
(1468,0,l),
(1627,1465,l),
(1163,1465,l),
(1003,0,l)
);
},
{
closed = 1;
nodes = (
(536,0,l),
(692,1465,l),
(226,1465,l),
(67,0,l)
);
},
{
closed = 1;
nodes = (
(1310,563,l),
(1350,919,l),
(299,919,l),
(259,563,l)
);
},
{
closed = 1;
nodes = (
(1529,0,l),
(1760,388,l),
(1441,388,l),
(1403,0,l)
);
},
{
closed = 1;
nodes = (
(1632,-434,l),
(1760,388,l),
(1334,388,l),
(1293,-434,l)
);
}
);
width = 1858;
},
{
layerId = "E1DC4E80-D015-47E5-8658-7F3F0651B68D";
shapes = (
{
closed = 1;
nodes = (
(1415,0,l),
(1576,1465,l),
(1210,1465,l),
(1049,0,l)
);
},
{
closed = 1;
nodes = (
(462,0,l),
(621,1465,l),
(254,1465,l),
(93,0,l)
);
},
{
closed = 1;
nodes = (
(1314,600,l),
(1345,883,l),
(296,883,l),
(264,600,l)
);
},
{
closed = 1;
nodes = (
(1522,0,l),
(1704,306,l),
(1394,306,l),
(1365,0,l)
);
},
{
closed = 1;
nodes = (
(1591,-434,l),
(1703,306,l),
(1366,306,l),
(1325,-434,l)
);
}
);
width = 1820;
},
{
layerId = "5190A6EC-00FF-4542-AE94-5CA8DCFF9011";
shapes = (
{
closed = 1;
nodes = (
(1336,0,l),
(1500,1465,l),
(1280,1465,l),
(1118,0,l)
);
},
{
closed = 1;
nodes = (
(352,0,l),
(514,1465,l),
(295,1465,l),
(132,0,l)
);
},
{
closed = 1;
nodes = (
(1319,655,l),
(1338,828,l),
(291,828,l),
(272,655,l)
);
},
{
closed = 1;
nodes = (
(1511,0,l),
(1620,182,l),
(1324,182,l),
(1307,0,l)
);
},
{
closed = 1;
nodes = (
(1530,-434,l),
(1618,182,l),
(1413,182,l),
(1372,-434,l)
);
}
);
width = 1763;
},
{
layerId = "1CEA669B-A0BD-449D-9ADA-118AD20DED36";
shapes = (
{
closed = 1;
nodes = (
(1284,0,l),
(1449,1465,l),
(1326,1465,l),
(1164,0,l)
);
},
{
closed = 1;
nodes = (
(278,0,l),
(442,1465,l),
(323,1465,l),
(158,0,l)
);
},
{
closed = 1;
nodes = (
(1323,692,l),
(1334,792,l),
(288,792,l),
(277,692,l)
);
},
{
closed = 1;
nodes = (
(1503,0,l),
(1564,100,l),
(1278,100,l),
(1269,0,l)
);
},
{
closed = 1;
nodes = (
(1490,-434,l),
(1562,100,l),
(1445,100,l),
(1404,-434,l)
);
}
);
width = 1725;
}
);
leftKerningGroup = "Tse-cy";
rightKerningGroup = "Tetse-cy";
unicode = 1186;
},
{
color = (153, 154, 255, 255);
glyphname = Eng;
layers = (
{
layerId = "853DA88A-72D0-442C-B77F-5E2897338EA9";
shapes = (
{
closed = 1;
nodes = (
(965,-555,l),
(1402,-410,o),
(1520,-116,o),
(1555,189,cs),
(1570,317,l),
(1114,314,l),
(1087,75,ls),
(1065,-117,o),
(977,-262,o),
(843,-369,c)
);
},
{
closed = 1;
nodes = (
(99,0,l),
(452,0,l),
(549,851,l),
(569,1099,l),
(589,1099,l),
(672,867,l),
(1031,0,l),
(1319,0,l),
(1555,189,l),
(1704,1465,l),
(1350,1465,l),
(1278,829,l),
(1255,555,l),
(1235,555,l),
(1148,802,l),
(884,1465,l),
(266,1465,l)
);
}
);
width = 1756;
},
{
layerId = "E1DC4E80-D015-47E5-8658-7F3F0651B68D";
shapes = (
{
closed = 1;
nodes = (
(966,-556,l),
(1346,-411,o),
(1471,-128,o),
(1504,158,cs),
(1519,290,l),
(1161,272,l),
(1139,73,ls),
(1118,-115,o),
(1037,-284,o),
(868,-408,c)
);
},
{
closed = 1;
nodes = (
(119,0,l),
(398,0,l),
(506,946,l),
(522,1177,l),
(542,1177,l),
(623,967,l),
(1112,0,l),
(1326,0,l),
(1504,158,l),
(1656,1465,l),
(1376,1465,l),
(1289,708,l),
(1272,461,l),
(1252,461,l),
(1167,678,l),
(768,1465,l),
(286,1465,l)
);
}
);
width = 1728;
},
{
layerId = "5190A6EC-00FF-4542-AE94-5CA8DCFF9011";
shapes = (
{
closed = 1;
nodes = (
(967,-558,l),
(1261,-412,o),
(1398,-146,o),
(1427,111,cs),
(1443,250,l),
(1232,209,l),
(1217,70,ls),
(1197,-112,o),
(1126,-316,o),
(905,-466,c)
);
},
{
closed = 1;
nodes = (
(149,0,l),
(318,0,l),
(442,1088,l),
(451,1294,l),
(471,1294,l),
(550,1118,l),
(1234,0,l),
(1337,0,l),
(1427,111,l),
(1583,1465,l),
(1414,1465,l),
(1306,526,l),
(1298,319,l),
(1278,319,l),
(1196,491,l),
(593,1465,l),
(316,1465,l)
);
}
);
width = 1687;
},
{
layerId = "1CEA669B-A0BD-449D-9ADA-118AD20DED36";
shapes = (
{
closed = 1;
nodes = (
(968,-560,l),
(1205,-413,o),
(1350,-158,o),
(1376,79,cs),
(1392,223,l),
(1280,167,l),
(1269,68,ls),
(1249,-110,o),
(1186,-338,o),
(929,-505,c)
);
},
{
closed = 1;
nodes = (
(169,0,l),
(264,0,l),
(399,1183,l),
(404,1372,l),
(424,1372,l),
(502,1218,l),
(1315,0,l),
(1345,0,l),
(1376,79,l),
(1535,1465,l),
(1440,1465,l),
(1318,404,l),
(1315,225,l),
(1295,225,l),
(1216,367,l),
(477,1465,l),
(336,1465,l)
);
}
);
width = 1659;
}
);
unicode = 330;
},
{
glyphname = "Enghe-cy";
rightMetricsKey = "=Ge-cy";
layers = (
{
layerId = "853DA88A-72D0-442C-B77F-5E2897338EA9";
shapes = (
{
closed = 1;
nodes = (
(1374,0,l),
(1533,1465,l),
(1087,1465,l),
(926,0,l)
);
},
{
closed = 1;
nodes = (
(496,0,l),
(656,1465,l),
(209,1465,l),
(49,0,l)
);
},
{
closed = 1;
nodes = (
(1236,563,l),
(1272,919,l),
(281,919,l),
(240,563,l)
);
},
{
closed = 1;
nodes = (
(1958,1107,l),
(1998,1465,l),
(1268,1465,l),
(1230,1107,l)
);
}
);
width = 2025;
},
{
layerId = "E1DC4E80-D015-47E5-8658-7F3F0651B68D";
shapes = (
{
closed = 1;
nodes = (
(1314,0,l),
(1475,1465,l),
(1121,1465,l),
(960,0,l)
);
},
{
closed = 1;
nodes = (
(411,0,l),
(572,1465,l),
(218,1465,l),
(57,0,l)
);
},
{
closed = 1;
nodes = (
(1226,600,l),
(1255,883,l),
(260,883,l),
(227,600,l)
);
},
{
closed = 1;
nodes = (
(1936,1180,l),
(1968,1465,l),
(1267,1465,l),
(1237,1180,l)
);
}
);
width = 1992;
},
{
layerId = "5190A6EC-00FF-4542-AE94-5CA8DCFF9011";
shapes = (
{
closed = 1;
nodes = (
(1224,0,l),
(1387,1465,l),
(1172,1465,l),
(1010,0,l)
);
},
{
closed = 1;
nodes = (
(284,0,l),
(447,1465,l),
(232,1465,l),
(70,0,l)
);
},
{
closed = 1;
nodes = (
(1212,655,l),
(1230,828,l),
(228,828,l),
(208,655,l)
);
},
{
closed = 1;
nodes = (
(1903,1290,l),
(1922,1465,l),
(1266,1465,l),
(1247,1290,l)
);
}
);
width = 1942;
},
{
layerId = "1CEA669B-A0BD-449D-9ADA-118AD20DED36";
shapes = (
{
closed = 1;
nodes = (
(1164,0,l),
(1329,1465,l),
(1206,1465,l),
(1044,0,l)
);
},
{
closed = 1;
nodes = (
(200,0,l),
(363,1465,l),
(242,1465,l),
(78,0,l)
);
},
{
closed = 1;
nodes = (
(1202,692,l),
(1213,792,l),
(206,792,l),
(196,692,l)
);
},
{
closed = 1;
nodes = (
(1881,1364,l),
(1892,1465,l),
(1266,1465,l),
(1253,1364,l)
);
}
);
width = 1910;
}
);
leftKerningGroup = "Ge-cy";
unicode = 1188;
},
{
glyphname = "Enhook-cy";
rightMetricsKey = H;
layers = (
{
layerId = "853DA88A-72D0-442C-B77F-5E2897338EA9";
shapes = (
{
closed = 1;
nodes = (
(832,-497,l),
(1209,-414,o),
(1433,-287,o),
(1491,214,c),
(1627,1465,l),
(1161,1465,l),
(1028,219,l),
(991,-115,o),
(917,-184,o),
(763,-268,c)
);
},
{
closed = 1;
nodes = (
(534,0,l),
(691,1465,l),
(226,1465,l),
(67,0,l)
);
},
{
closed = 1;
nodes = (
(1311,563,l),
(1352,919,l),
(298,919,l),
(258,563,l)
);
}
);
width = 1677;
},
{
layerId = "E1DC4E80-D015-47E5-8658-7F3F0651B68D";
shapes = (
{
closed = 1;
nodes = (
(845,-484,l),
(1182,-403,o),
(1383,-272,o),
(1435,182,c),
(1575,1465,l),
(1208,1465,l),
(1071,188,l),
(1035,-132,o),
(952,-217,o),
(786,-298,c)
);
},
{
closed = 1;
nodes = (
(461,0,l),
(620,1465,l),
(254,1465,l),
(93,0,l)
);
},
{
closed = 1;
nodes = (
(1314,600,l),
(1347,883,l),
(295,883,l),
(263,600,l)
);
}
);
width = 1649;
},
{
layerId = "5190A6EC-00FF-4542-AE94-5CA8DCFF9011";
shapes = (
{
closed = 1;
nodes = (
(865,-464,l),
(1141,-386,o),
(1307,-250,o),
(1351,134,c),
(1498,1465,l),
(1279,1465,l),
(1135,142,ls),
(1102,-157,o),
(1005,-266,o),
(821,-344,c)
);
},
{
closed = 1;
nodes = (
(351,0,l),
(514,1465,l),
(295,1465,l),
(132,0,l)
);
},
{
closed = 1;
nodes = (
(1319,655,l),
(1339,828,l),
(290,828,l),
(271,655,l)
);
}
);
width = 1608;
},
{
layerId = "1CEA669B-A0BD-449D-9ADA-118AD20DED36";
shapes = (
{
closed = 1;
nodes = (
(879,-450,l),
(1113,-374,o),
(1257,-236,o),
(1295,102,cs),
(1446,1465,l),
(1327,1465,l),
(1177,111,ls),
(1146,-174,o),
(1041,-298,o),
(845,-374,c)
);
},
{
closed = 1;
nodes = (
(278,0,l),
(443,1465,l),
(323,1465,l),
(158,0,l)
);
},
{
closed = 1;
nodes = (
(1323,692,l),
(1333,792,l),
(287,792,l),
(276,692,l)
);
}
);
width = 1580;
}
);
rightKerningGroup = "Elhook-cy";
unicode = 1223;
},
{
glyphname = "Entail-cy";
layers = (
{
layerId = "853DA88A-72D0-442C-B77F-5E2897338EA9";
shapes = (
{
closed = 1;
nodes = (
(1468,0,l),
(1627,1465,l),
(1163,1465,l),
(1003,0,l)
);
},
{
closed = 1;
nodes = (
(536,0,l),
(692,1465,l),
(226,1465,l),
(67,0,l)
);
},
{
closed = 1;
nodes = (
(1310,563,l),
(1350,919,l),
(299,919,l),
(259,563,l)
);
},
{
closed = 1;
nodes = (
(1579,0,l),
(1745,303,l),
(1368,303,l),
(1400,0,l)
);
},
{
closed = 1;
nodes = (
(1534,-434,l),
(1745,303,l),
(1245,303,l),
(1182,-434,l)
);
}
);
width = 1822;
},
{
layerId = "E1DC4E80-D015-47E5-8658-7F3F0651B68D";
shapes = (
{
closed = 1;
nodes = (
(1415,0,l),
(1576,1465,l),
(1210,1465,l),
(1049,0,l)
);
},
{
closed = 1;
nodes = (
(462,0,l),
(621,1465,l),
(254,1465,l),
(93,0,l)
);
},
{
closed = 1;
nodes = (
(1314,600,l),
(1345,883,l),
(296,883,l),
(264,600,l)
);
},
{
closed = 1;
nodes = (
(1543,0,l),
(1673,245,l),
(1334,245,l),
(1360,0,l)
);
},
{
closed = 1;
nodes = (
(1471,-434,l),
(1673,245,l),
(1279,245,l),
(1192,-434,l)
);
}
);
width = 1784;
},
{
layerId = "5190A6EC-00FF-4542-AE94-5CA8DCFF9011";
shapes = (
{
closed = 1;
nodes = (
(1336,0,l),
(1500,1465,l),
(1280,1465,l),
(1118,0,l)
);
},
{
closed = 1;
nodes = (
(352,0,l),
(514,1465,l),
(295,1465,l),
(132,0,l)
);
},
{
closed = 1;
nodes = (
(1319,655,l),
(1338,828,l),
(291,828,l),
(272,655,l)
);
},
{
closed = 1;
nodes = (
(1488,0,l),
(1564,158,l),
(1283,158,l),
(1301,0,l)
);
},
{
closed = 1;
nodes = (
(1376,-434,l),
(1564,158,l),
(1331,158,l),
(1206,-434,l)
);
}
);
width = 1727;
},
{
layerId = "1CEA669B-A0BD-449D-9ADA-118AD20DED36";
shapes = (
{
closed = 1;
nodes = (
(1284,0,l),
(1449,1465,l),
(1326,1465,l),
(1164,0,l)
);
},
{
closed = 1;
nodes = (
(278,0,l),
(442,1465,l),
(323,1465,l),
(158,0,l)
);
},
{
closed = 1;
nodes = (
(1323,692,l),
(1334,792,l),
(288,792,l),
(277,692,l)
);
},
{
closed = 1;
nodes = (
(1452,0,l),
(1492,100,l),
(1249,100,l),
(1261,0,l)
);
},
{
closed = 1;
nodes = (
(1312,-434,l),
(1492,100,l),
(1365,100,l),
(1216,-434,l)
);
}
);
width = 1689;
}
);
leftKerningGroup = "Iu-cy";
unicode = 1225;
},
{
glyphname = Eogonek;
layers = (
{
layerId = "853DA88A-72D0-442C-B77F-5E2897338EA9";
shapes = (
{
closed = 1;
nodes = (
(1080,0,l),
(1155,262,l),
(589,262,l),
(631,634,l),
(1033,634,l),
(1099,871,l),
(658,871,l),
(697,1203,l),
(1213,1203,l),
(1288,1465,l),
(264,1465,l),
(97,0,l),
(741,0,l),
(632,-77,o),
(581,-163,o),
(581,-246,cs),
(581,-352,o),
(660,-434,o),
(795,-434,cs),
(905,-434,o),
(1024,-381,o),
(1071,-343,c),
(1088,-206,l),
(1060,-220,o),
(1016,-225,o),
(987,-223,c),
(907,-222,o),
(877,-169,o),
(877,-126,cs),
(877,-70,o),
(929,-32,o),
(979,0,c)
);
}
);
width = 1303;
},
{
layerId = "E1DC4E80-D015-47E5-8658-7F3F0651B68D";
shapes = (
{
closed = 1;
nodes = (
(1051,0,l),
(1116,221,l),
(506,221,l),
(555,654,l),
(1008,654,l),
(1067,857,l),
(578,857,l),
(623,1244,l),
(1184,1244,l),
(1249,1465,l),
(287,1465,l),
(120,0,l),
(763,0,l),
(645,-81,o),
(591,-162,o),
(591,-253,cs),
(591,-357,o),
(665,-439,o),
(791,-439,cs),
(887,-439,o),
(992,-394,o),
(1043,-351,c),
(1057,-231,l),
(1024,-248,o),
(976,-258,o),
(943,-259,c),
(863,-261,o),
(829,-212,o),
(829,-164,cs),
(829,-101,o),
(890,-45,o),
(964,0,c)
);
}
);
width = 1272;
},
{
layerId = "5190A6EC-00FF-4542-AE94-5CA8DCFF9011";
shapes = (
{
closed = 1;
nodes = (
(1008,0,l),
(1057,159,l),
(381,159,l),
(440,685,l),
(970,685,l),
(1020,836,l),
(458,836,l),
(513,1306,l),
(1141,1306,l),
(1190,1465,l),
(322,1465,l),
(155,0,l),
(797,0,l),
(664,-86,o),
(605,-161,o),
(605,-264,cs),
(605,-365,o),
(673,-447,o),
(785,-447,cs),
(859,-447,o),
(944,-414,o),
(1001,-364,c),
(1010,-269,l),
(971,-290,o),
(917,-307,o),
(876,-314,c),
(797,-320,o),
(756,-276,o),
(756,-220,cs),
(756,-147,o),
(831,-65,o),
(941,0,c)
);
}
);
width = 1226;
},
{
layerId = "1CEA669B-A0BD-449D-9ADA-118AD20DED36";
shapes = (
{
closed = 1;
nodes = (
(980,0,l),
(1017,117,l),
(297,117,l),
(364,705,l),
(945,705,l),
(988,822,l),
(378,822,l),
(439,1348,l),
(1113,1348,l),
(1150,1465,l),
(346,1465,l),
(179,0,l),
(819,0,l),
(676,-90,o),
(615,-160,o),
(615,-271,cs),
(615,-370,o),
(678,-452,o),
(781,-452,cs),
(841,-452,o),
(912,-427,o),
(973,-372,c),
(978,-295,l),
(935,-318,o),
(877,-339,o),
(832,-350,c),
(753,-359,o),
(708,-318,o),
(708,-258,cs),
(708,-177,o),
(792,-78,o),
(926,0,c)
);
}
);
width = 1195;
}
);
rightKerningGroup = _E_Left;
unicode = 280;
},
{
glyphname = Epsilontonos;
rightMetricsKey = E;
layers = (
{
layerId = "853DA88A-72D0-442C-B77F-5E2897338EA9";
shapes = (
{
closed = 1;
nodes = (
(1642,329,l),
(999,329,l),
(1089,1135,l),
(1627,1135,l),
(1663,1464,l),
(657,1464,l),
(498,0,l),
(1607,0,l)
);
},
{
closed = 1;
nodes = (
(1499,588,l),
(1530,894,l),
(742,894,l),
(708,588,l)
);
},
{
closed = 1;
nodes = (
(532,1464,l),
(86,1464,l),
(-42,873,l),
(297,873,l)
);
}
);
width = 1775;
},
{
layerId = "E1DC4E80-D015-47E5-8658-7F3F0651B68D";
shapes = (
{
closed = 1;
nodes = (
(1488,264,l),
(805,264,l),
(910,1200,l),
(1482,1200,l),
(1511,1464,l),
(570,1464,l),
(410,0,l),
(1460,0,l)
);
},
{
closed = 1;
nodes = (
(1353,618,l),
(1379,865,l),
(621,865,l),
(594,618,l)
);
},
{
closed = 1;
nodes = (
(443,1464,l),
(91,1464,l),
(-39,880,l),
(227,880,l)
);
}
);
width = 1638;
},
{
layerId = "5190A6EC-00FF-4542-AE94-5CA8DCFF9011";
shapes = (
{
closed = 1;
nodes = (
(1258,166,l),
(515,166,l),
(641,1298,l),
(1265,1298,l),
(1282,1464,l),
(440,1464,l),
(277,0,l),
(1240,0,l)
);
},
{
closed = 1;
nodes = (
(1135,662,l),
(1152,821,l),
(440,821,l),
(422,662,l)
);
},
{
closed = 1;
nodes = (
(309,1464,l),
(98,1464,l),
(-35,891,l),
(121,891,l)
);
}
);
width = 1429;
},
{
layerId = "1CEA669B-A0BD-449D-9ADA-118AD20DED36";
shapes = (
{
closed = 1;
nodes = (
(1104,100,l),
(321,100,l),
(462,1364,l),
(1121,1364,l),
(1130,1464,l),
(353,1464,l),
(189,0,l),
(1093,0,l)
);
},
{
closed = 1;
nodes = (
(989,692,l),
(1000,792,l),
(319,792,l),
(308,692,l)
);
},
{
closed = 1;
nodes = (
(220,1464,l),
(102,1464,l),
(-33,899,l),
(51,899,l)
);
}
);
width = 1289;
}
);
unicode = 904;
},
{
color = 10;
glyphname = "Ereversed-cy";
rightMetricsKey = "=|E-cy";
layers = (
{
anchors = (
{
name = bottom;
position = "{526, 0}";
},
{
name = top;
position = "{677, 1465}";
}
);
layerId = "853DA88A-72D0-442C-B77F-5E2897338EA9";
shapes = (
{
closed = 1;
nodes = (
(969,-41,o),
(1302,249,o),
(1356,710,cs),
(1415,1199,o),
(1137,1505,o),
(631,1505,cs),
(456,1505,o),
(279,1470,o),
(143,1388,c),
(263,1082,l),
(312,1132,o),
(392,1188,o),
(524,1188,cs),
(746,1188,o),
(913,1008,o),
(877,663,c),
(847,409,o),
(718,273,o),
(516,273,cs),
(390,273,o),
(275,326,o),
(176,420,c),
(-6,104,l),
(126,-2,o),
(314,-41,o),
(491,-41,cs)
);
},
{
closed = 1;
nodes = (
(951,616,l),
(1007,884,l),
(364,914,l),
(294,569,l)
);
}
);
width = 1485;
},
{
anchors = (
{
name = bottom;
position = "{516, 0}";
},
{
name = top;
position = "{667, 1465}";
}
);
layerId = "E1DC4E80-D015-47E5-8658-7F3F0651B68D";
shapes = (
{
closed = 1;
nodes = (
(948,-34,o),
(1272,252,o),
(1326,704,c),
(1386,1186,o),
(1111,1498,o),
(625,1498,cs),
(452,1498,o),
(282,1464,o),
(137,1372,c),
(239,1127,l),
(312,1193,o),
(404,1246,o),
(545,1246,cs),
(805,1246,o),
(986,1035,o),
(947,671,c),
(914,384,o),
(755,217,o),
(518,217,cs),
(383,217,o),
(255,270,o),
(154,367,c),
(5,115,l),
(134,11,o),
(316,-34,o),
(495,-34,cs)
);
},
{
closed = 1;
nodes = (
(1004,640,l),
(1048,857,l),
(371,880,l),
(317,604,l)
);
}
);
width = 1479;
},
{
anchors = (
{
name = bottom;
position = "{500, 0}";
},
{
name = top;
position = "{653, 1465}";
}
);
layerId = "5190A6EC-00FF-4542-AE94-5CA8DCFF9011";
shapes = (
{
closed = 1;
nodes = (
(916,-24,o),
(1226,257,o),
(1280,696,c),
(1342,1167,o),
(1072,1488,o),
(616,1488,cs),
(445,1488,o),
(286,1455,o),
(129,1349,c),
(203,1194,l),
(311,1284,o),
(423,1333,o),
(576,1333,cs),
(894,1333,o),
(1096,1075,o),
(1053,684,cs),
(1014,347,o),
(810,132,o),
(522,132,cs),
(372,132,o),
(226,187,o),
(120,287,c),
(22,131,l),
(145,30,o),
(319,-24,o),
(501,-24,cs)
);
},
{
closed = 1;
nodes = (
(1084,675,l),
(1110,816,l),
(382,828,l),
(351,656,l)
);
}
);
width = 1471;
},
{
anchors = (
{
name = bottom;
position = "{490, 0}";
},
{
name = top;
position = "{643, 1465}";
}
);
layerId = "1CEA669B-A0BD-449D-9ADA-118AD20DED36";
shapes = (
{
closed = 1;
nodes = (
(894,-17,o),
(1196,261,o),
(1250,690,c),
(1312,1155,o),
(1046,1482,o),
(610,1482,cs),
(441,1482,o),
(288,1449,o),
(123,1333,c),
(179,1238,l),
(311,1344,o),
(435,1391,o),
(597,1391,cs),
(953,1391,o),
(1170,1102,o),
(1123,692,cs),
(1081,323,o),
(847,76,o),
(524,76,cs),
(364,76,o),
(206,131,o),
(98,234,c),
(34,142,l),
(153,42,o),
(321,-17,o),
(505,-17,cs)
);
},
{
closed = 1;
nodes = (
(1138,699,l),
(1152,788,l),
(390,794,l),
(373,690,l)
);
}
);
width = 1467;
}
);
leftKerningGroup = "Edieresis-cy";
rightKerningGroup = "Edieresis-cy1";
unicode = 1069;
},
{
color = 8;
glyphname = "Ertick-cy";
layers = (
{
layerId = "853DA88A-72D0-442C-B77F-5E2897338EA9";
shapes = (
{
closed = 1;
nodes = (
(990,147,l),
(1219,262,l),
(866,1014,l),
(638,899,l)
);
},
{
alignment = -1;
ref = P;
}
);
width = 1476;
},
{
layerId = "E1DC4E80-D015-47E5-8658-7F3F0651B68D";
shapes = (
{
closed = 1;
nodes = (
(967,169,l),
(1155,259,l),
(804,1007,l),
(617,917,l)
);
},
{
alignment = -1;
ref = P;
}
);
width = 1417;
},
{
layerId = "5190A6EC-00FF-4542-AE94-5CA8DCFF9011";
shapes = (
{
closed = 1;
nodes = (
(933,201,l),
(1058,255,l),
(712,997,l),
(586,944,l)
);
},
{
alignment = -1;
ref = P;
}
);
width = 1328;
},
{
layerId = "1CEA669B-A0BD-449D-9ADA-118AD20DED36";
shapes = (
{
closed = 1;
nodes = (
(911,223,l),
(994,253,l),
(650,990,l),
(565,962,l)
);
},
{
alignment = -1;
ref = P;
}
);
width = 1268;
}
);
leftKerningGroup = "Ge-cy";
unicode = 1166;
},
{
glyphname = "Esdescender-cy";
layers = (
{
anchors = (
{
name = _bottom;
position = "{766, 0}";
}
);
layerId = "853DA88A-72D0-442C-B77F-5E2897338EA9";
shapes = (
{
closed = 1;
nodes = (
(976,-41,o),
(1193,-1,o),
(1374,108,c),
(1248,411,l),
(1182,348,o),
(1061,292,o),
(937,292,cs),
(668,292,o),
(583,566,o),
(610,820,c),
(639,1052,o),
(743,1191,o),
(907,1191,cs),
(1022,1191,o),
(1136,1122,o),
(1263,992,c),
(1430,1382,l),
(1287,1471,o),
(1087,1505,o),
(920,1505,cs),
(478,1505,o),
(142,1250,o),
(86,803,cs),
(28,332,o),
(289,-41,o),
(813,-41,cs)
);
},
{
closed = 1;
nodes = (
(890,-434,l),
(984,86,l),
(565,86,l),
(552,-434,l)
);
}
);
width = 1468;
},
{
anchors = (
{
name = _bottom;
position = "{756, 0}";
}
);
layerId = "E1DC4E80-D015-47E5-8658-7F3F0651B68D";
shapes = (
{
closed = 1;
nodes = (
(959,-34,o),
(1157,10,o),
(1335,122,c),
(1225,363,l),
(1142,287,o),
(1021,230,o),
(886,230,cs),
(591,230,o),
(468,512,o),
(500,807,c),
(531,1077,o),
(669,1248,o),
(878,1248,cs),
(1003,1248,o),
(1124,1184,o),
(1248,1063,c),
(1388,1369,l),
(1249,1460,o),
(1063,1498,o),
(896,1498,cs),
(469,1498,o),
(144,1237,o),
(89,795,cs),
(31,329,o),
(292,-34,o),
(794,-34,cs)
);
},
{
closed = 1;
nodes = (
(844,-434,l),
(929,69,l),
(597,69,l),
(577,-434,l)
);
}
);
width = 1445;
},
{
anchors = (
{
name = _bottom;
position = "{740, 0}";
}
);
layerId = "5190A6EC-00FF-4542-AE94-5CA8DCFF9011";
shapes = (
{
closed = 1;
nodes = (
(934,-24,o),
(1104,26,o),
(1276,144,c),
(1191,290,l),
(1082,196,o),
(960,136,o),
(810,136,cs),
(475,136,o),
(295,432,o),
(334,787,c),
(370,1114,o),
(559,1333,o),
(835,1333,cs),
(974,1333,o),
(1106,1276,o),
(1226,1170,c),
(1325,1350,l),
(1193,1443,o),
(1026,1488,o),
(861,1488,cs),
(456,1488,o),
(148,1218,o),
(94,783,c),
(35,325,o),
(297,-24,o),
(765,-24,cs)
);
},
{
closed = 1;
nodes = (
(775,-434,l),
(847,44,l),
(644,44,l),
(614,-434,l)
);
}
);
width = 1411;
},
{
anchors = (
{
name = _bottom;
position = "{730, 0}";
}
);
layerId = "1CEA669B-A0BD-449D-9ADA-118AD20DED36";
shapes = (
{
closed = 1;
nodes = (
(917,-17,o),
(1068,36,o),
(1237,158,c),
(1169,242,l),
(1042,136,o),
(920,74,o),
(760,74,cs),
(397,74,o),
(179,378,o),
(224,773,c),
(262,1138,o),
(485,1389,o),
(807,1389,cs),
(954,1389,o),
(1094,1338,o),
(1212,1242,c),
(1283,1338,l),
(1155,1431,o),
(1002,1482,o),
(837,1482,cs),
(448,1482,o),
(150,1206,o),
(97,775,cs),
(37,323,o),
(301,-17,o),
(745,-17,cs)
);
},
{
closed = 1;
nodes = (
(729,-434,l),
(792,27,l),
(676,27,l),
(638,-434,l)
);
}
);
width = 1389;
}
);
leftKerningGroup = "E-cy";
unicode = 1194;
},
{
glyphname = Etatonos;
rightMetricsKey = Eta;
layers = (
{
layerId = "853DA88A-72D0-442C-B77F-5E2897338EA9";
shapes = (
{
closed = 1;
nodes = (
(1935,0,l),
(2095,1464,l),
(1629,1464,l),
(1470,0,l)
);
},
{
closed = 1;
nodes = (
(1003,0,l),
(1158,1464,l),
(693,1464,l),
(534,0,l)
);
},
{
closed = 1;
nodes = (
(1777,563,l),
(1816,919,l),
(765,919,l),
(726,563,l)
);
},
{
closed = 1;
nodes = (
(535,1464,l),
(89,1464,l),
(-39,873,l),
(300,873,l)
);
}
);
width = 2145;
},
{
layerId = "E1DC4E80-D015-47E5-8658-7F3F0651B68D";
shapes = (
{
closed = 1;
nodes = (
(1781,0,l),
(1942,1464,l),
(1574,1464,l),
(1414,0,l)
);
},
{
closed = 1;
nodes = (
(828,0,l),
(985,1464,l),
(619,1464,l),
(458,0,l)
);
},
{
closed = 1;
nodes = (
(1679,600,l),
(1710,883,l),
(660,883,l),
(629,600,l)
);
},
{
closed = 1;
nodes = (
(439,1464,l),
(87,1464,l),
(-43,880,l),
(223,880,l)
);
}
);
width = 2016;
},
{
layerId = "5190A6EC-00FF-4542-AE94-5CA8DCFF9011";
shapes = (
{
closed = 1;
nodes = (
(1549,0,l),
(1712,1464,l),
(1492,1464,l),
(1331,0,l)
);
},
{
closed = 1;
nodes = (
(565,0,l),
(726,1464,l),
(507,1464,l),
(345,0,l)
);
},
{
closed = 1;
nodes = (
(1532,655,l),
(1551,828,l),
(503,828,l),
(484,655,l)
);
},
{
closed = 1;
nodes = (
(296,1464,l),
(84,1464,l),
(-49,891,l),
(108,891,l)
);
}
);
width = 1822;
},
{
layerId = "1CEA669B-A0BD-449D-9ADA-118AD20DED36";
shapes = (
{
closed = 1;
nodes = (
(1395,0,l),
(1559,1464,l),
(1437,1464,l),
(1275,0,l)
);
},
{
closed = 1;
nodes = (
(389,0,l),
(554,1464,l),
(433,1464,l),
(269,0,l)
);
},
{
closed = 1;
nodes = (
(1434,692,l),
(1445,792,l),
(399,792,l),
(388,692,l)
);
},
{
closed = 1;
nodes = (
(200,1464,l),
(82,1464,l),
(-53,899,l),
(31,899,l)
);
}
);
width = 1693;
}
);
rightKerningGroup = Pi1;
unicode = 905;
},
{
glyphname = Eth;
layers = (
{
layerId = "853DA88A-72D0-442C-B77F-5E2897338EA9";
shapes = (
{
closed = 1;
nodes = (
(82,878,l),
(50,590,l),
(189,590,l),
(121,0,l),
(330,0,o),
(490,-1,o),
(699,-1,cs),
(1404,-1,o),
(1645,476,o),
(1645,852,cs),
(1645,1236,o),
(1389,1465,o),
(917,1465,cs),
(288,1465,l),
(221,878,l)
);
},
{
closed = 1;
nodes = (
(721,1203,l),
(860,1203,ls),
(1065,1203,o),
(1167,1096,o),
(1167,827,cs),
(1167,529,o),
(1041,262,o),
(769,262,cs),
(613,262,l),
(651,590,l),
(908,590,l),
(941,878,l),
(684,878,l)
);
}
);
width = 1696;
},
{
layerId = "E1DC4E80-D015-47E5-8658-7F3F0651B68D";
shapes = (
{
closed = 1;
nodes = (
(74,848,l),
(49,619,l),
(207,619,l),
(136,0,l),
(287,0,o),
(516,-1,o),
(667,-1,cs),
(1336,-1,o),
(1601,466,o),
(1601,847,cs),
(1601,1215,o),
(1354,1465,o),
(880,1465,cs),
(303,1465,l),
(232,848,l)
);
},
{
closed = 1;
nodes = (
(639,1244,l),
(826,1244,ls),
(1091,1244,o),
(1227,1109,o),
(1227,822,cs),
(1227,508,o),
(1063,221,o),
(728,221,cs),
(521,221,l),
(567,619,l),
(874,619,l),
(900,848,l),
(593,848,l)
);
}
);
width = 1678;
},
{
layerId = "5190A6EC-00FF-4542-AE94-5CA8DCFF9011";
shapes = (
{
closed = 1;
nodes = (
(63,803,l),
(47,663,l),
(234,663,l),
(159,0,l),
(222,0,o),
(555,0,o),
(618,0,cs),
(1233,0,o),
(1535,452,o),
(1535,840,cs),
(1535,1183,o),
(1302,1465,o),
(825,1465,cs),
(326,1465,l),
(249,803,l)
);
},
{
closed = 1;
nodes = (
(516,1306,l),
(776,1306,ls),
(1130,1306,o),
(1317,1128,o),
(1317,815,cs),
(1317,476,o),
(1095,159,o),
(667,159,cs),
(384,159,l),
(441,663,l),
(823,663,l),
(838,803,l),
(457,803,l)
);
}
);
width = 1651;
},
{
layerId = "1CEA669B-A0BD-449D-9ADA-118AD20DED36";
shapes = (
{
closed = 1;
nodes = (
(55,773,l),
(45,692,l),
(252,692,l),
(174,0,l),
(179,0,o),
(581,0,o),
(586,0,cs),
(1165,0,o),
(1491,442,o),
(1491,835,cs),
(1491,1162,o),
(1267,1465,o),
(789,1465,cs),
(341,1465,l),
(261,773,l)
);
},
{
closed = 1;
nodes = (
(434,1348,l),
(742,1348,ls),
(1156,1348,o),
(1377,1140,o),
(1377,810,cs),
(1377,454,o),
(1117,117,o),
(626,117,cs),
(292,117,l),
(357,692,l),
(789,692,l),
(797,773,l),
(367,773,l)
);
}
);
width = 1633;
}
);
rightKerningGroup = _D_Left;
unicode = 208;
},
{
glyphname = F;
layers = (
{
layerId = "853DA88A-72D0-442C-B77F-5E2897338EA9";
shapes = (
{
closed = 1;
nodes = (
(559,0,l),
(631,634,l),
(1033,634,l),
(1099,871,l),
(658,871,l),
(697,1203,l),
(1213,1203,l),
(1288,1465,l),
(264,1465,l),
(97,0,l)
);
}
);
width = 1268;
},
{
layerId = "E1DC4E80-D015-47E5-8658-7F3F0651B68D";
shapes = (
{
closed = 1;
nodes = (
(480,0,l),
(555,654,l),
(1008,654,l),
(1067,857,l),
(578,857,l),
(623,1244,l),
(1184,1244,l),
(1249,1465,l),
(287,1465,l),
(120,0,l)
);
}
);
width = 1234;
},
{
layerId = "5190A6EC-00FF-4542-AE94-5CA8DCFF9011";
shapes = (
{
closed = 1;
nodes = (
(362,0,l),
(440,685,l),
(970,685,l),
(1020,836,l),
(458,836,l),
(513,1306,l),
(1141,1306,l),
(1190,1465,l),
(322,1465,l),
(155,0,l)
);
}
);
width = 1183;
},
{
layerId = "1CEA669B-A0BD-449D-9ADA-118AD20DED36";
shapes = (
{
closed = 1;
nodes = (
(284,0,l),
(364,705,l),
(945,705,l),
(988,822,l),
(378,822,l),
(439,1348,l),
(1113,1348,l),
(1150,1465,l),
(346,1465,l),
(179,0,l)
);
}
);
width = 1149;
}
);
unicode = 70;
},
{
glyphname = "Fita-cy";
leftMetricsKey = O;
rightMetricsKey = O;
layers = (
{
layerId = "853DA88A-72D0-442C-B77F-5E2897338EA9";
shapes = (
{
closed = 1;
nodes = (
(726,530,l),
(748,569,o),
(783,593,o),
(829,593,cs),
(902,593,o),
(963,540,o),
(1053,540,cs),
(1191,540,o),
(1261,657,o),
(1323,889,c),
(1139,948,l),
(1115,897,o),
(1072,880,o),
(1034,880,cs),
(965,880,o),
(895,932,o),
(811,932,cs),
(673,932,o),
(596,791,o),
(546,591,c)
);
},
{
closed = 1;
nodes = (
(1377,-41,o),
(1717,268,o),
(1766,703,cs),
(1818,1169,o),
(1515,1505,o),
(993,1505,cs),
(494,1505,o),
(157,1196,o),
(109,759,c),
(56,298,o),
(357,-41,o),
(878,-41,cs)
);
},
{
closed = 1;
nodes = (
(661,265,o),
(500,496,o),
(545,832,cs),
(573,1034,o),
(686,1193,o),
(923,1193,cs),
(1224,1193,o),
(1381,961,o),
(1326,623,c),
(1283,391,o),
(1168,265,o),
(956,265,cs)
);
}
);
width = 1828;
},
{
layerId = "E1DC4E80-D015-47E5-8658-7F3F0651B68D";
shapes = (
{
closed = 1;
nodes = (
(663,555,l),
(692,604,o),
(736,632,o),
(792,632,cs),
(882,632,o),
(952,568,o),
(1058,568,cs),
(1193,568,o),
(1265,672,o),
(1326,872,c),
(1176,922,l),
(1145,865,o),
(1097,840,o),
(1045,840,cs),
(958,840,o),
(877,903,o),
(778,903,cs),
(647,903,o),
(567,781,o),
(516,606,c)
);
},
{
closed = 1;
nodes = (
(1352,-34,o),
(1666,281,o),
(1712,696,cs),
(1761,1141,o),
(1483,1498,o),
(971,1498,cs),
(488,1498,o),
(178,1181,o),
(133,767,c),
(84,322,o),
(361,-34,o),
(871,-34,cs)
);
},
{
closed = 1;
nodes = (
(604,211,o),
(440,484,o),
(482,824,cs),
(511,1054,o),
(647,1249,o),
(917,1249,cs),
(1248,1249,o),
(1410,974,o),
(1360,634,c),
(1320,382,o),
(1183,211,o),
(930,211,cs)
);
}
);
width = 1800;
},
{
layerId = "5190A6EC-00FF-4542-AE94-5CA8DCFF9011";
shapes = (
{
closed = 1;
nodes = (
(567,593,l),
(607,656,o),
(665,690,o),
(735,690,cs),
(851,690,o),
(935,609,o),
(1064,609,cs),
(1194,609,o),
(1271,695,o),
(1329,847,c),
(1230,882,l),
(1189,816,o),
(1133,779,o),
(1061,779,cs),
(946,779,o),
(849,859,o),
(728,859,cs),
(608,859,o),
(523,766,o),
(470,629,c)
);
},
{
closed = 1;
nodes = (
(1313,-24,o),
(1589,300,o),
(1629,685,c),
(1674,1098,o),
(1434,1488,o),
(936,1488,cs),
(478,1488,o),
(209,1159,o),
(169,778,cs),
(125,359,o),
(366,-24,o),
(859,-24,cs)
);
},
{
closed = 1;
nodes = (
(517,130,o),
(349,466,o),
(387,811,cs),
(417,1084,o),
(588,1333,o),
(907,1333,cs),
(1284,1333,o),
(1452,994,o),
(1410,650,cs),
(1375,369,o),
(1204,130,o),
(891,130,cs)
);
}
);
width = 1754;
},
{
layerId = "1CEA669B-A0BD-449D-9ADA-118AD20DED36";
shapes = (
{
closed = 1;
nodes = (
(505,618,l),
(552,690,o),
(619,728,o),
(699,728,cs),
(832,728,o),
(926,637,o),
(1070,637,cs),
(1197,637,o),
(1276,710,o),
(1333,830,c),
(1267,856,l),
(1220,784,o),
(1159,739,o),
(1074,739,cs),
(940,739,o),
(832,830,o),
(696,830,cs),
(583,830,o),
(496,756,o),
(441,645,c)
);
},
{
closed = 1;
nodes = (
(1289,-17,o),
(1539,312,o),
(1576,677,cs),
(1618,1070,o),
(1403,1482,o),
(915,1482,cs),
(473,1482,o),
(231,1144,o),
(194,786,c),
(154,383,o),
(371,-17,o),
(853,-17,cs)
);
},
{
closed = 1;
nodes = (
(461,76,o),
(290,454,o),
(325,803,c),
(356,1104,o),
(550,1389,o),
(902,1389,cs),
(1309,1389,o),
(1482,1008,o),
(1445,661,cs),
(1414,361,o),
(1220,76,o),
(866,76,cs)
);
}
);
width = 1726;
}
);
unicode = 1138;
},
{
glyphname = G;
layers = (
{
layerId = "853DA88A-72D0-442C-B77F-5E2897338EA9";
shapes = (
{
closed = 1;
nodes = (
(859,585,l),
(1029,585,l),
(994,250,l),
(982,244,o),
(918,242,o),
(892,242,cs),
(699,242,o),
(582,402,o),
(582,676,cs),
(582,1021,o),
(769,1223,o),
(1050,1223,cs),
(1142,1223,o),
(1262,1202,o),
(1362,1149,c),
(1383,1157,l),
(1479,1441,l),
(1353,1474,o),
(1174,1485,o),
(1078,1485,cs),
(596,1485,o),
(96,1190,o),
(96,597,cs),
(96,218,o),
(298,-20,o),
(803,-20,cs),
(996,-20,o),
(1177,15,o),
(1380,86,c),
(1461,860,l),
(888,860,l)
);
}
);
width = 1564;
},
{
layerId = "E1DC4E80-D015-47E5-8658-7F3F0651B68D";
shapes = (
{
closed = 1;
nodes = (
(817,613,l),
(1100,613,l),
(1059,223,l),
(1012,207,o),
(933,201,o),
(886,201,cs),
(640,201,o),
(501,388,o),
(501,671,cs),
(501,1024,o),
(717,1264,o),
(1041,1264,cs),
(1125,1264,o),
(1250,1248,o),
(1365,1189,c),
(1386,1198,l),
(1464,1430,l),
(1340,1470,o),
(1169,1485,o),
(1066,1485,cs),
(594,1485,o),
(122,1171,o),
(122,613,cs),
(122,221,o),
(336,-20,o),
(814,-20,cs),
(981,-20,o),
(1164,11,o),
(1362,82,c),
(1442,839,l),
(841,839,l)
);
}
);
width = 1571;
},
{
layerId = "5190A6EC-00FF-4542-AE94-5CA8DCFF9011";
shapes = (
{
closed = 1;
nodes = (
(754,656,l),
(1207,656,l),
(1157,182,l),
(1058,151,o),
(956,139,o),
(878,139,cs),
(551,139,o),
(380,367,o),
(380,664,cs),
(380,1029,o),
(639,1326,o),
(1027,1326,cs),
(1099,1326,o),
(1231,1317,o),
(1370,1250,c),
(1391,1260,l),
(1441,1413,l),
(1320,1464,o),
(1161,1485,o),
(1047,1485,cs),
(592,1485,o),
(160,1142,o),
(160,636,cs),
(160,225,o),
(392,-20,o),
(830,-20,cs),
(958,-20,o),
(1144,4,o),
(1336,75,c),
(1413,808,l),
(770,808,l)
);
}
);
width = 1581;
},
{
layerId = "1CEA669B-A0BD-449D-9ADA-118AD20DED36";
shapes = (
{
closed = 1;
nodes = (
(712,684,l),
(1279,684,l),
(1223,155,l),
(1088,114,o),
(971,97,o),
(872,97,cs),
(491,97,o),
(299,353,o),
(299,659,cs),
(299,1033,o),
(587,1368,o),
(1018,1368,cs),
(1081,1368,o),
(1219,1363,o),
(1373,1290,c),
(1395,1302,l),
(1425,1402,l),
(1306,1460,o),
(1155,1485,o),
(1035,1485,cs),
(590,1485,o),
(186,1123,o),
(186,652,cs),
(186,228,o),
(430,-20,o),
(840,-20,cs),
(942,-20,o),
(1130,0,o),
(1318,71,c),
(1393,787,l),
(723,787,l)
);
}
);
width = 1587;
}
);
leftKerningGroup = _C_Right;
rightKerningGroup = _G_Left;
unicode = 71;
},
{
glyphname = Gamma;
layers = (
{
anchors = (
{
name = bottomright;
position = "{530, 0}";
},
{
name = top;
position = "{707, 1465}";
}
);
layerId = "853DA88A-72D0-442C-B77F-5E2897338EA9";
shapes = (
{
closed = 1;
nodes = (
(530,0,l),
(692,1464,l),
(226,1464,l),
(67,0,l)
);
},
{
closed = 1;
nodes = (
(1137,1107,l),
(1177,1464,l),
(464,1464,l),
(424,1107,l)
);
}
);
width = 1202;
},
{
anchors = (
{
name = bottomright;
position = "{459, 0}";
},
{
name = top;
position = "{717, 1465}";
}
);
layerId = "E1DC4E80-D015-47E5-8658-7F3F0651B68D";
shapes = (
{
closed = 1;
nodes = (
(459,0,l),
(621,1464,l),
(254,1464,l),
(93,0,l)
);
},
{
closed = 1;
nodes = (
(1134,1180,l),
(1166,1464,l),
(439,1464,l),
(408,1180,l)
);
}
);
width = 1189;
},
{
anchors = (
{
name = bottomright;
position = "{352, 0}";
},
{
name = top;
position = "{731, 1465}";
}
);
layerId = "5190A6EC-00FF-4542-AE94-5CA8DCFF9011";
shapes = (
{
closed = 1;
nodes = (
(352,0,l),
(515,1464,l),
(295,1464,l),
(132,0,l)
);
},
{
closed = 1;
nodes = (
(1129,1290,l),
(1149,1464,l),
(402,1464,l),
(383,1290,l)
);
}
);
width = 1169;
},
{
anchors = (
{
name = bottomright;
position = "{280, 0}";
},
{
name = top;
position = "{741, 1465}";
}
);
layerId = "1CEA669B-A0BD-449D-9ADA-118AD20DED36";
shapes = (
{
closed = 1;
nodes = (
(280,0,l),
(445,1464,l),
(323,1464,l),
(158,0,l)
);
},
{
closed = 1;
nodes = (
(1126,1364,l),
(1137,1464,l),
(378,1464,l),
(367,1364,l)
);
}
);
width = 1155;
}
);
leftKerningGroup = Pi;
unicode = 915;
},
{
color = 10;
glyphname = "Ge-cy";
leftMetricsKey = H;
layers = (
{
anchors = (
{
name = bottomright;
position = "{638, 0}";
},
{
name = top;
position = "{737, 1465}";
}
);
layerId = "853DA88A-72D0-442C-B77F-5E2897338EA9";
shapes = (
{
closed = 1;
nodes = (
(560,0,l),
(721,1465,l),
(256,1465,l),
(97,0,l)
);
},
{
closed = 1;
nodes = (
(1167,1107,l),
(1205,1465,l),
(493,1465,l),
(454,1107,l)
);
}
);
width = 1232;
},
{
anchors = (
{
name = bottomright;
position = "{542, 0}";
},
{
name = top;
position = "{744, 1465}";
}
);
layerId = "E1DC4E80-D015-47E5-8658-7F3F0651B68D";
shapes = (
{
closed = 1;
nodes = (
(486,0,l),
(648,1465,l),
(281,1465,l),
(120,0,l)
);
},
{
closed = 1;
nodes = (
(1161,1180,l),
(1192,1465,l),
(466,1465,l),
(435,1180,l)
);
}
);
width = 1216;
},
{
anchors = (
{
name = bottomright;
position = "{397, 0}";
},
{
name = top;
position = "{755, 1465}";
}
);
layerId = "5190A6EC-00FF-4542-AE94-5CA8DCFF9011";
shapes = (
{
closed = 1;
nodes = (
(375,0,l),
(538,1465,l),
(319,1465,l),
(155,0,l)
);
},
{
closed = 1;
nodes = (
(1152,1290,l),
(1172,1465,l),
(426,1465,l),
(406,1290,l)
);
}
);
width = 1192;
},
{
anchors = (
{
name = bottomright;
position = "{301, 0}";
},
{
name = top;
position = "{762, 1465}";
}
);
layerId = "1CEA669B-A0BD-449D-9ADA-118AD20DED36";
shapes = (
{
closed = 1;
nodes = (
(301,0,l),
(465,1465,l),
(344,1465,l),
(179,0,l)
);
},
{
closed = 1;
nodes = (
(1146,1364,l),
(1158,1465,l),
(399,1465,l),
(387,1364,l)
);
}
);
width = 1176;
}
);
leftKerningGroup = "Ge-cy";
rightKerningGroup = "Ge-cy1";
unicode = 1043;
},
{
glyphname = "Gedescender-cy";
leftMetricsKey = "=Ge-cy";
rightMetricsKey = "=Ge-cy";
layers = (
{
anchors = (
{
name = top;
position = "{738, 1465}";
}
);
layerId = "853DA88A-72D0-442C-B77F-5E2897338EA9";
shapes = (
{
closed = 1;
nodes = (
(560,0,l),
(721,1465,l),
(256,1465,l),
(97,0,l)
);
},
{
closed = 1;
nodes = (
(1166,1107,l),
(1205,1465,l),
(493,1465,l),
(454,1107,l)
);
},
{
closed = 1;
nodes = (
(697,0,l),
(930,388,l),
(611,388,l),
(573,0,l)
);
},
{
closed = 1;
nodes = (
(801,-434,l),
(930,388,l),
(503,388,l),
(463,-434,l)
);
}
);
width = 1232;
},
{
anchors = (
{
name = top;
position = "{745, 1465}";
}
);
layerId = "E1DC4E80-D015-47E5-8658-7F3F0651B68D";
shapes = (
{
closed = 1;
nodes = (
(486,0,l),
(648,1465,l),
(281,1465,l),
(120,0,l)
);
},
{
closed = 1;
nodes = (
(1160,1180,l),
(1192,1465,l),
(466,1465,l),
(435,1180,l)
);
},
{
closed = 1;
nodes = (
(644,0,l),
(828,306,l),
(518,306,l),
(488,0,l)
);
},
{
closed = 1;
nodes = (
(714,-434,l),
(827,306,l),
(489,306,l),
(448,-434,l)
);
}
);
width = 1216;
},
{
anchors = (
{
name = top;
position = "{755, 1465}";
}
);
layerId = "5190A6EC-00FF-4542-AE94-5CA8DCFF9011";
shapes = (
{
closed = 1;
nodes = (
(375,0,l),
(538,1465,l),
(319,1465,l),
(155,0,l)
);
},
{
closed = 1;
nodes = (
(1152,1290,l),
(1172,1465,l),
(426,1465,l),
(406,1290,l)
);
},
{
closed = 1;
nodes = (
(564,0,l),
(674,182,l),
(379,182,l),
(361,0,l)
);
},
{
closed = 1;
nodes = (
(584,-434,l),
(673,182,l),
(468,182,l),
(426,-434,l)
);
}
);
width = 1192;
},
{
anchors = (
{
name = top;
position = "{762, 1465}";
}
);
layerId = "1CEA669B-A0BD-449D-9ADA-118AD20DED36";
shapes = (
{
closed = 1;
nodes = (
(301,0,l),
(465,1465,l),
(344,1465,l),
(179,0,l)
);
},
{
closed = 1;
nodes = (
(1146,1364,l),
(1158,1465,l),
(399,1465,l),
(387,1364,l)
);
},
{
closed = 1;
nodes = (
(511,0,l),
(572,100,l),
(286,100,l),
(277,0,l)
);
},
{
closed = 1;
nodes = (
(498,-434,l),
(570,100,l),
(454,100,l),
(412,-434,l)
);
}
);
width = 1176;
}
);
unicode = 1270;
},
{
color = 8;
glyphname = "Gestrokehook-cy";
rightMetricsKey = "=Ge-cy";
layers = (
{
layerId = "853DA88A-72D0-442C-B77F-5E2897338EA9";
shapes = (
{
closed = 1;
nodes = (
(588,0,l),
(748,1465,l),
(283,1465,l),
(124,0,l)
);
},
{
closed = 1;
nodes = (
(1248,1107,l),
(1286,1465,l),
(522,1465,l),
(482,1107,l)
);
},
{
closed = 1;
nodes = (
(911,543,l),
(947,827,l),
(26,827,l),
(-7,543,l)
);
},
{
closed = 1;
nodes = (
(183,-500,l),
(604,-500,o),
(822,-373,o),
(857,0,cs),
(880,245,l),
(412,245,l),
(385,0,l),
(473,0,l),
(458,-146,o),
(437,-263,o),
(207,-263,c)
);
}
);
width = 1313;
},
{
layerId = "E1DC4E80-D015-47E5-8658-7F3F0651B68D";
shapes = (
{
closed = 1;
nodes = (
(504,0,l),
(665,1465,l),
(298,1465,l),
(138,0,l)
);
},
{
closed = 1;
nodes = (
(1223,1180,l),
(1254,1465,l),
(485,1465,l),
(453,1180,l)
);
},
{
closed = 1;
nodes = (
(855,588,l),
(883,816,l),
(37,816,l),
(12,588,l)
);
},
{
closed = 1;
nodes = (
(182,-487,l),
(557,-487,o),
(755,-357,o),
(788,0,cs),
(807,200,l),
(366,200,l),
(344,0,l),
(482,0,l),
(463,-174,o),
(424,-297,o),
(201,-297,c)
);
}
);
width = 1278;
},
{
layerId = "5190A6EC-00FF-4542-AE94-5CA8DCFF9011";
shapes = (
{
closed = 1;
nodes = (
(377,0,l),
(541,1465,l),
(321,1465,l),
(158,0,l)
);
},
{
closed = 1;
nodes = (
(1186,1290,l),
(1207,1465,l),
(429,1465,l),
(409,1290,l)
);
},
{
closed = 1;
nodes = (
(770,655,l),
(788,800,l),
(54,800,l),
(40,655,l)
);
},
{
closed = 1;
nodes = (
(181,-468,l),
(487,-468,o),
(654,-334,o),
(684,0,c),
(697,133,l),
(297,133,l),
(283,0,l),
(496,0,l),
(471,-217,o),
(405,-349,o),
(193,-349,c)
);
}
);
width = 1227;
},
{
layerId = "1CEA669B-A0BD-449D-9ADA-118AD20DED36";
shapes = (
{
closed = 1;
nodes = (
(293,0,l),
(459,1465,l),
(336,1465,l),
(172,0,l)
);
},
{
closed = 1;
nodes = (
(1162,1364,l),
(1175,1465,l),
(391,1465,l),
(380,1364,l)
);
},
{
closed = 1;
nodes = (
(714,699,l),
(724,790,l),
(66,790,l),
(58,699,l)
);
},
{
closed = 1;
nodes = (
(180,-456,l),
(441,-456,o),
(586,-318,o),
(614,0,cs),
(623,89,l),
(251,89,l),
(242,0,l),
(505,0,l),
(476,-245,o),
(393,-383,o),
(187,-383,c)
);
}
);
width = 1193;
}
);
unicode = 1274;
},
{
glyphname = "Ghemiddlehook-cy";
layers = (
{
layerId = "853DA88A-72D0-442C-B77F-5E2897338EA9";
shapes = (
{
closed = 1;
nodes = (
(508,0,l),
(667,1465,l),
(225,1465,l),
(67,0,l)
);
},
{
closed = 1;
nodes = (
(1213,-21,o),
(1366,232,o),
(1389,423,c),
(1422,740,o),
(1250,908,o),
(964,908,cs),
(791,908,o),
(619,845,o),
(534,783,c),
(526,512,l),
(576,542,o),
(672,575,o),
(779,575,cs),
(934,575,o),
(984,506,o),
(970,392,c),
(966,320,o),
(915,252,o),
(843,252,cs),
(819,252,o),
(782,263,o),
(750,275,c),
(628,76,l),
(665,23,o),
(756,-21,o),
(894,-21,cs)
);
},
{
closed = 1;
nodes = (
(1262,1107,l),
(1300,1465,l),
(512,1465,l),
(475,1107,l)
);
}
);
width = 1507;
},
{
layerId = "E1DC4E80-D015-47E5-8658-7F3F0651B68D";
shapes = (
{
closed = 1;
nodes = (
(444,0,l),
(603,1465,l),
(250,1465,l),
(92,0,l)
);
},
{
closed = 1;
nodes = (
(1173,-19,o),
(1325,219,o),
(1349,419,c),
(1381,730,o),
(1212,897,o),
(922,897,cs),
(746,897,o),
(574,832,o),
(465,749,c),
(467,537,l),
(545,591,o),
(658,632,o),
(780,632,cs),
(962,632,o),
(1032,545,o),
(1014,390,c),
(1005,287,o),
(938,201,o),
(842,201,cs),
(806,201,o),
(759,214,o),
(719,232,c),
(618,68,l),
(660,21,o),
(749,-19,o),
(878,-19,cs)
);
},
{
closed = 1;
nodes = (
(1248,1180,l),
(1278,1465,l),
(473,1465,l),
(443,1180,l)
);
}
);
width = 1474;
},
{
layerId = "5190A6EC-00FF-4542-AE94-5CA8DCFF9011";
shapes = (
{
closed = 1;
nodes = (
(349,0,l),
(507,1465,l),
(288,1465,l),
(130,0,l)
);
},
{
closed = 1;
nodes = (
(1113,-17,o),
(1264,199,o),
(1289,414,c),
(1320,715,o),
(1155,881,o),
(859,881,cs),
(678,881,o),
(507,813,o),
(361,699,c),
(379,575,l),
(499,665,o),
(637,717,o),
(781,717,cs),
(1004,717,o),
(1103,603,o),
(1080,387,cs),
(1064,237,o),
(972,125,o),
(841,125,cs),
(787,125,o),
(724,140,o),
(673,167,c),
(602,57,l),
(653,19,o),
(738,-17,o),
(855,-17,cs)
);
},
{
closed = 1;
nodes = (
(1227,1290,l),
(1246,1465,l),
(414,1465,l),
(395,1290,l)
);
}
);
width = 1425;
},
{
layerId = "1CEA669B-A0BD-449D-9ADA-118AD20DED36";
shapes = (
{
closed = 1;
nodes = (
(285,0,l),
(443,1465,l),
(314,1465,l),
(155,0,l)
);
},
{
closed = 1;
nodes = (
(1073,-15,o),
(1224,185,o),
(1249,410,cs),
(1280,705,o),
(1117,870,o),
(817,870,cs),
(632,870,o),
(463,801,o),
(291,665,c),
(321,601,l),
(469,714,o),
(623,773,o),
(781,773,cs),
(1032,773,o),
(1151,641,o),
(1124,385,cs),
(1104,204,o),
(994,74,o),
(841,74,cs),
(775,74,o),
(701,91,o),
(643,123,c),
(592,49,l),
(648,17,o),
(730,-15,o),
(839,-15,cs)
);
},
{
closed = 1;
nodes = (
(1213,1364,l),
(1224,1465,l),
(374,1465,l),
(363,1364,l)
);
}
);
width = 1393;
}
);
unicode = 1172;
},
{
glyphname = "Ghestroke-cy";
rightMetricsKey = "=Ge-cy";
layers = (
{
anchors = (
{
name = _center;
position = "{501, 683}";
},
{
name = bottomright;
position = "{682, 0}";
},
{
name = top;
position = "{781, 1465}";
}
);
layerId = "853DA88A-72D0-442C-B77F-5E2897338EA9";
shapes = (
{
closed = 1;
nodes = (
(602,0,l),
(764,1465,l),
(299,1465,l),
(140,0,l)
);
},
{
closed = 1;
nodes = (
(1208,1107,l),
(1248,1465,l),
(536,1465,l),
(497,1107,l)
);
},
{
closed = 1;
nodes = (
(957,541,l),
(997,825,l),
(46,825,l),
(5,541,l)
);
}
);
width = 1275;
},
{
anchors = (
{
name = _center;
position = "{483, 701}";
},
{
name = bottomright;
position = "{593, 0}";
},
{
name = top;
position = "{795, 1465}";
}
);
layerId = "E1DC4E80-D015-47E5-8658-7F3F0651B68D";
shapes = (
{
closed = 1;
nodes = (
(535,0,l),
(698,1465,l),
(331,1465,l),
(171,0,l)
);
},
{
closed = 1;
nodes = (
(1210,1180,l),
(1242,1465,l),
(516,1465,l),
(485,1180,l)
);
},
{
closed = 1;
nodes = (
(906,586,l),
(936,816,l),
(60,816,l),
(29,586,l)
);
}
);
width = 1266;
},
{
anchors = (
{
name = _center;
position = "{456, 727}";
},
{
name = bottomright;
position = "{459, 0}";
},
{
name = top;
position = "{816, 1465}";
}
);
layerId = "5190A6EC-00FF-4542-AE94-5CA8DCFF9011";
shapes = (
{
closed = 1;
nodes = (
(435,0,l),
(600,1465,l),
(380,1465,l),
(217,0,l)
);
},
{
closed = 1;
nodes = (
(1212,1290,l),
(1232,1465,l),
(487,1465,l),
(467,1290,l)
);
},
{
closed = 1;
nodes = (
(829,654,l),
(845,802,l),
(81,802,l),
(65,654,l)
);
}
);
width = 1252;
},
{
anchors = (
{
name = _center;
position = "{438, 745}";
},
{
name = bottomright;
position = "{369, 0}";
},
{
name = top;
position = "{830, 1465}";
}
);
layerId = "1CEA669B-A0BD-449D-9ADA-118AD20DED36";
shapes = (
{
closed = 1;
nodes = (
(369,0,l),
(534,1465,l),
(412,1465,l),
(247,0,l)
);
},
{
closed = 1;
nodes = (
(1214,1364,l),
(1226,1465,l),
(467,1465,l),
(455,1364,l)
);
},
{
closed = 1;
nodes = (
(777,699,l),
(784,793,l),
(95,793,l),
(89,699,l)
);
}
);
width = 1244;
}
);
unicode = 1170;
},
{
glyphname = "Ghestroke-cy.loclBSH";
layers = (
{
anchors = (
{
name = _center;
position = "{580, 668}";
},
{
name = bottomright;
position = "{608, 0}";
},
{
name = top;
position = "{707, 1465}";
}
);
layerId = "853DA88A-72D0-442C-B77F-5E2897338EA9";
shapes = (
{
closed = 1;
nodes = (
(528,0,l),
(690,1465,l),
(225,1465,l),
(66,0,l)
);
},
{
closed = 1;
nodes = (
(1134,1107,l),
(1174,1465,l),
(462,1465,l),
(423,1107,l)
);
},
{
closed = 1;
nodes = (
(933,519,l),
(957,814,l),
(229,814,l),
(204,519,l)
);
}
);
width = 1202;
},
{
anchors = (
{
name = _center;
position = "{588, 686}";
},
{
name = bottomright;
position = "{514, 0}";
},
{
name = top;
position = "{717, 1465}";
}
);
layerId = "E1DC4E80-D015-47E5-8658-7F3F0651B68D";
shapes = (
{
closed = 1;
nodes = (
(457,0,l),
(620,1465,l),
(253,1465,l),
(92,0,l)
);
},
{
closed = 1;
nodes = (
(1131,1180,l),
(1163,1465,l),
(438,1465,l),
(407,1180,l)
);
},
{
closed = 1;
nodes = (
(934,566,l),
(952,804,l),
(243,804,l),
(224,566,l)
);
}
);
width = 1189;
},
{
anchors = (
{
name = _center;
position = "{599, 714}";
},
{
name = bottomright;
position = "{374, 0}";
},
{
name = top;
position = "{731, 1465}";
}
);
layerId = "5190A6EC-00FF-4542-AE94-5CA8DCFF9011";
shapes = (
{
closed = 1;
nodes = (
(351,0,l),
(514,1465,l),
(295,1465,l),
(132,0,l)
);
},
{
closed = 1;
nodes = (
(1127,1290,l),
(1147,1465,l),
(402,1465,l),
(382,1290,l)
);
},
{
closed = 1;
nodes = (
(935,637,l),
(945,789,l),
(263,789,l),
(253,637,l)
);
}
);
width = 1169;
},
{
anchors = (
{
name = _center;
position = "{607, 732}";
},
{
name = bottomright;
position = "{280, 0}";
},
{
name = top;
position = "{741, 1465}";
}
);
layerId = "1CEA669B-A0BD-449D-9ADA-118AD20DED36";
shapes = (
{
closed = 1;
nodes = (
(280,0,l),
(444,1465,l),
(323,1465,l),
(158,0,l)
);
},
{
closed = 1;
nodes = (
(1125,1364,l),
(1137,1465,l),
(378,1465,l),
(366,1364,l)
);
},
{
closed = 1;
nodes = (
(936,685,l),
(940,779,l),
(277,779,l),
(273,685,l)
);
}
);
width = 1155;
}
);
leftKerningGroup = "Ge-cy";
},
{
color = 10;
glyphname = "Gheupturn-cy";
leftMetricsKey = "=Ge-cy";
layers = (
{
layerId = "853DA88A-72D0-442C-B77F-5E2897338EA9";
shapes = (
{
closed = 1;
nodes = (
(560,0,l),
(721,1465,l),
(256,1465,l),
(97,0,l)
);
},
{
closed = 1;
nodes = (
(1188,1107,l),
(1207,1465,l),
(494,1465,l),
(454,1107,l)
);
},
{
closed = 1;
nodes = (
(1201,1232,l),
(1257,1748,l),
(923,1748,l),
(820,1268,l)
);
}
);
width = 1253;
},
{
layerId = "E1DC4E80-D015-47E5-8658-7F3F0651B68D";
shapes = (
{
closed = 1;
nodes = (
(486,0,l),
(648,1465,l),
(281,1465,l),
(120,0,l)
);
},
{
closed = 1;
nodes = (
(1180,1180,l),
(1187,1465,l),
(467,1465,l),
(435,1180,l)
);
},
{
closed = 1;
nodes = (
(1189,1270,l),
(1242,1759,l),
(977,1759,l),
(885,1309,l)
);
}
);
width = 1234;
},
{
layerId = "5190A6EC-00FF-4542-AE94-5CA8DCFF9011";
shapes = (
{
closed = 1;
nodes = (
(375,0,l),
(539,1465,l),
(319,1465,l),
(155,0,l)
);
},
{
closed = 1;
nodes = (
(1167,1290,l),
(1156,1465,l),
(426,1465,l),
(407,1290,l)
);
},
{
closed = 1;
nodes = (
(1171,1326,l),
(1220,1776,l),
(1058,1776,l),
(983,1371,l)
);
}
);
width = 1206;
},
{
layerId = "1CEA669B-A0BD-449D-9ADA-118AD20DED36";
shapes = (
{
closed = 1;
nodes = (
(301,0,l),
(467,1465,l),
(344,1465,l),
(179,0,l)
);
},
{
closed = 1;
nodes = (
(1159,1364,l),
(1136,1465,l),
(399,1465,l),
(388,1364,l)
);
},
{
closed = 1;
nodes = (
(1159,1364,l),
(1206,1788,l),
(1112,1788,l),
(1049,1413,l)
);
}
);
width = 1187;
}
);
leftKerningGroup = "Ge-cy";
unicode = 1168;
},
{
glyphname = "Gje-cy";
layers = (
{
anchors = (
{
name = bottomright;
position = "{608, 0}";
},
{
name = top;
position = "{857, 2047}";
}
);
layerId = "853DA88A-72D0-442C-B77F-5E2897338EA9";
shapes = (
{
closed = 1;
nodes = (
(528,0,l),
(690,1465,l),
(225,1465,l),
(66,0,l)
);
},
{
closed = 1;
nodes = (
(1134,1107,l),
(1174,1465,l),
(462,1465,l),
(423,1107,l)
);
},
{
closed = 1;
nodes = (
(861,1625,l),
(1216,2070,l),
(702,2070,l),
(513,1625,l)
);
}
);
width = 1202;
},
{
anchors = (
{
name = bottomright;
position = "{514, 0}";
},
{
name = top;
position = "{863, 2035}";
}
);
layerId = "E1DC4E80-D015-47E5-8658-7F3F0651B68D";
shapes = (
{
closed = 1;
nodes = (
(457,0,l),
(620,1465,l),
(253,1465,l),
(92,0,l)
);
},
{
closed = 1;
nodes = (
(1131,1180,l),
(1163,1465,l),
(438,1465,l),
(407,1180,l)
);
},
{
closed = 1;
nodes = (
(838,1629,l),
(1168,2055,l),
(760,2055,l),
(561,1629,l)
);
}
);
width = 1189;
},
{
anchors = (
{
name = bottomright;
position = "{374, 0}";
},
{
name = top;
position = "{873, 2017}";
}
);
layerId = "5190A6EC-00FF-4542-AE94-5CA8DCFF9011";
shapes = (
{
closed = 1;
nodes = (
(351,0,l),
(514,1465,l),
(295,1465,l),
(132,0,l)
);
},
{
closed = 1;
nodes = (
(1127,1290,l),
(1147,1465,l),
(402,1465,l),
(382,1290,l)
);
},
{
closed = 1;
nodes = (
(803,1634,l),
(1096,2033,l),
(847,2033,l),
(634,1634,l)
);
}
);
width = 1169;
},
{
anchors = (
{
name = bottomright;
position = "{280, 0}";
},
{
name = top;
position = "{879, 2005}";
}
);
layerId = "1CEA669B-A0BD-449D-9ADA-118AD20DED36";
shapes = (
{
closed = 1;
nodes = (
(280,0,l),
(444,1465,l),
(323,1465,l),
(158,0,l)
);
},
{
closed = 1;
nodes = (
(1125,1364,l),
(1137,1465,l),
(378,1465,l),
(366,1364,l)
);
},
{
closed = 1;
nodes = (
(780,1638,l),
(1048,2019,l),
(905,2019,l),
(682,1638,l)
);
}
);
width = 1155;
}
);
leftKerningGroup = "Ge-cy";
rightKerningGroup = "Ge-cy1";
unicode = 1027;
},
{
glyphname = H;
layers = (
{
layerId = "853DA88A-72D0-442C-B77F-5E2897338EA9";
shapes = (
{
closed = 1;
nodes = (
(559,0,l),
(630,622,l),
(1110,622,l),
(1040,0,l),
(1502,0,l),
(1669,1465,l),
(1207,1465,l),
(1141,883,l),
(661,883,l),
(726,1465,l),
(264,1465,l),
(97,0,l)
);
}
);
width = 1719;
},
{
layerId = "E1DC4E80-D015-47E5-8658-7F3F0651B68D";
shapes = (
{
closed = 1;
nodes = (
(480,0,l),
(554,646,l),
(1154,646,l),
(1081,0,l),
(1441,0,l),
(1608,1465,l),
(1248,1465,l),
(1180,866,l),
(580,866,l),
(647,1465,l),
(287,1465,l),
(120,0,l)
);
}
);
width = 1682;
},
{
layerId = "5190A6EC-00FF-4542-AE94-5CA8DCFF9011";
shapes = (
{
closed = 1;
nodes = (
(362,0,l),
(440,681,l),
(1219,681,l),
(1142,0,l),
(1349,0,l),
(1516,1465,l),
(1309,1465,l),
(1238,840,l),
(459,840,l),
(529,1465,l),
(322,1465,l),
(155,0,l)
);
}
);
width = 1626;
},
{
layerId = "1CEA669B-A0BD-449D-9ADA-118AD20DED36";
shapes = (
{
closed = 1;
nodes = (
(284,0,l),
(364,705,l),
(1263,705,l),
(1183,0,l),
(1288,0,l),
(1455,1465,l),
(1350,1465,l),
(1277,822,l),
(378,822,l),
(451,1465,l),
(346,1465,l),
(179,0,l)
);
}
);
width = 1589;
}
);
unicode = 72;
},
{
glyphname = "Ha-cy";
layers = (
{
anchors = (
{
name = bottomright;
position = "{1468, 0}";
}
);
layerId = "853DA88A-72D0-442C-B77F-5E2897338EA9";
shapes = (
{
closed = 1;
nodes = (
(419,0,l),
(677,430,l),
(876,0,l),
(1427,0,l),
(978,715,l),
(1595,1465,l),
(1076,1465,l),
(800,1026,l),
(603,1465,l),
(75,1465,l),
(501,744,l),
(-102,0,l)
);
}
);
width = 1548;
},
{
anchors = (
{
name = bottomright;
position = "{1376, 0}";
}
);
layerId = "E1DC4E80-D015-47E5-8658-7F3F0651B68D";
shapes = (
{
closed = 1;
nodes = (
(338,0,l),
(662,497,l),
(907,0,l),
(1340,0,l),
(900,722,l),
(1503,1465,l),
(1090,1465,l),
(758,970,l),
(519,1465,l),
(103,1465,l),
(522,746,l),
(-77,0,l)
);
}
);
width = 1484;
},
{
anchors = (
{
name = bottomright;
position = "{1238, 0}";
}
);
layerId = "5190A6EC-00FF-4542-AE94-5CA8DCFF9011";
shapes = (
{
closed = 1;
nodes = (
(216,0,l),
(640,597,l),
(954,0,l),
(1210,0,l),
(783,733,l),
(1365,1465,l),
(1112,1465,l),
(696,886,l),
(393,1465,l),
(145,1465,l),
(554,748,l),
(-39,0,l)
);
}
);
width = 1387;
},
{
anchors = (
{
name = bottomright;
position = "{1146, 0}";
}
);
layerId = "1CEA669B-A0BD-449D-9ADA-118AD20DED36";
shapes = (
{
closed = 1;
nodes = (
(134,0,l),
(625,663,l),
(986,0,l),
(1124,0,l),
(705,741,l),
(1273,1465,l),
(1126,1465,l),
(654,830,l),
(309,1465,l),
(173,1465,l),
(576,750,l),
(-13,0,l)
);
}
);
width = 1323;
}
);
unicode = 1061;
},
{
glyphname = "Haabkhasian-cy";
leftMetricsKey = O;
layers = (
{
layerId = "853DA88A-72D0-442C-B77F-5E2897338EA9";
shapes = (
{
closed = 1;
nodes = (
(1371,-39,o),
(1808,324,o),
(1862,744,c),
(1901,1064,o),
(1717,1405,o),
(1349,1405,cs),
(1083,1405,o),
(801,1226,o),
(750,840,c),
(676,289,o),
(1171,-39,o),
(1524,-39,cs),
(1682,-39,o),
(1821,30,o),
(1867,63,c),
(1817,280,l),
(1752,238,o),
(1641,219,o),
(1576,219,cs),
(1322,219,o),
(1145,508,o),
(1199,923,cs),
(1215,1048,o),
(1239,1133,o),
(1298,1133,cs),
(1406,1133,o),
(1423,872,o),
(1403,682,c),
(1368,371,o),
(1212,196,o),
(1000,196,cs),
(769,196,o),
(531,393,o),
(580,850,c),
(606,1063,o),
(685,1191,o),
(919,1327,c),
(850,1506,l),
(467,1428,o),
(159,1154,o),
(111,771,c),
(58,322,o),
(398,-39,o),
(885,-39,cs)
);
}
);
width = 2020;
},
{
layerId = "E1DC4E80-D015-47E5-8658-7F3F0651B68D";
shapes = (
{
closed = 1;
nodes = (
(1340,-33,o),
(1753,312,o),
(1806,730,c),
(1846,1064,o),
(1656,1399,o),
(1321,1399,cs),
(1065,1399,o),
(791,1212,o),
(743,823,c),
(675,294,o),
(1112,-33,o),
(1472,-33,cs),
(1623,-33,o),
(1752,28,o),
(1816,74,c),
(1770,245,l),
(1701,198,o),
(1599,174,o),
(1517,174,cs),
(1249,174,o),
(1049,456,o),
(1100,888,cs),
(1120,1067,o),
(1184,1181,o),
(1277,1181,cs),
(1412,1181,o),
(1465,909,o),
(1441,680,c),
(1404,355,o),
(1215,157,o),
(966,157,cs),
(694,157,o),
(457,389,o),
(506,836,c),
(534,1073,o),
(646,1234,o),
(896,1357,c),
(841,1502,l),
(470,1422,o),
(178,1145,o),
(133,775,c),
(80,324,o),
(407,-33,o),
(876,-33,cs)
);
}
);
width = 1961;
},
{
layerId = "5190A6EC-00FF-4542-AE94-5CA8DCFF9011";
shapes = (
{
closed = 1;
nodes = (
(1296,-23,o),
(1675,295,o),
(1725,708,c),
(1767,1064,o),
(1568,1390,o),
(1282,1390,cs),
(1041,1390,o),
(779,1191,o),
(735,798,c),
(678,301,o),
(1026,-23,o),
(1397,-23,cs),
(1539,-23,o),
(1651,24,o),
(1743,90,c),
(1703,193,l),
(1627,138,o),
(1539,106,o),
(1431,106,cs),
(1143,106,o),
(908,377,o),
(954,836,cs),
(982,1095,o),
(1104,1252,o),
(1250,1252,cs),
(1424,1252,o),
(1532,964,o),
(1501,677,c),
(1461,330,o),
(1222,98,o),
(919,98,cs),
(585,98,o),
(350,384,o),
(398,815,c),
(429,1088,o),
(590,1299,o),
(865,1401,c),
(831,1495,l),
(479,1412,o),
(209,1131,o),
(169,780,cs),
(116,327,o),
(423,-23,o),
(867,-23,cs)
);
}
);
width = 1876;
},
{
layerId = "1CEA669B-A0BD-449D-9ADA-118AD20DED36";
shapes = (
{
closed = 1;
nodes = (
(1269,-17,o),
(1624,283,o),
(1673,694,cs),
(1716,1064,o),
(1511,1384,o),
(1257,1384,cs),
(1026,1384,o),
(772,1177,o),
(732,781,cs),
(681,305,o),
(970,-17,o),
(1348,-17,cs),
(1484,-17,o),
(1585,22,o),
(1696,100,c),
(1660,158,l),
(1580,98,o),
(1501,60,o),
(1376,60,cs),
(1074,60,o),
(815,325,o),
(859,801,cs),
(891,1113,o),
(1053,1300,o),
(1233,1300,cs),
(1433,1300,o),
(1578,1000,o),
(1543,675,cs),
(1501,314,o),
(1229,58,o),
(889,58,cs),
(514,58,o),
(280,380,o),
(327,801,cs),
(361,1098,o),
(554,1342,o),
(846,1431,c),
(826,1491,l),
(486,1406,o),
(231,1121,o),
(194,784,c),
(142,329,o),
(435,-17,o),
(862,-17,cs)
);
}
);
width = 1821;
}
);
unicode = 1192;
},
{
glyphname = "Hadescender-cy";
layers = (
{
layerId = "853DA88A-72D0-442C-B77F-5E2897338EA9";
shapes = (
{
closed = 1;
nodes = (
(419,0,l),
(677,430,l),
(876,0,l),
(1427,0,l),
(978,715,l),
(1595,1465,l),
(1076,1465,l),
(800,1026,l),
(603,1465,l),
(75,1465,l),
(501,744,l),
(-102,0,l)
);
},
{
closed = 1;
nodes = (
(1457,-434,l),
(1602,402,l),
(1121,402,l),
(1119,-434,l)
);
}
);
width = 1619;
},
{
layerId = "E1DC4E80-D015-47E5-8658-7F3F0651B68D";
shapes = (
{
closed = 1;
nodes = (
(338,0,l),
(662,497,l),
(907,0,l),
(1340,0,l),
(900,722,l),
(1503,1465,l),
(1090,1465,l),
(758,970,l),
(519,1465,l),
(103,1465,l),
(522,746,l),
(-77,0,l)
);
},
{
closed = 1;
nodes = (
(1355,-434,l),
(1479,316,l),
(1101,316,l),
(1088,-434,l)
);
}
);
width = 1545;
},
{
layerId = "5190A6EC-00FF-4542-AE94-5CA8DCFF9011";
shapes = (
{
closed = 1;
nodes = (
(216,0,l),
(640,597,l),
(954,0,l),
(1210,0,l),
(783,733,l),
(1365,1465,l),
(1112,1465,l),
(696,886,l),
(393,1465,l),
(145,1465,l),
(554,748,l),
(-39,0,l)
);
},
{
closed = 1;
nodes = (
(1203,-434,l),
(1294,188,l),
(1070,188,l),
(1042,-434,l)
);
}
);
width = 1433;
},
{
layerId = "1CEA669B-A0BD-449D-9ADA-118AD20DED36";
shapes = (
{
closed = 1;
nodes = (
(134,0,l),
(625,663,l),
(986,0,l),
(1124,0,l),
(705,741,l),
(1273,1465,l),
(1126,1465,l),
(654,830,l),
(309,1465,l),
(173,1465,l),
(576,750,l),
(-13,0,l)
);
},
{
closed = 1;
nodes = (
(1101,-434,l),
(1170,102,l),
(1050,102,l),
(1012,-434,l)
);
}
);
width = 1359;
}
);
unicode = 1202;
},
{
glyphname = "Hahook-cy";
layers = (
{
layerId = "853DA88A-72D0-442C-B77F-5E2897338EA9";
shapes = (
{
closed = 1;
nodes = (
(1180,-556,o),
(1383,-414,o),
(1414,-110,c),
(1443,164,o),
(1147,541,o),
(887,920,c),
(742,1130,o),
(632,1339,o),
(578,1465,c),
(57,1465,l),
(155,1285,o),
(355,972,o),
(550,669,c),
(754,345,o),
(942,59,o),
(925,-88,cs),
(908,-243,o),
(860,-287,o),
(777,-287,cs),
(742,-287,o),
(705,-278,o),
(665,-269,c),
(567,-484,l),
(646,-533,o),
(739,-556,o),
(866,-556,cs)
);
},
{
closed = 1;
nodes = (
(419,0,l),
(791,585,l),
(1002,731,l),
(1583,1465,l),
(1055,1465,l),
(751,980,l),
(539,840,l),
(-116,0,l)
);
}
);
width = 1527;
},
{
layerId = "E1DC4E80-D015-47E5-8658-7F3F0651B68D";
shapes = (
{
closed = 1;
nodes = (
(1140,-543,o),
(1324,-409,o),
(1351,-148,cs),
(1378,117,o),
(1095,508,o),
(833,896,cs),
(679,1121,o),
(551,1337,o),
(483,1465,c),
(70,1465,l),
(172,1297,o),
(374,994,o),
(568,692,cs),
(787,350,o),
(982,31,o),
(965,-130,cs),
(949,-269,o),
(891,-329,o),
(792,-329,cs),
(749,-329,o),
(702,-317,o),
(660,-301,c),
(580,-472,l),
(653,-521,o),
(743,-543,o),
(858,-543,cs)
);
},
{
closed = 1;
nodes = (
(320,0,l),
(756,625,l),
(917,743,l),
(1501,1465,l),
(1080,1465,l),
(720,948,l),
(557,833,l),
(-105,0,l)
);
}
);
width = 1466;
},
{
layerId = "5190A6EC-00FF-4542-AE94-5CA8DCFF9011";
shapes = (
{
closed = 1;
nodes = (
(1081,-524,o),
(1235,-402,o),
(1256,-204,c),
(1281,46,o),
(1018,459,o),
(751,859,c),
(584,1108,o),
(430,1335,o),
(341,1465,c),
(90,1465,l),
(197,1315,o),
(403,1027,o),
(594,727,c),
(836,357,o),
(1043,-12,o),
(1024,-194,c),
(1010,-308,o),
(937,-392,o),
(814,-392,cs),
(759,-392,o),
(697,-376,o),
(653,-348,c),
(600,-453,l),
(664,-502,o),
(748,-524,o),
(847,-524,cs)
);
},
{
closed = 1;
nodes = (
(171,0,l),
(703,686,l),
(790,761,l),
(1377,1465,l),
(1118,1465,l),
(673,900,l),
(585,823,l),
(-89,0,l)
);
}
);
width = 1375;
},
{
layerId = "1CEA669B-A0BD-449D-9ADA-118AD20DED36";
shapes = (
{
closed = 1;
nodes = (
(1041,-512,o),
(1175,-397,o),
(1193,-242,cs),
(1217,-2,o),
(966,427,o),
(697,835,cs),
(521,1100,o),
(350,1333,o),
(247,1465,c),
(104,1465,l),
(214,1327,o),
(423,1049,o),
(612,750,c),
(868,361,o),
(1083,-40,o),
(1064,-236,c),
(1051,-334,o),
(968,-434,o),
(828,-434,cs),
(766,-434,o),
(694,-416,o),
(648,-380,c),
(614,-441,l),
(672,-490,o),
(752,-512,o),
(839,-512,cs)
);
},
{
closed = 1;
nodes = (
(72,0,l),
(667,726,l),
(705,773,l),
(1295,1465,l),
(1144,1465,l),
(641,868,l),
(603,817,l),
(-78,0,l)
);
}
);
width = 1315;
}
);
unicode = 1276;
},
{
glyphname = "Hardsign-cy";
leftMetricsKey = T;
rightMetricsKey = "=Softsign-cy";
layers = (
{
layerId = "853DA88A-72D0-442C-B77F-5E2897338EA9";
shapes = (
{
closed = 1;
nodes = (
(831,0,ls),
(1328,0,o),
(1591,218,o),
(1625,547,cs),
(1658,857,o),
(1463,1023,o),
(1083,1018,c),
(807,1018,l),
(777,701,l),
(930,700,l),
(1119,703,o),
(1171,656,o),
(1157,518,c),
(1146,398,o),
(1054,343,o),
(916,343,cs),
(787,343,l),
(909,1465,l),
(475,1465,l),
(315,0,l)
);
},
{
closed = 1;
nodes = (
(729,1107,l),
(765,1465,l),
(169,1465,l),
(130,1107,l)
);
}
);
width = 1716;
},
{
layerId = "E1DC4E80-D015-47E5-8658-7F3F0651B68D";
shapes = (
{
closed = 1;
nodes = (
(811,0,ls),
(1260,0,o),
(1503,202,o),
(1537,507,c),
(1572,814,o),
(1385,986,o),
(1019,982,c),
(737,982,l),
(714,728,l),
(903,728,l),
(1124,730,o),
(1188,648,o),
(1170,488,cs),
(1154,347,o),
(1050,272,o),
(878,272,cs),
(712,272,l),
(843,1465,l),
(500,1465,l),
(338,0,l)
);
},
{
closed = 1;
nodes = (
(691,1180,l),
(720,1465,l),
(164,1465,l),
(133,1180,l)
);
}
);
width = 1630;
},
{
layerId = "5190A6EC-00FF-4542-AE94-5CA8DCFF9011";
shapes = (
{
closed = 1;
nodes = (
(784,0,ls),
(1162,0,o),
(1374,179,o),
(1408,448,cs),
(1447,749,o),
(1272,930,o),
(925,928,c),
(635,928,l),
(623,768,l),
(866,769,l),
(1135,770,o),
(1217,636,o),
(1193,442,c),
(1169,270,o),
(1047,166,o),
(825,166,cs),
(602,166,l),
(748,1465,l),
(541,1465,l),
(376,0,l)
);
},
{
closed = 1;
nodes = (
(638,1290,l),
(656,1465,l),
(159,1465,l),
(140,1290,l)
);
}
);
width = 1503;
},
{
layerId = "1CEA669B-A0BD-449D-9ADA-118AD20DED36";
shapes = (
{
closed = 1;
nodes = (
(765,0,ls),
(1095,0,o),
(1286,163,o),
(1320,408,cs),
(1362,705,o),
(1195,892,o),
(861,892,cs),
(566,892,l),
(561,794,l),
(839,797,ls),
(1141,797,o),
(1235,628,o),
(1207,412,c),
(1177,218,o),
(1044,96,o),
(788,96,cs),
(527,96,l),
(683,1465,l),
(566,1465,l),
(400,0,l)
);
},
{
closed = 1;
nodes = (
(601,1364,l),
(612,1465,l),
(154,1465,l),
(143,1364,l)
);
}
);
width = 1418;
}
);
unicode = 1066;
},
{
color = 8;
glyphname = "Hastroke-cy";
layers = (
{
layerId = "853DA88A-72D0-442C-B77F-5E2897338EA9";
shapes = (
{
closed = 1;
nodes = (
(431,0,l),
(705,476,l),
(893,0,l),
(1421,0,l),
(989,737,l),
(1589,1465,l),
(1069,1465,l),
(782,990,l),
(593,1465,l),
(75,1465,l),
(496,739,l),
(-102,0,l)
);
},
{
closed = 1;
nodes = (
(641,599,l),
(665,851,l),
(153,853,l),
(118,599,l)
);
},
{
closed = 1;
nodes = (
(1330,601,l),
(1361,856,l),
(835,856,l),
(814,601,l)
);
}
);
width = 1532;
},
{
layerId = "E1DC4E80-D015-47E5-8658-7F3F0651B68D";
shapes = (
{
closed = 1;
nodes = (
(346,0,l),
(683,526,l),
(920,0,l),
(1335,0,l),
(907,738,l),
(1499,1465,l),
(1085,1465,l),
(744,947,l),
(512,1465,l),
(103,1465,l),
(518,742,l),
(-77,0,l)
);
},
{
closed = 1;
nodes = (
(638,629,l),
(657,831,l),
(172,832,l),
(143,629,l)
);
},
{
closed = 1;
nodes = (
(1251,630,l),
(1277,835,l),
(778,835,l),
(761,630,l)
);
}
);
width = 1472;
},
{
layerId = "5190A6EC-00FF-4542-AE94-5CA8DCFF9011";
shapes = (
{
closed = 1;
nodes = (
(219,0,l),
(650,602,l),
(960,0,l),
(1205,0,l),
(785,739,l),
(1363,1465,l),
(1110,1465,l),
(688,882,l),
(390,1465,l),
(146,1465,l),
(552,747,l),
(-39,0,l)
);
},
{
closed = 1;
nodes = (
(633,673,l),
(645,801,l),
(201,801,l),
(181,673,l)
);
},
{
closed = 1;
nodes = (
(1133,674,l),
(1152,803,l),
(693,803,l),
(682,674,l)
);
}
);
width = 1383;
},
{
layerId = "1CEA669B-A0BD-449D-9ADA-118AD20DED36";
shapes = (
{
closed = 1;
nodes = (
(134,0,l),
(628,652,l),
(986,0,l),
(1119,0,l),
(703,739,l),
(1273,1465,l),
(1126,1465,l),
(650,839,l),
(308,1465,l),
(174,1465,l),
(574,750,l),
(-13,0,l)
);
},
{
closed = 1;
nodes = (
(630,703,l),
(637,781,l),
(221,781,l),
(206,703,l)
);
},
{
closed = 1;
nodes = (
(1055,703,l),
(1068,781,l),
(637,781,l),
(630,703,l)
);
}
);
width = 1323;
}
);
unicode = 1278;
},
{
color = (153, 154, 255, 255);
glyphname = Hbar;
layers = (
{
layerId = "853DA88A-72D0-442C-B77F-5E2897338EA9";
shapes = (
{
alignment = -1;
ref = H;
},
{
alignment = -1;
pos = (305,-155);
ref = macron;
}
);
width = 1719;
},
{
layerId = "E1DC4E80-D015-47E5-8658-7F3F0651B68D";
shapes = (
{
closed = 1;
nodes = (
(480,0,l),
(554,646,l),
(1154,646,l),
(1081,0,l),
(1441,0,l),
(1608,1465,l),
(1248,1465,l),
(1180,866,l),
(580,866,l),
(647,1465,l),
(287,1465,l),
(120,0,l)
);
},
{
closed = 1;
nodes = (
(527,1119,l),
(1287,1119,l),
(1313,1347,l),
(554,1347,l)
);
}
);
width = 1682;
},
{
layerId = "5190A6EC-00FF-4542-AE94-5CA8DCFF9011";
shapes = (
{
closed = 1;
nodes = (
(362,0,l),
(440,681,l),
(1219,681,l),
(1142,0,l),
(1349,0,l),
(1516,1465,l),
(1309,1465,l),
(1238,840,l),
(459,840,l),
(529,1465,l),
(322,1465,l),
(155,0,l)
);
},
{
closed = 1;
nodes = (
(439,1170,l),
(1332,1170,l),
(1348,1310,l),
(455,1310,l)
);
}
);
width = 1626;
},
{
layerId = "1CEA669B-A0BD-449D-9ADA-118AD20DED36";
shapes = (
{
closed = 1;
nodes = (
(380,1204,l),
(1363,1204,l),
(1372,1284,l),
(390,1284,l)
);
},
{
alignment = -1;
ref = H;
}
);
width = 1589;
}
);
unicode = 294;
},
{
glyphname = I;
layers = (
{
layerId = "853DA88A-72D0-442C-B77F-5E2897338EA9";
shapes = (
{
closed = 1;
nodes = (
(726,1465,l),
(264,1465,l),
(97,0,l),
(559,0,l)
);
}
);
width = 776;
},
{
layerId = "E1DC4E80-D015-47E5-8658-7F3F0651B68D";
shapes = (
{
closed = 1;
nodes = (
(647,1465,l),
(287,1465,l),
(120,0,l),
(480,0,l)
);
}
);
width = 721;
},
{
layerId = "5190A6EC-00FF-4542-AE94-5CA8DCFF9011";
shapes = (
{
closed = 1;
nodes = (
(529,1465,l),
(322,1465,l),
(155,0,l),
(362,0,l)
);
}
);
width = 639;
},
{
layerId = "1CEA669B-A0BD-449D-9ADA-118AD20DED36";
shapes = (
{
closed = 1;
nodes = (
(451,1465,l),
(346,1465,l),
(179,0,l),
(284,0,l)
);
}
);
width = 585;
}
);
unicode = 73;
},
{
color = 10;
glyphname = "Ia-cy";
rightMetricsKey = H;
layers = (
{
anchors = (
{
name = bottom;
position = "{653, 0}";
},
{
name = top;
position = "{833, 1465}";
}
);
layerId = "853DA88A-72D0-442C-B77F-5E2897338EA9";
shapes = (
{
closed = 1;
nodes = (
(1273,0,l),
(1434,1465,l),
(812,1465,ls),
(427,1465,o),
(164,1280,o),
(146,1014,c),
(123,711,o),
(385,522,o),
(707,522,cs),
(825,522,o),
(987,546,o),
(1129,608,c),
(1156,867,l),
(1042,832,o),
(886,808,o),
(811,808,cs),
(673,808,o),
(600,892,o),
(610,1004,c),
(622,1107,o),
(711,1149,o),
(814,1149,cs),
(956,1149,l),
(830,0,l)
);
},
{
closed = 1;
nodes = (
(439,0,l),
(810,608,l),
(499,714,l),
(-92,0,l)
);
}
);
width = 1484;
},
{
anchors = (
{
name = bottom;
position = "{593, 0}";
},
{
name = top;
position = "{801, 1465}";
}
);
layerId = "E1DC4E80-D015-47E5-8658-7F3F0651B68D";
shapes = (
{
closed = 1;
nodes = (
(1184,0,l),
(1345,1465,l),
(798,1465,ls),
(440,1465,o),
(195,1298,o),
(173,1039,cs),
(148,749,o),
(382,555,o),
(699,555,cs),
(805,555,o),
(950,577,o),
(1079,627,c),
(1100,834,l),
(993,805,o),
(854,786,o),
(783,786,cs),
(614,786,o),
(523,888,o),
(538,1029,c),
(554,1158,o),
(658,1212,o),
(791,1212,cs),
(968,1212,l),
(833,0,l)
);
},
{
closed = 1;
nodes = (
(346,0,l),
(762,628,l),
(515,714,l),
(-78,0,l)
);
}
);
width = 1419;
},
{
anchors = (
{
name = bottom;
position = "{503, 0}";
},
{
name = top;
position = "{754, 1465}";
}
);
layerId = "5190A6EC-00FF-4542-AE94-5CA8DCFF9011";
shapes = (
{
closed = 1;
nodes = (
(1050,0,l),
(1211,1465,l),
(777,1465,ls),
(460,1465,o),
(242,1326,o),
(214,1076,c),
(186,807,o),
(377,605,o),
(687,605,cs),
(776,605,o),
(894,623,o),
(1005,656,c),
(1016,784,l),
(919,765,o),
(805,754,o),
(740,754,cs),
(525,754,o),
(407,883,o),
(431,1067,cs),
(451,1234,o),
(578,1307,o),
(757,1307,cs),
(986,1307,l),
(838,0,l)
);
},
{
closed = 1;
nodes = (
(207,0,l),
(691,659,l),
(538,714,l),
(-56,0,l)
);
}
);
width = 1321;
},
{
anchors = (
{
name = bottom;
position = "{443, 0}";
},
{
name = top;
position = "{722, 1465}";
}
);
layerId = "1CEA669B-A0BD-449D-9ADA-118AD20DED36";
shapes = (
{
closed = 1;
nodes = (
(960,0,l),
(1121,1465,l),
(763,1465,ls),
(474,1465,o),
(274,1344,o),
(242,1100,cs),
(212,845,o),
(374,639,o),
(679,639,cs),
(756,639,o),
(856,654,o),
(955,675,c),
(960,750,l),
(870,739,o),
(773,732,o),
(712,732,cs),
(465,732,o),
(329,879,o),
(359,1093,cs),
(383,1284,o),
(525,1371,o),
(735,1371,cs),
(998,1371,l),
(841,0,l)
);
},
{
closed = 1;
nodes = (
(115,0,l),
(643,679,l),
(554,714,l),
(-42,0,l)
);
}
);
width = 1255;
}
);
rightKerningGroup = "Ia-cy";
unicode = 1071;
},
{
glyphname = "Idieresis-cy";
layers = (
{
anchors = (
{
name = bottomright;
position = "{1450, 0}";
},
{
name = top;
position = "{950, 2005}";
}
);
layerId = "853DA88A-72D0-442C-B77F-5E2897338EA9";
shapes = (
{
closed = 1;
nodes = (
(523,0,l),
(1366,1273,l),
(1388,1465,l),
(1151,1465,l),
(272,180,l),
(252,0,l)
);
},
{
closed = 1;
nodes = (
(462,0,l),
(664,1465,l),
(225,1465,l),
(66,0,l)
);
},
{
closed = 1;
nodes = (
(1448,0,l),
(1606,1465,l),
(1207,1465,l),
(1008,0,l)
);
},
{
closed = 1;
nodes = (
(792,1591,o),
(878,1648,o),
(894,1762,c),
(910,1888,o),
(836,2005,o),
(686,2005,cs),
(571,2005,o),
(493,1939,o),
(478,1834,cs),
(460,1708,o),
(527,1591,o),
(686,1591,cs)
);
},
{
closed = 1;
nodes = (
(1304,1591,o),
(1388,1648,o),
(1407,1762,c),
(1424,1888,o),
(1348,2005,o),
(1196,2005,cs),
(1081,2005,o),
(1006,1939,o),
(988,1834,c),
(973,1708,o),
(1039,1591,o),
(1194,1591,cs)
);
}
);
width = 1721;
},
{
anchors = (
{
name = bottomright;
position = "{1401, 0}";
},
{
name = top;
position = "{937, 1953}";
}
);
layerId = "E1DC4E80-D015-47E5-8658-7F3F0651B68D";
shapes = (
{
closed = 1;
nodes = (
(456,0,l),
(1371,1308,l),
(1388,1465,l),
(1197,1465,l),
(256,146,l),
(241,0,l)
);
},
{
closed = 1;
nodes = (
(407,0,l),
(600,1465,l),
(253,1465,l),
(92,0,l)
);
},
{
closed = 1;
nodes = (
(1399,0,l),
(1559,1465,l),
(1242,1465,l),
(1051,0,l)
);
},
{
closed = 1;
nodes = (
(776,1611,o),
(846,1660,o),
(858,1754,c),
(870,1858,o),
(808,1953,o),
(686,1953,cs),
(591,1953,o),
(526,1897,o),
(515,1810,cs),
(501,1705,o),
(559,1611,o),
(687,1611,cs)
);
},
{
closed = 1;
nodes = (
(1259,1611,o),
(1328,1660,o),
(1342,1754,c),
(1355,1858,o),
(1291,1953,o),
(1168,1953,cs),
(1073,1953,o),
(1010,1897,o),
(997,1810,c),
(986,1706,o),
(1043,1611,o),
(1167,1611,cs)
);
}
);
width = 1696;
},
{
anchors = (
{
name = bottomright;
position = "{1327, 0}";
},
{
name = top;
position = "{917, 1874}";
}
);
layerId = "5190A6EC-00FF-4542-AE94-5CA8DCFF9011";
shapes = (
{
closed = 1;
nodes = (
(355,0,l),
(1378,1361,l),
(1389,1465,l),
(1267,1465,l),
(232,96,l),
(224,0,l)
);
},
{
closed = 1;
nodes = (
(325,0,l),
(504,1465,l),
(295,1465,l),
(132,0,l)
);
},
{
closed = 1;
nodes = (
(1326,0,l),
(1489,1465,l),
(1295,1465,l),
(1115,0,l)
);
},
{
closed = 1;
nodes = (
(752,1640,o),
(798,1679,o),
(804,1743,c),
(809,1814,o),
(765,1874,o),
(686,1874,cs),
(621,1874,o),
(576,1834,o),
(570,1774,cs),
(562,1701,o),
(608,1640,o),
(688,1640,cs)
);
},
{
closed = 1;
nodes = (
(1192,1640,o),
(1238,1679,o),
(1245,1743,c),
(1251,1814,o),
(1206,1874,o),
(1126,1874,cs),
(1061,1874,o),
(1016,1834,o),
(1011,1774,cs),
(1005,1703,o),
(1048,1640,o),
(1127,1640,cs)
);
}
);
width = 1659;
},
{
anchors = (
{
name = bottomright;
position = "{1278, 0}";
},
{
name = top;
position = "{903, 1822}";
}
);
layerId = "1CEA669B-A0BD-449D-9ADA-118AD20DED36";
shapes = (
{
closed = 1;
nodes = (
(287,0,l),
(1382,1397,l),
(1389,1465,l),
(1313,1465,l),
(216,62,l),
(212,0,l)
);
},
{
closed = 1;
nodes = (
(270,0,l),
(440,1465,l),
(323,1465,l),
(158,0,l)
);
},
{
closed = 1;
nodes = (
(1278,0,l),
(1442,1465,l),
(1330,1465,l),
(1157,0,l)
);
},
{
closed = 1;
nodes = (
(736,1660,o),
(766,1691,o),
(768,1735,cs),
(769,1784,o),
(737,1822,o),
(686,1822,cs),
(641,1822,o),
(609,1792,o),
(606,1750,cs),
(603,1699,o),
(640,1660,o),
(689,1660,cs)
);
},
{
closed = 1;
nodes = (
(1148,1660,o),
(1178,1691,o),
(1180,1735,cs),
(1181,1784,o),
(1149,1822,o),
(1098,1822,cs),
(1053,1822,o),
(1020,1792,o),
(1020,1750,c),
(1017,1701,o),
(1052,1660,o),
(1101,1660,cs)
);
}
);
width = 1635;
}
);
leftKerningGroup = "Ge-cy";
rightKerningGroup = "Ia-cy";
unicode = 1252;
},
{
color = 9;
glyphname = Ihookabove;
layers = (
{
anchors = (
{
name = bottom;
position = "{320, 0}";
},
{
name = ogonek;
position = "{554, 0}";
},
{
name = top;
position = "{581, 2132}";
},
{
name = topleft;
position = "{100, 1465}";
}
);
layerId = "853DA88A-72D0-442C-B77F-5E2897338EA9";
shapes = (
{
closed = 1;
nodes = (
(635,1559,l),
(672,1780,l),
(505,1647,l),
(733,1662,o),
(855,1775,o),
(867,1893,c),
(882,2013,o),
(774,2132,o),
(546,2132,cs),
(443,2132,o),
(321,2107,o),
(216,2047,c),
(289,1882,l),
(342,1906,o),
(398,1917,o),
(445,1917,cs),
(505,1917,o),
(537,1900,o),
(528,1857,cs),
(518,1808,o),
(450,1788,o),
(360,1783,c),
(352,1559,l)
);
},
{
alignment = -1;
ref = I;
}
);
width = 848;
},
{
anchors = (
{
name = bottom;
position = "{295, 0}";
},
{
name = ogonek;
position = "{482, 0}";
},
{
name = top;
position = "{554, 2098}";
},
{
name = topleft;
position = "{108, 1465}";
}
);
layerId = "E1DC4E80-D015-47E5-8658-7F3F0651B68D";
shapes = (
{
closed = 1;
nodes = (
(585,1557,l),
(616,1762,l),
(481,1654,l),
(692,1665,o),
(809,1762,o),
(821,1873,c),
(835,1989,o),
(732,2098,o),
(522,2098,cs),
(423,2098,o),
(310,2072,o),
(215,2009,c),
(278,1877,l),
(328,1908,o),
(388,1924,o),
(446,1924,cs),
(517,1924,o),
(558,1898,o),
(548,1847,cs),
(538,1795,o),
(467,1768,o),
(364,1764,c),
(355,1557,l)
);
},
{
alignment = -1;
ref = I;
}
);
width = 800;
},
{
anchors = (
{
name = bottom;
position = "{258, 0}";
},
{
name = ogonek;
position = "{375, 0}";
},
{
name = top;
position = "{513, 2048}";
},
{
name = topleft;
position = "{121, 1465}";
}
);
layerId = "5190A6EC-00FF-4542-AE94-5CA8DCFF9011";
shapes = (
{
closed = 1;
nodes = (
(509,1553,l),
(533,1734,l),
(446,1664,l),
(630,1669,o),
(739,1743,o),
(751,1843,cs),
(765,1952,o),
(668,2048,o),
(487,2048,cs),
(392,2048,o),
(293,2020,o),
(213,1952,c),
(262,1869,l),
(307,1912,o),
(372,1934,o),
(447,1934,cs),
(535,1934,o),
(589,1894,o),
(579,1833,cs),
(568,1775,o),
(492,1738,o),
(370,1736,c),
(359,1553,l)
);
},
{
alignment = -1;
ref = I;
}
);
width = 727;
},
{
anchors = (
{
name = bottom;
position = "{234, 0}";
},
{
name = ogonek;
position = "{303, 0}";
},
{
name = top;
position = "{485, 2014}";
},
{
name = topleft;
position = "{129, 1465}";
}
);
layerId = "1CEA669B-A0BD-449D-9ADA-118AD20DED36";
shapes = (
{
closed = 1;
nodes = (
(459,1551,l),
(477,1716,l),
(422,1671,l),
(588,1671,o),
(693,1731,o),
(705,1823,cs),
(719,1928,o),
(626,2014,o),
(463,2014,cs),
(372,2014,o),
(281,1986,o),
(211,1914,c),
(252,1863,l),
(293,1914,o),
(362,1941,o),
(447,1941,cs),
(547,1941,o),
(610,1892,o),
(599,1823,cs),
(588,1761,o),
(508,1718,o),
(374,1718,c),
(361,1551,l)
);
},
{
alignment = -1;
ref = I;
}
);
width = 679;
}
);
unicode = 7880;
},
{
color = 10;
glyphname = "Ii-cy";
leftMetricsKey = H;
rightMetricsKey = H;
layers = (
{
anchors = (
{
name = bottomright;
position = "{1480, 0}";
},
{
name = top;
position = "{943, 1465}";
}
);
layerId = "853DA88A-72D0-442C-B77F-5E2897338EA9";
shapes = (
{
closed = 1;
nodes = (
(554,0,l),
(1397,1273,l),
(1419,1465,l),
(1182,1465,l),
(303,180,l),
(283,0,l)
);
},
{
closed = 1;
nodes = (
(494,0,l),
(696,1465,l),
(256,1465,l),
(97,0,l)
);
},
{
closed = 1;
nodes = (
(1480,0,l),
(1638,1465,l),
(1239,1465,l),
(1039,0,l)
);
}
);
width = 1688;
},
{
anchors = (
{
name = bottomright;
position = "{1428, 0}";
},
{
name = top;
position = "{931, 1465}";
}
);
layerId = "E1DC4E80-D015-47E5-8658-7F3F0651B68D";
shapes = (
{
closed = 1;
nodes = (
(484,0,l),
(1399,1308,l),
(1416,1465,l),
(1225,1465,l),
(284,146,l),
(269,0,l)
);
},
{
closed = 1;
nodes = (
(436,0,l),
(629,1465,l),
(281,1465,l),
(120,0,l)
);
},
{
closed = 1;
nodes = (
(1428,0,l),
(1588,1465,l),
(1271,1465,l),
(1079,0,l)
);
}
);
width = 1662;
},
{
anchors = (
{
name = bottomright;
position = "{1351, 0}";
},
{
name = top;
position = "{914, 1465}";
}
);
layerId = "5190A6EC-00FF-4542-AE94-5CA8DCFF9011";
shapes = (
{
closed = 1;
nodes = (
(378,0,l),
(1401,1361,l),
(1412,1465,l),
(1290,1465,l),
(256,96,l),
(247,0,l)
);
},
{
closed = 1;
nodes = (
(349,0,l),
(528,1465,l),
(319,1465,l),
(155,0,l)
);
},
{
closed = 1;
nodes = (
(1351,0,l),
(1513,1465,l),
(1319,1465,l),
(1138,0,l)
);
}
);
width = 1623;
},
{
anchors = (
{
name = bottomright;
position = "{1299, 0}";
},
{
name = top;
position = "{902, 1465}";
}
);
layerId = "1CEA669B-A0BD-449D-9ADA-118AD20DED36";
shapes = (
{
closed = 1;
nodes = (
(308,0,l),
(1403,1397,l),
(1410,1465,l),
(1334,1465,l),
(237,62,l),
(233,0,l)
);
},
{
closed = 1;
nodes = (
(291,0,l),
(461,1465,l),
(344,1465,l),
(179,0,l)
);
},
{
closed = 1;
nodes = (
(1299,0,l),
(1463,1465,l),
(1351,1465,l),
(1178,0,l)
);
}
);
width = 1597;
}
);
leftKerningGroup = "Ge-cy";
rightKerningGroup = "Ia-cy";
unicode = 1048;
},
{
glyphname = "Iigrave-cy";
layers = (
{
anchors = (
{
name = bottomright;
position = "{1450, 0}";
},
{
name = top;
position = "{886, 2051}";
}
);
layerId = "853DA88A-72D0-442C-B77F-5E2897338EA9";
shapes = (
{
closed = 1;
nodes = (
(523,0,l),
(1366,1273,l),
(1388,1465,l),
(1151,1465,l),
(272,180,l),
(252,0,l)
);
},
{
closed = 1;
nodes = (
(462,0,l),
(664,1465,l),
(225,1465,l),
(66,0,l)
);
},
{
closed = 1;
nodes = (
(1448,0,l),
(1606,1465,l),
(1207,1465,l),
(1008,0,l)
);
},
{
closed = 1;
nodes = (
(1138,1625,l),
(1046,2070,l),
(545,2070,l),
(807,1625,l)
);
}
);
width = 1721;
},
{
anchors = (
{
name = bottomright;
position = "{1401, 0}";
},
{
name = top;
position = "{877, 2039}";
}
);
layerId = "E1DC4E80-D015-47E5-8658-7F3F0651B68D";
shapes = (
{
closed = 1;
nodes = (
(456,0,l),
(1371,1308,l),
(1388,1465,l),
(1197,1465,l),
(256,146,l),
(241,0,l)
);
},
{
closed = 1;
nodes = (
(407,0,l),
(600,1465,l),
(253,1465,l),
(92,0,l)
);
},
{
closed = 1;
nodes = (
(1399,0,l),
(1559,1465,l),
(1242,1465,l),
(1051,0,l)
);
},
{
closed = 1;
nodes = (
(1093,1629,l),
(986,2055,l),
(590,2055,l),
(830,1629,l)
);
}
);
width = 1696;
},
{
anchors = (
{
name = bottomright;
position = "{1327, 0}";
},
{
name = top;
position = "{863, 2021}";
}
);
layerId = "5190A6EC-00FF-4542-AE94-5CA8DCFF9011";
shapes = (
{
closed = 1;
nodes = (
(355,0,l),
(1378,1361,l),
(1389,1465,l),
(1267,1465,l),
(232,96,l),
(224,0,l)
);
},
{
closed = 1;
nodes = (
(325,0,l),
(504,1465,l),
(295,1465,l),
(132,0,l)
);
},
{
closed = 1;
nodes = (
(1326,0,l),
(1489,1465,l),
(1295,1465,l),
(1115,0,l)
);
},
{
closed = 1;
nodes = (
(1025,1634,l),
(895,2033,l),
(658,2033,l),
(865,1634,l)
);
}
);
width = 1659;
},
{
anchors = (
{
name = bottomright;
position = "{1278, 0}";
},
{
name = top;
position = "{854, 2009}";
}
);
layerId = "1CEA669B-A0BD-449D-9ADA-118AD20DED36";
shapes = (
{
closed = 1;
nodes = (
(287,0,l),
(1382,1397,l),
(1389,1465,l),
(1313,1465,l),
(216,62,l),
(212,0,l)
);
},
{
closed = 1;
nodes = (
(270,0,l),
(440,1465,l),
(323,1465,l),
(158,0,l)
);
},
{
closed = 1;
nodes = (
(1278,0,l),
(1442,1465,l),
(1330,1465,l),
(1157,0,l)
);
},
{
closed = 1;
nodes = (
(979,1638,l),
(835,2019,l),
(703,2019,l),
(888,1638,l)
);
}
);
width = 1635;
}
);
leftKerningGroup = "Ge-cy";
rightKerningGroup = "Ia-cy";
unicode = 1037;
},
{
color = 8;
glyphname = "Iishorttail-cy";
layers = (
{
layerId = "853DA88A-72D0-442C-B77F-5E2897338EA9";
shapes = (
{
closed = 1;
nodes = (
(523,0,l),
(1366,1273,l),
(1388,1465,l),
(1151,1465,l),
(272,180,l),
(252,0,l)
);
},
{
closed = 1;
nodes = (
(462,0,l),
(664,1465,l),
(225,1465,l),
(66,0,l)
);
},
{
closed = 1;
nodes = (
(1448,0,l),
(1606,1465,l),
(1207,1465,l),
(1008,0,l)
);
},
{
closed = 1;
nodes = (
(1551,0,l),
(1717,303,l),
(1340,303,l),
(1372,0,l)
);
},
{
closed = 1;
nodes = (
(1506,-434,l),
(1717,303,l),
(1217,303,l),
(1154,-434,l)
);
},
{
alignment = -1;
pos = (230,0);
ref = breve.cap;
}
);
width = 1801;
},
{
layerId = "E1DC4E80-D015-47E5-8658-7F3F0651B68D";
shapes = (
{
closed = 1;
nodes = (
(456,0,l),
(1371,1308,l),
(1388,1465,l),
(1197,1465,l),
(256,146,l),
(241,0,l)
);
},
{
closed = 1;
nodes = (
(407,0,l),
(600,1465,l),
(253,1465,l),
(92,0,l)
);
},
{
closed = 1;
nodes = (
(1399,0,l),
(1559,1465,l),
(1242,1465,l),
(1051,0,l)
);
},
{
closed = 1;
nodes = (
(1521,0,l),
(1651,245,l),
(1312,245,l),
(1338,0,l)
);
},
{
closed = 1;
nodes = (
(1449,-434,l),
(1651,245,l),
(1257,245,l),
(1170,-434,l)
);
},
{
alignment = -1;
pos = (245,0);
ref = breve.cap;
}
);
width = 1767;
},
{
layerId = "5190A6EC-00FF-4542-AE94-5CA8DCFF9011";
shapes = (
{
closed = 1;
nodes = (
(355,0,l),
(1378,1361,l),
(1389,1465,l),
(1267,1465,l),
(232,96,l),
(224,0,l)
);
},
{
closed = 1;
nodes = (
(325,0,l),
(504,1465,l),
(295,1465,l),
(132,0,l)
);
},
{
closed = 1;
nodes = (
(1326,0,l),
(1489,1465,l),
(1295,1465,l),
(1115,0,l)
);
},
{
closed = 1;
nodes = (
(1475,0,l),
(1552,158,l),
(1270,158,l),
(1288,0,l)
);
},
{
closed = 1;
nodes = (
(1363,-434,l),
(1552,158,l),
(1318,158,l),
(1193,-434,l)
);
},
{
alignment = -1;
pos = (267,0);
ref = breve.cap;
}
);
width = 1716;
},
{
layerId = "1CEA669B-A0BD-449D-9ADA-118AD20DED36";
shapes = (
{
closed = 1;
nodes = (
(287,0,l),
(1382,1397,l),
(1389,1465,l),
(1313,1465,l),
(216,62,l),
(212,0,l)
);
},
{
closed = 1;
nodes = (
(270,0,l),
(440,1465,l),
(323,1465,l),
(158,0,l)
);
},
{
closed = 1;
nodes = (
(1278,0,l),
(1442,1465,l),
(1330,1465,l),
(1157,0,l)
);
},
{
closed = 1;
nodes = (
(1445,0,l),
(1486,100,l),
(1242,100,l),
(1254,0,l)
);
},
{
closed = 1;
nodes = (
(1305,-434,l),
(1486,100,l),
(1358,100,l),
(1209,-434,l)
);
},
{
alignment = -1;
pos = (282,0);
ref = breve.cap;
}
);
width = 1682;
}
);
leftKerningGroup = "Iu-cy";
unicode = 1162;
},
{
glyphname = "Imacron-cy";
layers = (
{
anchors = (
{
name = bottomright;
position = "{1450, 0}";
},
{
name = top;
position = "{961, 1906}";
}
);
layerId = "853DA88A-72D0-442C-B77F-5E2897338EA9";
shapes = (
{
closed = 1;
nodes = (
(523,0,l),
(1366,1273,l),
(1388,1465,l),
(1151,1465,l),
(272,180,l),
(252,0,l)
);
},
{
closed = 1;
nodes = (
(462,0,l),
(664,1465,l),
(225,1465,l),
(66,0,l)
);
},
{
closed = 1;
nodes = (
(1448,0,l),
(1606,1465,l),
(1207,1465,l),
(1008,0,l)
);
},
{
closed = 1;
nodes = (
(1351,1636,l),
(1380,1906,l),
(534,1906,l),
(506,1636,l)
);
}
);
width = 1721;
},
{
anchors = (
{
name = bottomright;
position = "{1401, 0}";
},
{
name = top;
position = "{948, 1875}";
}
);
layerId = "E1DC4E80-D015-47E5-8658-7F3F0651B68D";
shapes = (
{
closed = 1;
nodes = (
(456,0,l),
(1371,1308,l),
(1388,1465,l),
(1197,1465,l),
(256,146,l),
(241,0,l)
);
},
{
closed = 1;
nodes = (
(407,0,l),
(600,1465,l),
(253,1465,l),
(92,0,l)
);
},
{
closed = 1;
nodes = (
(1399,0,l),
(1559,1465,l),
(1242,1465,l),
(1051,0,l)
);
},
{
closed = 1;
nodes = (
(1331,1658,l),
(1354,1875,l),
(537,1875,l),
(514,1658,l)
);
}
);
width = 1696;
},
{
anchors = (
{
name = bottomright;
position = "{1327, 0}";
},
{
name = top;
position = "{929, 1828}";
}
);
layerId = "5190A6EC-00FF-4542-AE94-5CA8DCFF9011";
shapes = (
{
closed = 1;
nodes = (
(355,0,l),
(1378,1361,l),
(1389,1465,l),
(1267,1465,l),
(232,96,l),
(224,0,l)
);
},
{
closed = 1;
nodes = (
(325,0,l),
(504,1465,l),
(295,1465,l),
(132,0,l)
);
},
{
closed = 1;
nodes = (
(1326,0,l),
(1489,1465,l),
(1295,1465,l),
(1115,0,l)
);
},
{
closed = 1;
nodes = (
(1300,1690,l),
(1315,1828,l),
(541,1828,l),
(526,1690,l)
);
}
);
width = 1659;
},
{
anchors = (
{
name = bottomright;
position = "{1278, 0}";
},
{
name = top;
position = "{917, 1796}";
}
);
layerId = "1CEA669B-A0BD-449D-9ADA-118AD20DED36";
shapes = (
{
closed = 1;
nodes = (
(287,0,l),
(1382,1397,l),
(1389,1465,l),
(1313,1465,l),
(216,62,l),
(212,0,l)
);
},
{
closed = 1;
nodes = (
(270,0,l),
(440,1465,l),
(323,1465,l),
(158,0,l)
);
},
{
closed = 1;
nodes = (
(1278,0,l),
(1442,1465,l),
(1330,1465,l),
(1157,0,l)
);
},
{
closed = 1;
nodes = (
(1280,1712,l),
(1289,1796,l),
(543,1796,l),
(534,1712,l)
);
}
);
width = 1635;
}
);
leftKerningGroup = "Ge-cy";
rightKerningGroup = "Ia-cy";
unicode = 1250;
},
{
glyphname = Iogonek;
layers = (
{
layerId = "853DA88A-72D0-442C-B77F-5E2897338EA9";
shapes = (
{
closed = 1;
nodes = (
(726,1465,l),
(264,1465,l),
(97,1,l),
(-16,-76,o),
(-65,-163,o),
(-65,-246,cs),
(-65,-352,o),
(13,-434,o),
(148,-434,cs),
(258,-434,o),
(376,-381,o),
(424,-343,c),
(441,-206,l),
(413,-220,o),
(369,-225,o),
(340,-223,c),
(259,-222,o),
(229,-169,o),
(229,-126,cs),
(229,-70,o),
(282,-32,o),
(332,0,c),
(559,0,l)
);
}
);
width = 776;
},
{
layerId = "E1DC4E80-D015-47E5-8658-7F3F0651B68D";
shapes = (
{
closed = 1;
nodes = (
(647,1465,l),
(287,1465,l),
(121,4,l),
(-5,-79,o),
(-59,-161,o),
(-59,-253,cs),
(-59,-357,o),
(15,-439,o),
(141,-439,cs),
(236,-439,o),
(341,-394,o),
(392,-351,c),
(406,-231,l),
(374,-248,o),
(326,-258,o),
(292,-259,c),
(212,-261,o),
(178,-212,o),
(178,-164,cs),
(178,-101,o),
(239,-45,o),
(314,0,c),
(480,0,l)
);
}
);
width = 721;
},
{
layerId = "5190A6EC-00FF-4542-AE94-5CA8DCFF9011";
shapes = (
{
closed = 1;
nodes = (
(529,1465,l),
(322,1465,l),
(156,9,l),
(12,-83,o),
(-50,-158,o),
(-50,-264,cs),
(-50,-365,o),
(17,-447,o),
(130,-447,cs),
(204,-447,o),
(288,-414,o),
(345,-364,c),
(354,-269,l),
(315,-290,o),
(261,-307,o),
(221,-314,c),
(141,-320,o),
(101,-276,o),
(101,-220,cs),
(101,-147,o),
(175,-65,o),
(287,0,c),
(362,0,l)
);
}
);
width = 639;
},
{
layerId = "1CEA669B-A0BD-449D-9ADA-118AD20DED36";
shapes = (
{
closed = 1;
nodes = (
(451,1465,l),
(346,1465,l),
(180,12,l),
(23,-85,o),
(-44,-156,o),
(-44,-271,cs),
(-44,-370,o),
(19,-452,o),
(122,-452,cs),
(182,-452,o),
(253,-427,o),
(313,-372,c),
(319,-295,l),
(276,-318,o),
(217,-339,o),
(173,-350,c),
(94,-359,o),
(49,-318,o),
(49,-258,cs),
(49,-177,o),
(133,-78,o),
(269,0,c),
(284,0,l)
);
}
);
width = 585;
}
);
unicode = 302;
},
{
glyphname = Iotadieresis;
layers = (
{
anchors = (
{
name = _top;
position = "{480, 1465}";
},
{
name = top;
position = "{516, 2005}";
},
{
name = topleft;
position = "{45, 1465}";
}
);
layerId = "853DA88A-72D0-442C-B77F-5E2897338EA9";
shapes = (
{
closed = 1;
nodes = (
(560,0,l),
(718,1464,l),
(233,1464,l),
(73,0,l)
);
},
{
closed = 1;
nodes = (
(360,1590,o),
(447,1648,o),
(462,1762,cs),
(479,1889,o),
(404,2005,o),
(254,2005,cs),
(139,2005,o),
(62,1939,o),
(44,1835,c),
(29,1709,o),
(95,1590,o),
(254,1590,cs)
);
},
{
closed = 1;
nodes = (
(873,1590,o),
(957,1648,o),
(976,1762,c),
(992,1889,o),
(917,2005,o),
(764,2005,cs),
(650,2005,o),
(574,1939,o),
(558,1835,c),
(541,1708,o),
(608,1590,o),
(764,1590,cs)
);
}
);
width = 848;
},
{
anchors = (
{
name = _top;
position = "{457, 1465}";
},
{
name = top;
position = "{489, 1953}";
},
{
name = topleft;
position = "{75, 1465}";
}
);
layerId = "E1DC4E80-D015-47E5-8658-7F3F0651B68D";
shapes = (
{
closed = 1;
nodes = (
(483,0,l),
(642,1464,l),
(260,1464,l),
(99,0,l)
);
},
{
closed = 1;
nodes = (
(330,1610,o),
(401,1660,o),
(412,1755,cs),
(424,1859,o),
(361,1953,o),
(240,1953,cs),
(145,1953,o),
(81,1897,o),
(67,1810,c),
(55,1706,o),
(113,1610,o),
(241,1610,cs)
);
},
{
closed = 1;
nodes = (
(814,1610,o),
(882,1660,o),
(897,1755,c),
(909,1859,o),
(846,1953,o),
(722,1953,cs),
(627,1953,o),
(564,1897,o),
(553,1810,cs),
(539,1706,o),
(597,1610,o),
(723,1610,cs)
);
}
);
width = 800;
},
{
anchors = (
{
name = _top;
position = "{423, 1465}";
},
{
name = top;
position = "{449, 1874}";
},
{
name = topleft;
position = "{119, 1465}";
}
);
layerId = "5190A6EC-00FF-4542-AE94-5CA8DCFF9011";
shapes = (
{
closed = 1;
nodes = (
(368,0,l),
(529,1464,l),
(300,1464,l),
(138,0,l)
);
},
{
closed = 1;
nodes = (
(284,1640,o),
(331,1679,o),
(337,1744,cs),
(342,1815,o),
(297,1875,o),
(218,1875,cs),
(154,1875,o),
(109,1834,o),
(102,1773,cs),
(95,1701,o),
(141,1640,o),
(221,1640,cs)
);
},
{
closed = 1;
nodes = (
(725,1640,o),
(770,1679,o),
(778,1744,c),
(784,1815,o),
(739,1875,o),
(658,1875,cs),
(593,1875,o),
(549,1834,o),
(545,1773,c),
(537,1702,o),
(581,1640,o),
(661,1640,cs)
);
}
);
width = 727;
},
{
anchors = (
{
name = _top;
position = "{401, 1465}";
},
{
name = top;
position = "{423, 1822}";
},
{
name = topleft;
position = "{149, 1465}";
}
);
layerId = "1CEA669B-A0BD-449D-9ADA-118AD20DED36";
shapes = (
{
closed = 1;
nodes = (
(291,0,l),
(453,1464,l),
(326,1464,l),
(164,0,l)
);
},
{
closed = 1;
nodes = (
(254,1660,o),
(285,1691,o),
(287,1736,cs),
(288,1785,o),
(255,1823,o),
(204,1823,cs),
(160,1823,o),
(127,1792,o),
(125,1749,cs),
(121,1698,o),
(159,1660,o),
(208,1660,cs)
);
},
{
closed = 1;
nodes = (
(666,1660,o),
(696,1691,o),
(698,1736,cs),
(700,1785,o),
(667,1823,o),
(616,1823,cs),
(571,1823,o),
(539,1792,o),
(539,1749,c),
(535,1700,o),
(571,1660,o),
(619,1660,cs)
);
}
);
width = 679;
}
);
leftKerningGroup = Pi;
rightKerningGroup = Iotatonos;
unicode = 938;
},
{
glyphname = Iotatonos;
rightMetricsKey = Iota;
layers = (
{
layerId = "853DA88A-72D0-442C-B77F-5E2897338EA9";
shapes = (
{
closed = 1;
nodes = (
(1022,0,l),
(1179,1464,l),
(694,1464,l),
(534,0,l)
);
},
{
closed = 1;
nodes = (
(533,1464,l),
(87,1464,l),
(-41,873,l),
(299,873,l)
);
}
);
width = 1229;
},
{
layerId = "E1DC4E80-D015-47E5-8658-7F3F0651B68D";
shapes = (
{
closed = 1;
nodes = (
(839,0,l),
(997,1464,l),
(614,1464,l),
(454,0,l)
);
},
{
closed = 1;
nodes = (
(437,1464,l),
(84,1464,l),
(-46,880,l),
(221,880,l)
);
}
);
width = 1071;
},
{
layerId = "5190A6EC-00FF-4542-AE94-5CA8DCFF9011";
shapes = (
{
closed = 1;
nodes = (
(564,0,l),
(724,1464,l),
(495,1464,l),
(333,0,l)
);
},
{
closed = 1;
nodes = (
(292,1464,l),
(80,1464,l),
(-53,891,l),
(105,891,l)
);
}
);
width = 834;
},
{
layerId = "1CEA669B-A0BD-449D-9ADA-118AD20DED36";
shapes = (
{
closed = 1;
nodes = (
(380,0,l),
(542,1464,l),
(415,1464,l),
(253,0,l)
);
},
{
closed = 1;
nodes = (
(196,1464,l),
(78,1464,l),
(-57,899,l),
(27,899,l)
);
}
);
width = 676;
}
);
rightKerningGroup = Iotatonos;
unicode = 906;
},
{
color = 10;
glyphname = "Iu-cy";
leftMetricsKey = H;
rightMetricsKey = tttttO;
layers = (
{
anchors = (
{
name = top;
position = "{1196, 1465}";
}
);
layerId = "853DA88A-72D0-442C-B77F-5E2897338EA9";
shapes = (
{
closed = 1;
nodes = (
(1886,-41,o),
(2194,251,o),
(2254,677,cs),
(2320,1131,o),
(2058,1505,o),
(1548,1505,cs),
(1134,1505,o),
(868,1230,o),
(809,803,c),
(747,351,o),
(975,-41,o),
(1478,-41,cs)
);
},
{
closed = 1;
nodes = (
(552,0,l),
(713,1465,l),
(256,1465,l),
(97,0,l)
);
},
{
closed = 1;
nodes = (
(1047,563,l),
(1083,919,l),
(311,919,l),
(272,563,l)
);
},
{
closed = 1;
nodes = (
(1332,265,o),
(1245,464,o),
(1284,801,c),
(1303,1002,o),
(1366,1193,o),
(1525,1193,cs),
(1700,1193,o),
(1783,978,o),
(1744,642,c),
(1719,442,o),
(1663,265,o),
(1506,265,cs)
);
}
);
width = 2232;
},
{
anchors = (
{
name = top;
position = "{1146, 1465}";
}
);
layerId = "E1DC4E80-D015-47E5-8658-7F3F0651B68D";
shapes = (
{
closed = 1;
nodes = (
(1839,-34,o),
(2124,270,o),
(2177,677,c),
(2235,1116,o),
(1988,1498,o),
(1495,1498,cs),
(1081,1498,o),
(827,1204,o),
(775,798,cs),
(720,362,o),
(943,-34,o),
(1430,-34,cs)
);
},
{
closed = 1;
nodes = (
(480,0,l),
(641,1465,l),
(281,1465,l),
(120,0,l)
);
},
{
closed = 1;
nodes = (
(961,600,l),
(990,883,l),
(310,883,l),
(279,600,l)
);
},
{
closed = 1;
nodes = (
(1224,211,o),
(1115,463,o),
(1151,802,c),
(1174,1032,o),
(1269,1249,o),
(1474,1249,cs),
(1704,1249,o),
(1813,989,o),
(1776,647,c),
(1749,416,o),
(1657,211,o),
(1454,211,cs)
);
}
);
width = 2166;
},
{
anchors = (
{
name = top;
position = "{1071, 1465}";
}
);
layerId = "5190A6EC-00FF-4542-AE94-5CA8DCFF9011";
shapes = (
{
closed = 1;
nodes = (
(1768,-24,o),
(2019,299,o),
(2061,677,cs),
(2108,1094,o),
(1883,1488,o),
(1416,1488,cs),
(1002,1488,o),
(766,1164,o),
(724,791,c),
(679,378,o),
(894,-24,o),
(1358,-24,cs)
);
},
{
closed = 1;
nodes = (
(371,0,l),
(534,1465,l),
(319,1465,l),
(155,0,l)
);
},
{
closed = 1;
nodes = (
(831,655,l),
(850,828,l),
(309,828,l),
(290,655,l)
);
},
{
closed = 1;
nodes = (
(1061,130,o),
(919,461,o),
(952,803,c),
(980,1076,o),
(1124,1333,o),
(1398,1333,cs),
(1711,1333,o),
(1858,1005,o),
(1823,655,c),
(1794,376,o),
(1649,130,o),
(1377,130,cs)
);
}
);
width = 2067;
},
{
anchors = (
{
name = top;
position = "{1021, 1465}";
}
);
layerId = "1CEA669B-A0BD-449D-9ADA-118AD20DED36";
shapes = (
{
closed = 1;
nodes = (
(1720,-17,o),
(1949,318,o),
(1984,677,cs),
(2024,1079,o),
(1813,1482,o),
(1363,1482,cs),
(949,1482,o),
(726,1138,o),
(690,786,cs),
(651,389,o),
(862,-17,o),
(1310,-17,cs)
);
},
{
closed = 1;
nodes = (
(299,0,l),
(462,1465,l),
(344,1465,l),
(179,0,l)
);
},
{
closed = 1;
nodes = (
(745,692,l),
(756,792,l),
(308,792,l),
(297,692,l)
);
},
{
closed = 1;
nodes = (
(953,76,o),
(789,459,o),
(820,803,cs),
(851,1106,o),
(1027,1389,o),
(1348,1389,cs),
(1715,1389,o),
(1888,1015,o),
(1855,661,cs),
(1824,350,o),
(1643,76,o),
(1325,76,cs)
);
}
);
width = 1968;
}
);
leftKerningGroup = "Iu-cy";
unicode = 1070;
},
{
color = 10;
glyphname = "Izhitsa-cy";
leftMetricsKey = V;
layers = (
{
anchors = (
{
name = top;
position = "{918, 1465}";
}
);
layerId = "853DA88A-72D0-442C-B77F-5E2897338EA9";
shapes = (
{
closed = 1;
nodes = (
(997,0,l),
(1440,1069,l),
(1470,1135,o),
(1506,1171,o),
(1571,1171,cs),
(1593,1171,o),
(1619,1170,o),
(1649,1161,c),
(1791,1416,l),
(1675,1464,o),
(1559,1493,o),
(1445,1493,cs),
(1258,1493,o),
(1107,1405,o),
(1033,1164,cs),
(729,155,l),
(844,155,l),
(643,1465,l),
(134,1465,l),
(468,0,l)
);
}
);
width = 1675;
},
{
anchors = (
{
name = top;
position = "{899, 1465}";
}
);
layerId = "E1DC4E80-D015-47E5-8658-7F3F0651B68D";
shapes = (
{
closed = 1;
nodes = (
(921,0,l),
(1382,1089,l),
(1425,1184,o),
(1468,1233,o),
(1536,1233,cs),
(1560,1233,o),
(1585,1231,o),
(1616,1216,c),
(1728,1417,l),
(1632,1461,o),
(1535,1489,o),
(1435,1489,cs),
(1271,1489,o),
(1138,1403,o),
(1059,1168,cs),
(706,121,l),
(809,120,l),
(560,1465,l),
(161,1465,l),
(511,0,l)
);
}
);
width = 1633;
},
{
anchors = (
{
name = top;
position = "{871, 1465}";
}
);
layerId = "5190A6EC-00FF-4542-AE94-5CA8DCFF9011";
shapes = (
{
closed = 1;
nodes = (
(807,0,l),
(1295,1118,l),
(1358,1258,o),
(1411,1325,o),
(1484,1325,cs),
(1510,1325,o),
(1534,1322,o),
(1566,1299,c),
(1633,1418,l),
(1568,1457,o),
(1500,1482,o),
(1421,1482,cs),
(1291,1482,o),
(1185,1399,o),
(1098,1173,cs),
(671,70,l),
(757,68,l),
(435,1465,l),
(201,1465,l),
(575,0,l)
);
}
);
width = 1569;
},
{
anchors = (
{
name = top;
position = "{853, 1465}";
}
);
layerId = "1CEA669B-A0BD-449D-9ADA-118AD20DED36";
shapes = (
{
closed = 1;
nodes = (
(731,0,l),
(1237,1138,ls),
(1313,1308,o),
(1373,1387,o),
(1449,1387,cs),
(1476,1387,o),
(1500,1382,o),
(1532,1355,c),
(1570,1418,l),
(1525,1455,o),
(1476,1478,o),
(1411,1478,cs),
(1305,1478,o),
(1216,1397,o),
(1124,1177,cs),
(648,36,l),
(723,34,l),
(352,1465,l),
(228,1465,l),
(617,0,l)
);
}
);
width = 1527;
}
);
unicode = 1140;
},
{
glyphname = J;
layers = (
{
layerId = "853DA88A-72D0-442C-B77F-5E2897338EA9";
shapes = (
{
closed = 1;
nodes = (
(-163,-519,l),
(282,-380,o),
(543,-152,o),
(598,330,cs),
(728,1465,l),
(264,1465,l),
(123,224,ls),
(88,-83,o),
(-21,-199,o),
(-253,-340,c)
);
}
);
width = 776;
},
{
layerId = "E1DC4E80-D015-47E5-8658-7F3F0651B68D";
shapes = (
{
closed = 1;
nodes = (
(-141,-497,l),
(272,-344,o),
(471,-99,o),
(516,301,cs),
(649,1465,l),
(288,1465,l),
(147,227,ls),
(115,-54,o),
(29,-203,o),
(-217,-352,c)
);
}
);
width = 722;
},
{
layerId = "5190A6EC-00FF-4542-AE94-5CA8DCFF9011";
shapes = (
{
closed = 1;
nodes = (
(-108,-463,l),
(258,-290,o),
(362,-20,o),
(394,258,cs),
(531,1465,l),
(324,1465,l),
(184,231,ls),
(156,-10,o),
(105,-209,o),
(-163,-371,c)
);
}
);
width = 640;
},
{
layerId = "1CEA669B-A0BD-449D-9ADA-118AD20DED36";
shapes = (
{
closed = 1;
nodes = (
(-86,-441,l),
(248,-254,o),
(290,33,o),
(312,230,cs),
(453,1465,l),
(348,1465,l),
(208,234,l),
(183,19,o),
(155,-213,o),
(-127,-383,c)
);
}
);
width = 586;
}
);
unicode = 74;
},
{
color = 10;
glyphname = K;
layers = (
{
anchors = (
{
name = bottomright;
position = "{1524, 0}";
},
{
name = center;
position = "{431, 1211}";
}
);
layerId = "853DA88A-72D0-442C-B77F-5E2897338EA9";
shapes = (
{
closed = 1;
nodes = (
(1581,0,l),
(966,899,l),
(938,680,l),
(1574,1465,l),
(1057,1465,l),
(584,749,l),
(1009,0,l)
);
},
{
closed = 1;
nodes = (
(534,0,l),
(691,1465,l),
(224,1465,l),
(66,0,l)
);
}
);
width = 1649;
},
{
anchors = (
{
name = bottomright;
position = "{1441, 0}";
},
{
name = center;
position = "{420, 1215}";
}
);
layerId = "E1DC4E80-D015-47E5-8658-7F3F0651B68D";
shapes = (
{
closed = 1;
nodes = (
(1485,0,l),
(823,867,l),
(800,693,l),
(1484,1465,l),
(1070,1465,l),
(517,750,l),
(1028,0,l)
);
},
{
closed = 1;
nodes = (
(463,0,l),
(620,1465,l),
(252,1465,l),
(94,0,l)
);
}
);
width = 1574;
},
{
anchors = (
{
name = bottomright;
position = "{1316, 0}";
},
{
name = center;
position = "{403, 1220}";
}
);
layerId = "5190A6EC-00FF-4542-AE94-5CA8DCFF9011";
shapes = (
{
closed = 1;
nodes = (
(1340,0,l),
(609,820,l),
(593,712,l),
(1349,1465,l),
(1090,1465,l),
(417,752,l),
(1057,0,l)
);
},
{
closed = 1;
nodes = (
(357,0,l),
(514,1465,l),
(294,1465,l),
(136,0,l)
);
}
);
width = 1462;
},
{
anchors = (
{
name = bottomright;
position = "{1233, 0}";
},
{
name = center;
position = "{391, 1224}";
}
);
layerId = "1CEA669B-A0BD-449D-9ADA-118AD20DED36";
shapes = (
{
closed = 1;
nodes = (
(1244,0,l),
(467,788,l),
(455,724,l),
(1259,1465,l),
(1103,1465,l),
(350,754,l),
(1077,0,l)
);
},
{
closed = 1;
nodes = (
(287,0,l),
(444,1465,l),
(322,1465,l),
(164,0,l)
);
}
);
width = 1387;
}
);
rightKerningGroup = _K_Left;
unicode = 75;
},
{
glyphname = "Kabashkir-cy";
leftMetricsKey = "=Hardsign-cy";
rightMetricsKey = "=Ka-cy";
layers = (
{
layerId = "853DA88A-72D0-442C-B77F-5E2897338EA9";
shapes = (
{
closed = 1;
nodes = (
(1825,0,l),
(1231,928,l),
(1181,649,l),
(1865,1465,l),
(1354,1465,l),
(859,757,l),
(1263,0,l)
);
},
{
closed = 1;
nodes = (
(806,0,l),
(964,1465,l),
(499,1465,l),
(342,0,l)
);
},
{
closed = 1;
nodes = (
(762,1107,l),
(800,1465,l),
(169,1465,l),
(130,1107,l)
);
}
);
width = 1893;
},
{
layerId = "E1DC4E80-D015-47E5-8658-7F3F0651B68D";
shapes = (
{
closed = 1;
nodes = (
(1711,0,l),
(1078,887,l),
(1039,670,l),
(1766,1465,l),
(1355,1465,l),
(780,754,l),
(1263,0,l)
);
},
{
closed = 1;
nodes = (
(724,0,l),
(883,1465,l),
(516,1465,l),
(357,0,l)
);
},
{
closed = 1;
nodes = (
(715,1180,l),
(745,1465,l),
(164,1465,l),
(133,1180,l)
);
}
);
width = 1800;
},
{
layerId = "5190A6EC-00FF-4542-AE94-5CA8DCFF9011";
shapes = (
{
closed = 1;
nodes = (
(1544,0,l),
(852,826,l),
(830,701,l),
(1621,1465,l),
(1360,1465,l),
(665,750,l),
(1266,0,l)
);
},
{
closed = 1;
nodes = (
(604,0,l),
(764,1465,l),
(544,1465,l),
(383,0,l)
);
},
{
closed = 1;
nodes = (
(648,1290,l),
(666,1465,l),
(159,1465,l),
(140,1290,l)
);
}
);
width = 1666;
},
{
layerId = "1CEA669B-A0BD-449D-9ADA-118AD20DED36";
shapes = (
{
closed = 1;
nodes = (
(1431,0,l),
(699,786,l),
(689,722,l),
(1522,1465,l),
(1362,1465,l),
(587,748,l),
(1266,0,l)
);
},
{
closed = 1;
nodes = (
(523,0,l),
(683,1465,l),
(561,1465,l),
(398,0,l)
);
},
{
closed = 1;
nodes = (
(601,1364,l),
(612,1465,l),
(154,1465,l),
(143,1364,l)
);
}
);
width = 1574;
}
);
unicode = 1184;
},
{
glyphname = "Kadescender-cy";
layers = (
{
anchors = (
{
name = center;
position = "{431, 1211}";
}
);
layerId = "853DA88A-72D0-442C-B77F-5E2897338EA9";
shapes = (
{
closed = 1;
nodes = (
(1581,0,l),
(966,899,l),
(938,680,l),
(1574,1465,l),
(1057,1465,l),
(584,749,l),
(1009,0,l)
);
},
{
closed = 1;
nodes = (
(534,0,l),
(691,1465,l),
(224,1465,l),
(66,0,l)
);
},
{
closed = 1;
nodes = (
(1512,-434,l),
(1657,402,l),
(1175,402,l),
(1175,-434,l)
);
}
);
width = 1720;
},
{
anchors = (
{
name = center;
position = "{420, 1215}";
}
);
layerId = "E1DC4E80-D015-47E5-8658-7F3F0651B68D";
shapes = (
{
closed = 1;
nodes = (
(1485,0,l),
(823,867,l),
(800,693,l),
(1484,1465,l),
(1070,1465,l),
(517,750,l),
(1028,0,l)
);
},
{
closed = 1;
nodes = (
(463,0,l),
(620,1465,l),
(252,1465,l),
(94,0,l)
);
},
{
closed = 1;
nodes = (
(1419,-434,l),
(1543,316,l),
(1164,316,l),
(1153,-434,l)
);
}
);
width = 1636;
},
{
anchors = (
{
name = center;
position = "{403, 1220}";
}
);
layerId = "5190A6EC-00FF-4542-AE94-5CA8DCFF9011";
shapes = (
{
closed = 1;
nodes = (
(1340,0,l),
(609,820,l),
(593,712,l),
(1349,1465,l),
(1090,1465,l),
(417,752,l),
(1057,0,l)
);
},
{
closed = 1;
nodes = (
(357,0,l),
(514,1465,l),
(294,1465,l),
(136,0,l)
);
},
{
closed = 1;
nodes = (
(1280,-434,l),
(1371,188,l),
(1148,188,l),
(1121,-434,l)
);
}
);
width = 1509;
},
{
anchors = (
{
name = center;
position = "{391, 1224}";
}
);
layerId = "1CEA669B-A0BD-449D-9ADA-118AD20DED36";
shapes = (
{
closed = 1;
nodes = (
(1244,0,l),
(467,788,l),
(455,724,l),
(1259,1465,l),
(1103,1465,l),
(350,754,l),
(1077,0,l)
);
},
{
closed = 1;
nodes = (
(287,0,l),
(444,1465,l),
(322,1465,l),
(164,0,l)
);
},
{
closed = 1;
nodes = (
(1188,-434,l),
(1257,102,l),
(1137,102,l),
(1099,-434,l)
);
}
);
width = 1425;
}
);
leftKerningGroup = "Kahook-cy";
unicode = 1178;
},
{
glyphname = "Kahook-cy";
layers = (
{
layerId = "853DA88A-72D0-442C-B77F-5E2897338EA9";
shapes = (
{
closed = 1;
nodes = (
(1279,-556,o),
(1493,-367,o),
(1527,-78,c),
(1561,240,o),
(1320,616,o),
(968,899,c),
(954,695,l),
(1617,1465,l),
(1095,1465,l),
(572,714,l),
(809,510,o),
(1058,113,o),
(1035,-123,c),
(1023,-217,o),
(974,-287,o),
(869,-287,cs),
(840,-287,o),
(801,-279,o),
(763,-271,c),
(665,-487,l),
(745,-534,o),
(836,-556,o),
(961,-556,cs)
);
},
{
closed = 1;
nodes = (
(520,0,l),
(680,1465,l),
(212,1465,l),
(54,0,l)
);
}
);
width = 1661;
},
{
layerId = "E1DC4E80-D015-47E5-8658-7F3F0651B68D";
shapes = (
{
closed = 1;
nodes = (
(1227,-543,o),
(1421,-372,o),
(1450,-107,c),
(1489,250,o),
(1156,608,o),
(809,860,c),
(801,699,l),
(1540,1465,l),
(1122,1465,l),
(491,711,l),
(753,518,o),
(1091,144,o),
(1063,-139,c),
(1050,-245,o),
(991,-329,o),
(871,-329,cs),
(831,-329,o),
(779,-318,o),
(737,-298,c),
(657,-469,l),
(732,-520,o),
(824,-543,o),
(940,-543,cs)
);
},
{
closed = 1;
nodes = (
(435,0,l),
(594,1465,l),
(225,1465,l),
(67,0,l)
);
}
);
width = 1583;
},
{
layerId = "5190A6EC-00FF-4542-AE94-5CA8DCFF9011";
shapes = (
{
closed = 1;
nodes = (
(1150,-524,o),
(1312,-379,o),
(1335,-151,c),
(1380,264,o),
(909,596,o),
(570,801,c),
(571,706,l),
(1424,1465,l),
(1162,1465,l),
(369,706,l),
(670,529,o),
(1141,191,o),
(1104,-162,cs),
(1091,-286,o),
(1017,-392,o),
(873,-392,cs),
(817,-392,o),
(746,-376,o),
(698,-339,c),
(645,-443,l),
(713,-499,o),
(806,-524,o),
(908,-524,cs)
);
},
{
closed = 1;
nodes = (
(308,0,l),
(466,1465,l),
(244,1465,l),
(86,0,l)
);
}
);
width = 1467;
},
{
layerId = "1CEA669B-A0BD-449D-9ADA-118AD20DED36";
shapes = (
{
closed = 1;
nodes = (
(1098,-512,o),
(1240,-383,o),
(1259,-180,cs),
(1308,274,o),
(745,588,o),
(410,761,c),
(418,710,l),
(1346,1465,l),
(1189,1465,l),
(287,703,l),
(614,537,o),
(1175,223,o),
(1132,-178,cs),
(1119,-314,o),
(1035,-434,o),
(875,-434,cs),
(807,-434,o),
(724,-414,o),
(672,-367,c),
(637,-425,l),
(701,-485,o),
(794,-512,o),
(886,-512,cs)
);
},
{
closed = 1;
nodes = (
(223,0,l),
(380,1465,l),
(256,1465,l),
(98,0,l)
);
}
);
width = 1389;
}
);
leftKerningGroup = "Kahook-cy";
unicode = 1219;
},
{
glyphname = KaiSymbol;
layers = (
{
layerId = "853DA88A-72D0-442C-B77F-5E2897338EA9";
shapes = (
{
closed = 1;
nodes = (
(1129,-641,l),
(1219,-420,o),
(1371,-207,o),
(1558,0,c),
(965,919,l),
(938,699,l),
(1614,1464,l),
(1082,1464,l),
(585,749,l),
(1120,-225,l),
(1221,71,l),
(997,-109,o),
(819,-295,o),
(685,-486,c)
);
},
{
closed = 1;
nodes = (
(532,0,l),
(690,1464,l),
(225,1464,l),
(67,0,l)
);
}
);
width = 1652;
},
{
layerId = "E1DC4E80-D015-47E5-8658-7F3F0651B68D";
shapes = (
{
closed = 1;
nodes = (
(1011,-640,l),
(1114,-416,o),
(1269,-202,o),
(1459,0,c),
(820,883,l),
(798,707,l),
(1517,1464,l),
(1094,1464,l),
(516,750,l),
(1114,-180,l),
(1191,58,l),
(972,-122,o),
(797,-314,o),
(663,-515,c)
);
},
{
closed = 1;
nodes = (
(459,0,l),
(617,1464,l),
(250,1464,l),
(92,0,l)
);
}
);
width = 1580;
},
{
layerId = "5190A6EC-00FF-4542-AE94-5CA8DCFF9011";
shapes = (
{
closed = 1;
nodes = (
(835,-639,l),
(956,-409,o),
(1117,-195,o),
(1311,0,c),
(602,828,l),
(587,720,l),
(1371,1464,l),
(1112,1464,l),
(412,752,l),
(1105,-113,l),
(1147,39,l),
(934,-142,o),
(765,-343,o),
(630,-559,c)
);
},
{
closed = 1;
nodes = (
(350,0,l),
(508,1464,l),
(288,1464,l),
(130,0,l)
);
}
);
width = 1472;
},
{
layerId = "1CEA669B-A0BD-449D-9ADA-118AD20DED36";
shapes = (
{
closed = 1;
nodes = (
(717,-639,l),
(850,-405,o),
(1015,-191,o),
(1213,0,c),
(456,792,l),
(447,728,l),
(1273,1464,l),
(1124,1464,l),
(343,754,l),
(1099,-69,l),
(1117,27,l),
(908,-156,o),
(743,-363,o),
(608,-588,c)
);
},
{
closed = 1;
nodes = (
(278,0,l),
(436,1464,l),
(314,1464,l),
(156,0,l)
);
}
);
width = 1400;
}
);
unicode = 975;
},
{
glyphname = "Kastroke-cy";
layers = (
{
anchors = (
{
name = bottomright;
position = "{1524, 0}";
}
);
layerId = "853DA88A-72D0-442C-B77F-5E2897338EA9";
shapes = (
{
closed = 1;
nodes = (
(1581,0,l),
(966,899,l),
(938,680,l),
(1574,1465,l),
(1057,1465,l),
(584,749,l),
(1009,0,l)
);
},
{
closed = 1;
nodes = (
(534,0,l),
(691,1465,l),
(224,1465,l),
(66,0,l)
);
},
{
closed = 1;
nodes = (
(817,1090,l),
(851,1338,l),
(43,1338,l),
(8,1090,l)
);
}
);
width = 1649;
},
{
anchors = (
{
name = bottomright;
position = "{1441, 0}";
}
);
layerId = "E1DC4E80-D015-47E5-8658-7F3F0651B68D";
shapes = (
{
closed = 1;
nodes = (
(1485,0,l),
(823,867,l),
(800,693,l),
(1484,1465,l),
(1070,1465,l),
(517,750,l),
(1028,0,l)
);
},
{
closed = 1;
nodes = (
(463,0,l),
(620,1465,l),
(252,1465,l),
(94,0,l)
);
},
{
closed = 1;
nodes = (
(788,1115,l),
(814,1319,l),
(49,1319,l),
(22,1115,l)
);
}
);
width = 1574;
},
{
anchors = (
{
name = bottomright;
position = "{1316, 0}";
}
);
layerId = "5190A6EC-00FF-4542-AE94-5CA8DCFF9011";
shapes = (
{
closed = 1;
nodes = (
(1340,0,l),
(609,820,l),
(593,712,l),
(1349,1465,l),
(1090,1465,l),
(417,752,l),
(1057,0,l)
);
},
{
closed = 1;
nodes = (
(357,0,l),
(514,1465,l),
(294,1465,l),
(136,0,l)
);
},
{
closed = 1;
nodes = (
(744,1153,l),
(758,1290,l),
(57,1290,l),
(44,1153,l)
);
}
);
width = 1462;
},
{
anchors = (
{
name = bottomright;
position = "{1233, 0}";
}
);
layerId = "1CEA669B-A0BD-449D-9ADA-118AD20DED36";
shapes = (
{
closed = 1;
nodes = (
(1244,0,l),
(467,788,l),
(455,724,l),
(1259,1465,l),
(1103,1465,l),
(350,754,l),
(1077,0,l)
);
},
{
closed = 1;
nodes = (
(287,0,l),
(444,1465,l),
(322,1465,l),
(164,0,l)
);
},
{
closed = 1;
nodes = (
(715,1178,l),
(720,1270,l),
(63,1270,l),
(58,1178,l)
);
}
);
width = 1387;
}
);
rightKerningGroup = "Ka-cy";
unicode = 1182;
},
{
glyphname = "Kaverticalstroke-cy";
leftMetricsKey = K;
layers = (
{
layerId = "853DA88A-72D0-442C-B77F-5E2897338EA9";
shapes = (
{
closed = 1;
nodes = (
(1546,0,l),
(1368,527,l),
(1302,717,o),
(1238,918,o),
(848,918,cs),
(554,918,l),
(527,638,l),
(746,638,ls),
(872,638,o),
(942,562,o),
(966,363,c),
(1014,0,l)
);
},
{
closed = 1;
nodes = (
(507,0,l),
(663,1465,l),
(224,1465,l),
(66,0,l)
);
},
{
closed = 1;
nodes = (
(1231,719,l),
(1711,1465,l),
(1127,1465,l),
(917,719,l)
);
},
{
closed = 1;
nodes = (
(927,1232,l),
(723,1232,l),
(624,278,l),
(827,278,l)
);
}
);
width = 1696;
},
{
layerId = "E1DC4E80-D015-47E5-8658-7F3F0651B68D";
shapes = (
{
closed = 1;
nodes = (
(1462,0,l),
(1299,492,ls),
(1231,698,o),
(1157,883,o),
(820,883,cs),
(492,883,l),
(470,657,l),
(736,657,ls),
(874,657,o),
(944,569,o),
(980,362,cs),
(1042,0,l)
);
},
{
closed = 1;
nodes = (
(441,0,l),
(597,1465,l),
(252,1465,l),
(94,0,l)
);
},
{
closed = 1;
nodes = (
(1127,725,l),
(1624,1465,l),
(1164,1465,l),
(875,725,l)
);
},
{
closed = 1;
nodes = (
(861,1202,l),
(691,1202,l),
(597,300,l),
(766,300,l)
);
}
);
width = 1620;
},
{
layerId = "5190A6EC-00FF-4542-AE94-5CA8DCFF9011";
shapes = (
{
closed = 1;
nodes = (
(1336,0,l),
(1195,440,l),
(1124,669,o),
(1035,831,o),
(779,831,cs),
(399,831,l),
(385,686,l),
(721,686,ls),
(877,686,o),
(947,579,o),
(1000,361,c),
(1084,0,l)
);
},
{
closed = 1;
nodes = (
(342,0,l),
(499,1465,l),
(294,1465,l),
(136,0,l)
);
},
{
closed = 1;
nodes = (
(970,733,l),
(1493,1465,l),
(1220,1465,l),
(811,733,l)
);
},
{
closed = 1;
nodes = (
(762,1158,l),
(643,1158,l),
(556,334,l),
(674,334,l)
);
}
);
width = 1507;
},
{
layerId = "1CEA669B-A0BD-449D-9ADA-118AD20DED36";
shapes = (
{
closed = 1;
nodes = (
(1252,0,l),
(1125,405,ls),
(1052,650,o),
(954,797,o),
(751,797,cs),
(337,797,l),
(329,705,l),
(711,705,ls),
(879,705,o),
(949,586,o),
(1014,361,c),
(1112,0,l)
);
},
{
closed = 1;
nodes = (
(276,0,l),
(433,1465,l),
(322,1465,l),
(164,0,l)
);
},
{
closed = 1;
nodes = (
(866,739,l),
(1406,1465,l),
(1257,1465,l),
(769,739,l)
);
},
{
closed = 1;
nodes = (
(696,1128,l),
(611,1128,l),
(529,356,l),
(613,356,l)
);
}
);
width = 1431;
}
);
leftKerningGroup = "Be-cy";
unicode = 1180;
},
{
glyphname = "Kje-cy";
layers = (
{
anchors = (
{
name = _top;
position = "{853, 1465}";
},
{
name = bottomright;
position = "{1524, 0}";
},
{
name = center;
position = "{431, 1211}";
},
{
name = top;
position = "{1000, 2047}";
}
);
layerId = "853DA88A-72D0-442C-B77F-5E2897338EA9";
shapes = (
{
closed = 1;
nodes = (
(1581,0,l),
(966,899,l),
(938,680,l),
(1574,1465,l),
(1057,1465,l),
(584,749,l),
(1009,0,l)
);
},
{
closed = 1;
nodes = (
(534,0,l),
(691,1465,l),
(224,1465,l),
(66,0,l)
);
},
{
closed = 1;
nodes = (
(1007,1625,l),
(1363,2070,l),
(850,2070,l),
(659,1625,l)
);
}
);
width = 1649;
},
{
anchors = (
{
name = _top;
position = "{828, 1465}";
},
{
name = bottomright;
position = "{1441, 0}";
},
{
name = center;
position = "{420, 1215}";
},
{
name = top;
position = "{972, 2035}";
}
);
layerId = "E1DC4E80-D015-47E5-8658-7F3F0651B68D";
shapes = (
{
closed = 1;
nodes = (
(1485,0,l),
(823,867,l),
(800,693,l),
(1484,1465,l),
(1070,1465,l),
(517,750,l),
(1028,0,l)
);
},
{
closed = 1;
nodes = (
(463,0,l),
(620,1465,l),
(252,1465,l),
(94,0,l)
);
},
{
closed = 1;
nodes = (
(949,1629,l),
(1280,2055,l),
(873,2055,l),
(672,1629,l)
);
}
);
width = 1574;
},
{
anchors = (
{
name = _top;
position = "{791, 1465}";
},
{
name = bottomright;
position = "{1316, 0}";
},
{
name = center;
position = "{403, 1220}";
},
{
name = top;
position = "{931, 2017}";
}
);
layerId = "5190A6EC-00FF-4542-AE94-5CA8DCFF9011";
shapes = (
{
closed = 1;
nodes = (
(1340,0,l),
(609,820,l),
(593,712,l),
(1349,1465,l),
(1090,1465,l),
(417,752,l),
(1057,0,l)
);
},
{
closed = 1;
nodes = (
(357,0,l),
(514,1465,l),
(294,1465,l),
(136,0,l)
);
},
{
closed = 1;
nodes = (
(862,1634,l),
(1155,2033,l),
(907,2033,l),
(692,1634,l)
);
}
);
width = 1462;
},
{
anchors = (
{
name = _top;
position = "{766, 1465}";
},
{
name = bottomright;
position = "{1233, 0}";
},
{
name = center;
position = "{391, 1224}";
},
{
name = top;
position = "{903, 2005}";
}
);
layerId = "1CEA669B-A0BD-449D-9ADA-118AD20DED36";
shapes = (
{
closed = 1;
nodes = (
(1244,0,l),
(467,788,l),
(455,724,l),
(1259,1465,l),
(1103,1465,l),
(350,754,l),
(1077,0,l)
);
},
{
closed = 1;
nodes = (
(287,0,l),
(444,1465,l),
(322,1465,l),
(164,0,l)
);
},
{
closed = 1;
nodes = (
(804,1638,l),
(1071,2019,l),
(929,2019,l),
(706,1638,l)
);
}
);
width = 1387;
}
);
leftKerningGroup = "Be-cy";
rightKerningGroup = "Ka-cy";
unicode = 1036;
},
{
glyphname = L;
layers = (
{
layerId = "853DA88A-72D0-442C-B77F-5E2897338EA9";
shapes = (
{
closed = 1;
nodes = (
(1024,0,l),
(1098,262,l),
(589,262,l),
(726,1465,l),
(264,1465,l),
(97,0,l)
);
}
);
width = 1221;
},
{
layerId = "E1DC4E80-D015-47E5-8658-7F3F0651B68D";
shapes = (
{
closed = 1;
nodes = (
(989,0,l),
(1052,221,l),
(506,221,l),
(647,1465,l),
(287,1465,l),
(120,0,l)
);
}
);
width = 1176;
},
{
layerId = "5190A6EC-00FF-4542-AE94-5CA8DCFF9011";
shapes = (
{
closed = 1;
nodes = (
(936,0,l),
(983,159,l),
(381,159,l),
(529,1465,l),
(322,1465,l),
(155,0,l)
);
}
);
width = 1108;
},
{
layerId = "1CEA669B-A0BD-449D-9ADA-118AD20DED36";
shapes = (
{
closed = 1;
nodes = (
(900,0,l),
(937,117,l),
(297,117,l),
(451,1465,l),
(346,1465,l),
(179,0,l)
);
}
);
width = 1062;
}
);
rightKerningGroup = _L_Left;
unicode = 76;
},
{
glyphname = Lambda;
layers = (
{
layerId = "853DA88A-72D0-442C-B77F-5E2897338EA9";
shapes = (
{
closed = 1;
nodes = (
(424,0,l),
(940,1409,l),
(773,1409,l),
(1036,0,l),
(1599,0,l),
(1196,1592,l),
(656,1592,l),
(-82,0,l)
);
}
);
width = 1576;
},
{
layerId = "E1DC4E80-D015-47E5-8658-7F3F0651B68D";
shapes = (
{
closed = 1;
nodes = (
(348,0,l),
(917,1439,l),
(783,1439,l),
(1076,0,l),
(1518,0,l),
(1113,1592,l),
(692,1592,l),
(-55,0,l)
);
}
);
width = 1526;
},
{
layerId = "5190A6EC-00FF-4542-AE94-5CA8DCFF9011";
shapes = (
{
closed = 1;
nodes = (
(233,0,l),
(882,1484,l),
(798,1484,l),
(1135,0,l),
(1397,0,l),
(988,1592,l),
(747,1592,l),
(-15,0,l)
);
}
);
width = 1452;
},
{
layerId = "1CEA669B-A0BD-449D-9ADA-118AD20DED36";
shapes = (
{
closed = 1;
nodes = (
(157,0,l),
(859,1514,l),
(808,1514,l),
(1175,0,l),
(1316,0,l),
(905,1592,l),
(783,1592,l),
(12,0,l)
);
}
);
width = 1402;
}
);
unicode = 923;
},
